<?xml version="1.0" encoding="utf-8"?>
<!-- Generator: Adobe Illustrator 25.0.0, SVG Export Plug-In . SVG Version: 6.00 Build 0)  -->
<svg version="1.1" id="Layer_1" xmlns="http://www.w3.org/2000/svg" xmlns:xlink="http://www.w3.org/1999/xlink" x="0px" y="0px"
	 viewBox="0 0 246.1 246.1" style="enable-background:new 0 0 246.1 246.1;" xml:space="preserve">
<style type="text/css">
	.st0{fill:#5B6ED8;}
	.st1{fill:none;stroke:#FFFFFF;stroke-width:5.9759;stroke-linecap:round;stroke-linejoin:round;stroke-miterlimit:10;}
	.st2{fill:#FFFFFF;}
</style>
<path class="st0" d="M175,246.1H71.1C31.9,246.1,0,214.3,0,175V71.1C0,31.9,31.9,0,71.1,0H175c39.3,0,71.1,31.9,71.1,71.1V175
	C246.1,214.3,214.3,246.1,175,246.1z"/>
<g>
	<g>
		<path class="st1" d="M163.9,57c-13.1-9.1-28.9-14.4-45.6-14.4c-8.9,0-17.8,1.5-26.3,4.5c-0.9,0.3-1.7,0.6-2.4,0.9"/>
		<path class="st1" d="M89.6,48c0.8-0.3,1.7-0.6,2.4-0.9c8.5-3,17.3-4.5,26.3-4.5c16.7,0,32.5,5.3,45.6,14.4"/>
		<path class="st1" d="M76,64.4c5.5-4.1,11.8-7.4,18.6-9.8c7.6-2.7,15.5-4,23.6-4c23.8,0,45.7,11.9,58.8,30.8"/>
		<path class="st1" d="M66.6,85c7.3-10.3,17.9-18.5,30.7-23c6.8-2.4,13.8-3.5,21-3.5c27,0,51.1,17.1,60,42.5
			c0.4,1.1,3.1,9.1,5.2,21.2"/>
		<path class="st1" d="M76,64.4c5.5-4.1,11.8-7.4,18.6-9.8c7.6-2.7,15.5-4,23.6-4c23.8,0,45.7,11.9,58.8,30.8"/>
		<path class="st1" d="M66.6,85c7.3-10.3,17.9-18.5,30.7-23c6.8-2.4,13.8-3.5,21-3.5c27,0,51.1,17.1,60,42.5
			c0.4,1.1,3.1,9.1,5.2,21.2"/>
		<path class="st1" d="M66.8,153.7c1.2-6-1.1-13.2-1.2-13.3c-10-28.9,5.3-60.7,34.3-70.8c5.9-2.1,12.1-3.1,18.4-3.1
			c23.6,0,44.7,15,52.5,37.2c0.6,1.8,7.8,23.1,7.1,50.7"/>
		<path class="st1" d="M70.7,163.9c8.1-9.6,2.6-25.8,2.5-26.1c-8.6-24.8,4.5-52,29.4-60.8c5.1-1.8,10.4-2.7,15.8-2.7
			c20.2,0,38.3,12.8,45.1,31.9c0.7,2.1,11.5,33.8,4.3,69.7"/>
		<path class="st1" d="M66.8,153.7c1.2-6-1.1-13.2-1.2-13.3c-10-28.9,5.3-60.7,34.3-70.8c5.9-2.1,12.1-3.1,18.4-3.1
			c23.6,0,44.7,15,52.5,37.2c0.6,1.8,7.8,23.1,7.1,50.7"/>
		<path class="st1" d="M74.5,171.4c14.1-12.7,6.6-35.2,6.2-36.1c-7.2-20.7,3.8-43.4,24.5-50.6c4.2-1.5,8.6-2.2,13.1-2.2
			c16.8,0,32,10.7,37.5,26.6c0.8,2.3,14.3,41.7-0.4,81.3"/>
		<path class="st1" d="M70.7,163.9c8.1-9.6,2.6-25.8,2.5-26.1c-8.6-24.8,4.5-52,29.4-60.8c5.1-1.8,10.4-2.7,15.8-2.7
			c20.2,0,38.3,12.8,45.1,31.9c0.7,2.1,11.5,33.8,4.3,69.7"/>
		<path class="st1" d="M142.8,198.8c13.5-25.2,12.5-52.1,9.8-69.3"/>
		<path class="st1" d="M78.8,178.1c12-9.9,12.9-24.6,11.7-34.6"/>
		<path class="st1" d="M74.5,171.4c14.1-12.7,6.6-35.2,6.2-36.1c-7.2-20.7,3.8-43.4,24.5-50.6c4.2-1.5,8.6-2.2,13.1-2.2
			c16.8,0,32,10.7,37.5,26.6c0.8,2.3,14.3,41.7-0.4,81.3"/>
		<path class="st1" d="M146.2,143.6c1,17.1-1.4,39.3-15,59.2"/>
		<path class="st1" d="M98.8,151.3c-0.3,10.8-3.5,23.6-15.1,33.1"/>
		<path class="st1" d="M142.8,198.8c13.5-25.2,12.5-52.1,9.8-69.3"/>
		<path class="st1" d="M78.8,178.1c12-9.9,12.9-24.6,11.7-34.6"/>
		<path class="st1" d="M138.5,150.9c-0.1,16.2-4,35.6-17.9,52.6"/>
		<path class="st1" d="M106.5,155.2c-0.9,11.6-5.2,24.7-17.2,34.8"/>
		<path class="st1" d="M130.4,155.2c-0.8,15-5.4,32.3-19.2,47.1"/>
		<path class="st1" d="M114.3,157c-1.2,12.6-5.9,26.7-18.6,38.1"/>
		<path class="st1" d="M138.5,150.9c-0.1,16.2-4,35.6-17.9,52.6"/>
		<path class="st1" d="M106.5,155.2c-0.9,11.6-5.2,24.7-17.2,34.8"/>
		<path class="st1" d="M130.4,155.2c-0.8,15-5.4,32.3-19.2,47.1"/>
		<path class="st1" d="M114.3,157c-1.2,12.6-5.9,26.7-18.6,38.1"/>
		<path class="st1" d="M122.3,155.2c0,15.3-3.8,29-19.4,44.1"/>
	</g>
	<circle class="st2" cx="118.3" cy="120.6" r="31.3"/>
	<g>
		<path class="st0" d="M120.8,145.6c-0.3-0.1-0.5-0.4-0.7-0.6c-5.3-6.3-10.5-12.5-16.1-18.5c-0.4-0.4-0.5-0.7-0.5-1.2
			c0-1.2,0-2.4,0-3.7c0-0.9,0.4-1.3,1.3-1.3c1.9,0,3.7,0.1,5.6-0.1c2.1-0.2,4.2-0.7,5.9-2c1.1-0.8,1.9-1.9,2.2-3.2
			c0-0.1,0-0.1,0.1-0.3c-0.2,0-0.4,0-0.5,0c-4.4,0-8.8,0-13.2,0c-0.1,0-0.3,0-0.4,0c-0.6-0.1-1-0.4-1.1-1.1c0-1,0-2,0-3
			c0-1,0.4-1.4,1.4-1.4c4.2,0,8.5,0,12.8,0c0.1,0,0.4,0,0.6,0c-0.2-0.6-0.6-1-1-1.4c-1.2-1.2-2.7-1.7-4.3-2
			c-1.2-0.3-2.5-0.3-3.8-0.3c-1.4,0-2.8,0-4.2,0c-1,0-1.4-0.4-1.4-1.4c0-1.3,0-2.6,0-3.9c0-0.9,0.4-1.3,1.3-1.3c9,0,18.1,0,27.1,0
			c0.9,0,1.2,0.4,1.3,1.2c0,1,0,1.9,0,3c0,0.9-0.4,1.3-1.3,1.3c-2.3,0-4.6,0-6.9,0c-0.1,0-0.3,0-0.4,0c-0.1,0.1,0.1,0.2,0.1,0.4
			c0.9,1.2,1.4,2.5,1.8,4c0.1,0.4,0.2,0.4,0.6,0.4c1.7,0,3.2,0,4.9,0c0.9,0,1.3,0.4,1.3,1.3s0,1.9,0,2.9s-0.4,1.3-1.3,1.3
			c-1.7,0-3.2,0-4.9,0c-0.2,0-0.4,0-0.4,0.3c-1.1,5.6-4.7,8.9-10,10.4c-1.1,0.3-2.2,0.5-3.2,0.6c0.1,0.2,0.2,0.3,0.3,0.4
			c5.1,5.5,9.9,11.4,14.7,17.2c0.6,0.7,0.4,1.3-0.4,1.8C125.5,145.6,123.1,145.6,120.8,145.6z"/>
	</g>
</g>
</svg>
