<?xml version="1.0" encoding="utf-8"?>
<!-- Generator: Adobe Illustrator 25.0.0, SVG Export Plug-In . SVG Version: 6.00 Build 0)  -->
<svg version="1.1" id="Layer_1" xmlns="http://www.w3.org/2000/svg" xmlns:xlink="http://www.w3.org/1999/xlink" x="0px" y="0px"
	 viewBox="0 0 246.1 246.1" style="enable-background:new 0 0 246.1 246.1;" xml:space="preserve">
<style type="text/css">
	.st0{fill:#5B6ED8;}
	.st1{fill:#FFFFFF;}
</style>
<path class="st0" d="M175,246.1H71.1C31.9,246.1,0,214.3,0,175V71.1C0,31.9,31.9,0,71.1,0H175c39.3,0,71.1,31.9,71.1,71.1V175
	C246.1,214.3,214.3,246.1,175,246.1z"/>
<g>
	<g>
		<path class="st1" d="M127.9,41.4L127.9,41.4h-6.8c-1.5,0-2.8,1.3-2.8,2.8v57.3c0,0.6-0.5,1.1-1.1,1.1h-9.5c-0.9,0-1.4,1.1-0.8,1.7
			l15.4,17.2c0.4,0.5,1.1,0.5,1.6,0l15.4-17.2c0.6-0.7,0.1-1.7-0.8-1.7H129c-0.6,0-1.1-0.5-1.1-1.1V51c38.2,2.7,68.3,35.3,66.9,74.4
			c-1.3,38.2-32.7,68.9-70.9,69.6c-37.2,0.6-68.1-27.1-72.7-62.8c-0.2-1.8-1.7-3.1-3.5-3.1h-2.5c-2.2,0-3.8,1.9-3.5,4
			c5,40.4,39.6,71.8,81.4,71.6c45-0.2,81.3-36.6,81.3-81.7C204.5,79.6,170.6,44.1,127.9,41.4z"/>
	</g>
</g>
</svg>
