<?xml version="1.0" encoding="utf-8"?>
<!-- Generator: Adobe Illustrator 25.0.0, SVG Export Plug-In . SVG Version: 6.00 Build 0)  -->
<svg version="1.1" id="Layer_1" xmlns="http://www.w3.org/2000/svg" xmlns:xlink="http://www.w3.org/1999/xlink" x="0px" y="0px"
	 viewBox="0 0 246.1 246.1" style="enable-background:new 0 0 246.1 246.1;" xml:space="preserve">
<style type="text/css">
	.st0{fill:#5B6ED8;}
	.st1{fill:#FFFFFF;}
</style>
<path class="st0" d="M175,246.1H71.1C31.9,246.1,0,214.3,0,175V71.1C0,31.9,31.9,0,71.1,0H175c39.3,0,71.1,31.9,71.1,71.1V175
	C246.1,214.3,214.3,246.1,175,246.1z"/>
<g>
	<path class="st1" d="M165.2,169.7v24.7H74.8V51.7h90.4v48.1c0,0.7,0.6,1.3,1.3,1.3h4.8c0.7,0,1.3-0.6,1.3-1.3V44.3H67.4v157.5
		h105.1v-32.1c0-0.6-0.5-1.1-1.1-1.1h-5.1C165.7,168.6,165.2,169.1,165.2,169.7z"/>
	<g>
		<path class="st1" d="M112.4,75.4H83.7c-0.7,0-1.2-0.5-1.2-1.2v-4.8c0-0.7,0.5-1.2,1.2-1.2h28.8c0.7,0,1.2,0.5,1.2,1.2v4.8
			C113.6,74.9,113.1,75.4,112.4,75.4z"/>
	</g>
	<g>
		<path class="st1" d="M112.4,87.9H83.7c-0.7,0-1.2-0.5-1.2-1.2V82c0-0.7,0.5-1.2,1.2-1.2h28.8c0.7,0,1.2,0.5,1.2,1.2v4.8
			C113.6,87.4,113.1,87.9,112.4,87.9z"/>
	</g>
	<g>
		<path class="st1" d="M112.4,100.5H83.7c-0.7,0-1.2-0.5-1.2-1.2v-4.8c0-0.7,0.5-1.2,1.2-1.2h28.8c0.7,0,1.2,0.5,1.2,1.2v4.8
			C113.6,100,113.1,100.5,112.4,100.5z"/>
	</g>
	<g>
		<path class="st1" d="M112.4,119.4H83.7c-0.7,0-1.2-0.5-1.2-1.2v-4.8c0-0.7,0.5-1.2,1.2-1.2h28.8c0.7,0,1.2,0.5,1.2,1.2v4.8
			C113.6,118.9,113.1,119.4,112.4,119.4z"/>
	</g>
	<g>
		<path class="st1" d="M112.4,131.9H83.7c-0.7,0-1.2-0.5-1.2-1.2V126c0-0.7,0.5-1.2,1.2-1.2h28.8c0.7,0,1.2,0.5,1.2,1.2v4.8
			C113.6,131.4,113.1,131.9,112.4,131.9z"/>
	</g>
	<g>
		<path class="st1" d="M112.4,144.5H83.7c-0.7,0-1.2-0.5-1.2-1.2v-4.8c0-0.7,0.5-1.2,1.2-1.2h28.8c0.7,0,1.2,0.5,1.2,1.2v4.8
			C113.6,144,113.1,144.5,112.4,144.5z"/>
	</g>
	<g>
		<path class="st1" d="M112.4,163.4H83.7c-0.7,0-1.2-0.5-1.2-1.2v-4.8c0-0.7,0.5-1.2,1.2-1.2h28.8c0.7,0,1.2,0.5,1.2,1.2v4.8
			C113.6,162.8,113.1,163.4,112.4,163.4z"/>
	</g>
	<g>
		<path class="st1" d="M112.4,176H83.7c-0.7,0-1.2-0.5-1.2-1.2V170c0-0.7,0.5-1.2,1.2-1.2h28.8c0.7,0,1.2,0.5,1.2,1.2v4.8
			C113.6,175.4,113.1,176,112.4,176z"/>
	</g>
	<g>
		<path class="st1" d="M112.4,188.5H83.7c-0.7,0-1.2-0.5-1.2-1.2v-4.8c0-0.7,0.5-1.2,1.2-1.2h28.8c0.7,0,1.2,0.5,1.2,1.2v4.8
			C113.6,188,113.1,188.5,112.4,188.5z"/>
	</g>
	<g>
		<path class="st1" d="M158.2,175.5H139c-0.7,0-1.2-0.5-1.2-1.2v-3.9c0-0.7,0.5-1.2,1.2-1.2h19.2c0.7,0,1.2,0.5,1.2,1.2v3.9
			C159.4,175,158.9,175.5,158.2,175.5z"/>
	</g>
	<g>
		<path class="st1" d="M158.2,188.1H139c-0.7,0-1.2-0.5-1.2-1.2V183c0-0.7,0.5-1.2,1.2-1.2h19.2c0.7,0,1.2,0.5,1.2,1.2v3.9
			C159.4,187.5,158.9,188.1,158.2,188.1z"/>
	</g>
	<g>
		<path class="st1" d="M158.2,75H139c-0.7,0-1.2-0.5-1.2-1.2v-3.9c0-0.7,0.5-1.2,1.2-1.2h19.2c0.7,0,1.2,0.5,1.2,1.2v3.9
			C159.4,74.4,158.9,75,158.2,75z"/>
	</g>
	<g>
		<path class="st1" d="M158.2,87.5H139c-0.7,0-1.2-0.5-1.2-1.2v-3.9c0-0.7,0.5-1.2,1.2-1.2h19.2c0.7,0,1.2,0.5,1.2,1.2v3.9
			C159.4,87,158.9,87.5,158.2,87.5z"/>
	</g>
	<g>
		<path class="st1" d="M158.2,100.1H139c-0.7,0-1.2-0.5-1.2-1.2V95c0-0.7,0.5-1.2,1.2-1.2h19.2c0.7,0,1.2,0.5,1.2,1.2v3.9
			C159.4,99.6,158.9,100.1,158.2,100.1z"/>
	</g>
	<circle class="st1" cx="169.6" cy="134.2" r="29"/>
	<path class="st0" d="M177,122.2c-0.3-0.5-0.6-0.9-0.9-1.4c-0.2-0.3-0.5-0.6-0.7-0.9h7.9c0.2-1,0.4-2.1,0.6-3.1
		c0.1-0.6,0.3-1.2,0.4-1.7h-8.8h-15.5c-0.6,1.6-1.2,3.2-1.8,4.8h8v0.1c1.7,0.4,3.2,1.2,4.4,2.2h-11.4c-0.4,1.3-0.8,2.5-1.1,3.8
		c-0.1,0.4-0.2,0.9-0.3,1.4h15.7c0,0.5,0,0.9-0.1,1.4c-0.4,1.6-1.7,2.9-3.5,3.7c-2.1,0.9-4.6,1-7.1,0.4l-1.3,4.8c0.1,0,0.1,0,0.2,0
		l-0.2,0.1c2.7,4.2,5.5,8.3,8.2,12.2c0.9,1.4,1.9,2.8,2.8,4.2h6.7c-1.7-2.5-3.4-5-5.1-7.5c-1.9-2.9-3.9-5.8-5.9-8.7
		c1.2-0.2,2.4-0.5,3.5-1c3.3-1.4,5.5-3.9,6.4-7c0.2-0.9,0.4-1.8,0.3-2.7h5.4c0-0.4,0.1-0.9,0.2-1.3c0.2-1.3,0.4-2.5,0.6-3.8
		L177,122.2L177,122.2z"/>
</g>
</svg>
