<?xml version="1.0" encoding="utf-8"?>
<!-- Generator: Adobe Illustrator 25.0.0, SVG Export Plug-In . SVG Version: 6.00 Build 0)  -->
<svg version="1.1" id="Layer_1" xmlns="http://www.w3.org/2000/svg" xmlns:xlink="http://www.w3.org/1999/xlink" x="0px" y="0px"
	 viewBox="0 0 246.1 246.1" style="enable-background:new 0 0 246.1 246.1;" xml:space="preserve">
<style type="text/css">
	.st0{fill:#5B6ED8;}
	.st1{fill:#FFFFFF;}
</style>
<path class="st0" d="M175,246.1H71.1C31.9,246.1,0,214.3,0,175V71.1C0,31.9,31.9,0,71.1,0H175c39.3,0,71.1,31.9,71.1,71.1V175
	C246.1,214.3,214.3,246.1,175,246.1z"/>
<g>
	<g>
		<path class="st1" d="M194.9,60.4H51.2c-2.9,0-5.3,2.4-5.3,5.3v56.7c0,2.9,2.4,5.3,5.3,5.3h26.1v53c0,2.8,2.3,5.1,5.1,5.1h81.4
			c2.8,0,5.1-2.3,5.1-5.1v-53h26.2c2.9,0,5.3-2.4,5.3-5.3V65.6C200.1,62.7,197.8,60.4,194.9,60.4z M159.1,158.2c-0.1,0-0.2,0-0.4,0
			c-9.3,0-16.9,7.6-16.9,16.8c0,0.3,0,0.6,0,0.9h-37.2c0-0.1,0-0.3,0-0.4V175c0-9.3-7.6-16.9-16.9-16.9h-0.6c-0.1,0-0.2,0-0.3,0
			V99.4h72.2L159.1,158.2L159.1,158.2z M87,166.1c0.1,0,0.2,0,0.2,0h0.6c5,0,9,4,9,9v0.5c0,0.1,0,0.3,0,0.4h-9.9L87,166.1L87,166.1z
			 M149.7,175.9c0-0.2,0-0.5,0-0.9c0-5,4-8.9,9-8.9c0.1,0,0.2,0,0.4,0v9.8H149.7z M190.5,117.9h-21.7V94.8c0-2.8-2.3-5.1-5.1-5.1
			H82.4c-2.8,0-5.1,2.3-5.1,5.1v23.1H55.6V70.1h134.8L190.5,117.9L190.5,117.9z"/>
		<path class="st1" d="M123,145.8c9.3,0,16.9-7.6,16.9-16.9s-7.6-16.9-16.9-16.9c-9.3,0-16.9,7.6-16.9,16.9S113.7,145.8,123,145.8z
			 M123,120c5,0,9,4,9,9c0,5-4,9-9,9s-9-4-9-9S118.1,120,123,120z"/>
	</g>
</g>
</svg>
