<?xml version="1.0" encoding="UTF-8"?>
<svg width="21" height="21" viewBox="0 0 21 21" fill="none" xmlns="http://www.w3.org/2000/svg">
            <path d="M9.11643 13.3027C7.4838 11.963 6.39368 10.3099 5.82057 9.36932L5.39307 8.56506C5.54255 8.40501 6.68243 7.18696 7.17641 6.52607C7.79717 5.6962 6.89715 4.94669 6.89715 4.94669C6.89715 4.94669 4.36467 2.41915 3.78752 1.91778C3.21037 1.41571 2.54599 1.69456 2.54599 1.69456C1.33295 2.47671 0.0754135 3.15672 -2.80005e-05 6.4271C-0.00284167 9.489 2.32635 12.6471 4.84511 15.092C7.36791 17.8531 10.8317 20.6205 14.1805 20.6173C17.4574 20.5428 18.1386 19.288 18.9224 18.0775C18.9224 18.0775 19.202 17.415 18.6994 16.8386C18.1965 16.2623 15.6633 13.7346 15.6633 13.7346C15.6633 13.7346 14.9128 12.8362 14.081 13.4562C13.4611 13.9186 12.3479 14.9472 12.0797 15.1965C12.0803 15.1974 10.2182 14.2068 9.11643 13.3027Z" fill="#ffffff"></path>
            <path fill-rule="evenodd" clip-rule="evenodd" d="M9.33819 0.901182C9.39275 0.3516 9.88251 -0.0496908 10.4321 0.00487511C15.6307 0.52102 19.7629 4.65324 20.279 9.85181C20.3336 10.4014 19.9323 10.8911 19.3827 10.9457C18.8331 11.0003 18.3434 10.599 18.2888 10.0494C17.8668 5.79914 14.4848 2.41708 10.2345 1.99509C9.68491 1.94052 9.28362 1.45076 9.33819 0.901182Z" fill="#ffffff"></path>
            <path fill-rule="evenodd" clip-rule="evenodd" d="M9.34707 4.86812C9.43845 4.32345 9.95407 3.95598 10.4987 4.04736C13.4319 4.53944 15.7445 6.85203 16.2365 9.78516C16.3279 10.3298 15.9605 10.8455 15.4158 10.9368C14.8711 11.0282 14.3555 10.6607 14.2641 10.1161C13.9132 8.02419 12.2597 6.37074 10.1678 6.01979C9.62316 5.92841 9.25569 5.41279 9.34707 4.86812Z" fill="#ffffff"></path>
            </svg> 

