<?xml version="1.0" encoding="utf-8"?>
<!-- Generator: Adobe Illustrator 25.0.0, SVG Export Plug-In . SVG Version: 6.00 Build 0)  -->
<svg version="1.1" id="Layer_1" xmlns="http://www.w3.org/2000/svg" xmlns:xlink="http://www.w3.org/1999/xlink" x="0px" y="0px"
	 viewBox="0 0 246.1 246.1" style="enable-background:new 0 0 246.1 246.1;" xml:space="preserve">
<style type="text/css">
	.st0{fill:#5B6ED8;}
	.st1{fill:none;stroke:#5CD68E;stroke-width:6.3141;stroke-linecap:round;stroke-linejoin:round;stroke-miterlimit:10;}
	.st2{fill:none;stroke:#5B6ED8;stroke-width:6.3141;stroke-linecap:round;stroke-linejoin:round;stroke-miterlimit:10;}
	.st3{fill:#FFFFFF;}
	.st4{fill:#455CBF;}
</style>
<g>
	<g>
		<path class="st1" d="M179.8,31.2c-18.2-12.7-40.1-20-63.3-20c-12.4,0-24.7,2.1-36.5,6.2c-1.2,0.4-2.3,0.9-3.4,1.3"/>
		<path class="st2" d="M76.6,18.7c1.1-0.4,2.3-0.9,3.4-1.3c11.8-4.1,24-6.2,36.5-6.2c23.2,0,45.1,7.3,63.3,20"/>
		<path class="st2" d="M57.7,41.5c7.7-5.7,16.4-10.3,25.9-13.6c10.6-3.7,21.6-5.6,32.8-5.6c33.1,0,63.5,16.5,81.7,42.8"/>
		<path class="st2" d="M44.7,70.2c10.2-14.3,24.8-25.7,42.6-31.9c9.4-3.3,19.2-4.9,29.2-4.9c37.5,0,71,23.7,83.4,59.1
			c0.5,1.5,4.3,12.6,7.2,29.5"/>
		<path class="st2" d="M57.7,41.5c7.7-5.7,16.4-10.3,25.9-13.6c10.6-3.7,21.6-5.6,32.8-5.6c33.1,0,63.5,16.5,81.7,42.8"/>
		<path class="st2" d="M44.7,70.2c10.2-14.3,24.8-25.7,42.6-31.9c9.4-3.3,19.2-4.9,29.2-4.9c37.5,0,71,23.7,83.4,59.1
			c0.5,1.5,4.3,12.6,7.2,29.5"/>
		<path class="st2" d="M44.9,165.6c1.6-8.4-1.5-18.4-1.6-18.5c-13.9-40.1,7.4-84.3,47.6-98.3c8.2-2.9,16.8-4.3,25.5-4.3
			c32.8,0,62.1,20.8,73,51.7c0.9,2.5,10.9,32.1,9.9,70.5"/>
		<path class="st2" d="M50.3,179.7c11.2-13.3,3.6-35.9,3.5-36.2c-12-34.5,6.3-72.3,40.8-84.4c7.1-2.5,14.4-3.7,21.9-3.7
			c28.1,0,53.2,17.8,62.6,44.3c1,2.9,16,47,6,96.8"/>
		<path class="st2" d="M44.9,165.6c1.6-8.4-1.5-18.4-1.6-18.5c-13.9-40.1,7.4-84.3,47.6-98.3c8.2-2.9,16.8-4.3,25.5-4.3
			c32.8,0,62.1,20.8,73,51.7c0.9,2.5,10.9,32.1,9.9,70.5"/>
		<path class="st2" d="M55.6,190.1c19.6-17.7,9.1-48.9,8.6-50.2c-10-28.7,5.3-60.3,34-70.3c5.9-2.1,12-3.1,18.2-3.1
			c23.4,0,44.4,14.8,52.1,36.9c1.1,3.2,19.8,58-0.6,113"/>
		<path class="st2" d="M50.3,179.7c11.2-13.3,3.6-35.9,3.5-36.2c-12-34.5,6.3-72.3,40.8-84.4c7.1-2.5,14.4-3.7,21.9-3.7
			c28.1,0,53.2,17.8,62.6,44.3c1,2.9,16,47,6,96.8"/>
		<path class="st2" d="M150.5,228.3c18.7-35,17.4-72.4,13.6-96.3"/>
		<path class="st2" d="M61.6,199.5c16.7-13.8,17.9-34.2,16.3-48.1"/>
		<path class="st2" d="M55.6,190.1c19.6-17.7,9.1-48.9,8.6-50.2c-10-28.7,5.3-60.3,34-70.3c5.9-2.1,12-3.1,18.2-3.1
			c23.4,0,44.4,14.8,52.1,36.9c1.1,3.2,19.8,58-0.6,113"/>
		<path class="st2" d="M155.2,151.5c1.4,23.8-2,54.6-20.9,82.3"/>
		<path class="st2" d="M89.4,162.3c-0.4,15-4.9,32.8-21,46"/>
		<path class="st2" d="M150.5,228.3c18.7-35,17.4-72.4,13.6-96.3"/>
		<path class="st2" d="M61.6,199.5c16.7-13.8,17.9-34.2,16.3-48.1"/>
		<path class="st2" d="M144.5,161.7c-0.1,22.5-5.5,49.5-24.8,73.1"/>
		<path class="st2" d="M100.1,167.7c-1.3,16.1-7.2,34.3-23.9,48.4"/>
		<path class="st2" d="M133.3,167.6c-1.1,20.8-7.5,44.9-26.7,65.4"/>
		<path class="st2" d="M110.9,170.2c-1.6,17.5-8.2,37.1-25.8,52.9"/>
		<path class="st2" d="M144.5,161.7c-0.1,22.5-5.5,49.5-24.8,73.1"/>
		<path class="st2" d="M100.1,167.7c-1.3,16.1-7.2,34.3-23.9,48.4"/>
		<path class="st2" d="M133.3,167.6c-1.1,20.8-7.5,44.9-26.7,65.4"/>
		<path class="st2" d="M110.9,170.2c-1.6,17.5-8.2,37.1-25.8,52.9"/>
		<path class="st2" d="M122,167.6c0,21.3-5.3,40.3-26.9,61.2"/>
	</g>
	<circle class="st0" cx="116.5" cy="119.6" r="43.5"/>
	<g>
		<path class="st3" d="M119.9,154.3c-0.4-0.2-0.7-0.5-1-0.8c-7.3-8.7-14.6-17.4-22.4-25.7c-0.5-0.5-0.7-1-0.7-1.7c0-1.7,0-3.4,0-5.1
			c0-1.2,0.6-1.8,1.8-1.8c2.6,0,5.2,0.1,7.8-0.1c2.9-0.3,5.8-1,8.2-2.8c1.5-1.1,2.6-2.6,3.1-4.4c0-0.1,0-0.2,0.1-0.4
			c-0.3,0-0.5,0-0.7,0c-6.1,0-12.2,0-18.3,0c-0.2,0-0.4,0-0.6,0c-0.9-0.1-1.4-0.6-1.5-1.5c0-1.4,0-2.8,0-4.2c0-1.4,0.5-1.9,1.9-1.9
			c5.9,0,11.8,0,17.8,0c0.2,0,0.5,0,0.8,0c-0.3-0.8-0.8-1.4-1.4-2c-1.7-1.6-3.7-2.4-6-2.8c-1.7-0.4-3.5-0.4-5.3-0.4
			c-2,0-3.9,0-5.9,0c-1.4,0-1.9-0.5-1.9-1.9c0-1.8,0-3.6,0-5.4c0-1.3,0.5-1.8,1.8-1.8c12.5,0,25.1,0,37.6,0c1.2,0,1.7,0.5,1.8,1.7
			c0,1.4,0,2.7,0,4.1c0,1.3-0.5,1.8-1.8,1.8c-3.2,0-6.4,0-9.6,0c-0.2,0-0.4,0-0.6,0c-0.1,0.2,0.1,0.3,0.2,0.5c1.2,1.7,2,3.5,2.5,5.5
			c0.1,0.5,0.3,0.6,0.8,0.6c2.3,0,4.5,0,6.8,0c1.3,0,1.8,0.5,1.8,1.8c0,1.3,0,2.7,0,4c0,1.3-0.5,1.8-1.8,1.8c-2.3,0-4.5,0-6.8,0
			c-0.3,0-0.5,0-0.6,0.4c-1.5,7.8-6.5,12.3-13.9,14.5c-1.5,0.4-3,0.7-4.5,0.9c0.1,0.3,0.3,0.4,0.4,0.6c7.1,7.7,13.8,15.8,20.4,23.9
			c0.8,1,0.6,1.8-0.5,2.5C126.5,154.3,123.2,154.3,119.9,154.3z"/>
	</g>
</g>
</svg>
