<?xml version="1.0" encoding="utf-8"?>
<!-- Generator: Adobe Illustrator 25.0.0, SVG Export Plug-In . SVG Version: 6.00 Build 0)  -->
<svg version="1.1" id="Layer_1" xmlns="http://www.w3.org/2000/svg" xmlns:xlink="http://www.w3.org/1999/xlink" x="0px" y="0px"
	 viewBox="0 0 512 512" style="enable-background:new 0 0 512 512;" xml:space="preserve">
<style type="text/css">
	.st0{fill:#5B6ED8;}
	.st1{fill:#6788EF;}
	.st2{fill:#566AC1;}
</style>
<g>
	<g>
		<path class="st1" d="M259,272.8c-51.5,0-93.5-41.9-93.5-93.5c0-51.5,41.9-93.5,93.5-93.5c51.5,0,93.5,41.9,93.5,93.5
			C352.5,230.8,310.6,272.8,259,272.8z M259,103.5c-41.8,0-75.8,34-75.8,75.8c0,41.8,34,75.8,75.8,75.8c41.8,0,75.8-34,75.8-75.8
			C334.8,137.5,300.8,103.5,259,103.5z"/>
	</g>
	<path class="st2" d="M327.7,253.7c-1.7,1.9-3.6,3.7-5.4,5.4c-2.4,2.3-2.2,6.2,0.5,8.1c31,22.6,51.5,58.6,52.8,99.5
		c0.1,2.4,2,4.3,4.4,4.3h9.7c2.5,0,4.5-2.1,4.4-4.6c-1.4-46.4-24.5-87.4-59.4-113.4C332.5,251.4,329.5,251.7,327.7,253.7z"/>
	<path class="st2" d="M181.7,252.4c-37.5,25.8-62.5,68.6-63.7,117.1c-0.1,2.1,1.7,3.9,3.8,3.9h11c2,0,3.7-1.6,3.8-3.7
		c1.2-42.8,23.5-80.5,56.9-102.9c2.5-1.7,2.8-5.2,0.7-7.3c-2.1-2.1-4.1-4.2-6.1-6.4C186.4,251.3,183.7,251,181.7,252.4z"/>
</g>
</svg>
