<?xml version="1.0" encoding="utf-8"?>
<!-- Generator: Adobe Illustrator 25.0.0, SVG Export Plug-In . SVG Version: 6.00 Build 0)  -->
<svg version="1.1" id="Layer_1" xmlns="http://www.w3.org/2000/svg" xmlns:xlink="http://www.w3.org/1999/xlink" x="0px" y="0px"
	 viewBox="0 0 246.1 246.1" style="enable-background:new 0 0 246.1 246.1;" xml:space="preserve">
<style type="text/css">
	.st0{fill:#5B6ED8;}
	.st1{fill:#FFFFFF;}
</style>
<path class="st0" d="M175,246.1H71.1C31.9,246.1,0,214.3,0,175V71.1C0,31.9,31.9,0,71.1,0H175c39.3,0,71.1,31.9,71.1,71.1V175
	C246.1,214.3,214.3,246.1,175,246.1z"/>
<g>
	<g>
		<g>
			<path class="st1" d="M178.1,189.5c-0.3,0-0.5-0.1-0.8-0.1c-1.4-0.4-2.2-1.9-1.8-3.3c0.8-2.5,1.4-5,2-7.5c0.6-2.4,1.2-4.8,1.6-7.3
				c0.5-2.3,0.9-4.7,1.3-7c0.3-1.4,1.6-2.4,3-2.1s2.4,1.6,2.1,3.1c-0.4,2.4-0.8,4.8-1.4,7.3c-0.5,2.5-1.1,5-1.7,7.5
				c-0.7,2.5-1.4,5.2-2.1,7.8C180.3,188.8,179.3,189.5,178.1,189.5z"/>
		</g>
		<g>
			<path class="st1" d="M185.5,132.9c-1.4,0-2.5-1.1-2.6-2.5c-0.2-7.5-0.8-14.9-1.9-22.2c-0.8-5.4-1.8-10.7-3-15.6
				c-0.9-3.8-1.7-6.3-1.9-7.1c-1.8-5.4-4.3-10.6-7.7-15.2c-3.3-4.5-7.2-8.5-11.7-11.8c-4.5-3.3-9.5-5.8-14.7-7.5
				c-5.4-1.8-11-2.6-16.9-2.6c-1.4,0-2.7,0.1-4.1,0.2c-1.4,0.1-2.7,0.3-4.1,0.5c-1.4,0.3-2.7,0.5-4.1,0.8c-1.4,0.3-2.6,0.7-4,1.1
				c-6.8,2.1-13,5.5-18.4,10.2c-5.2,4.4-9.5,9.7-12.7,15.8s-5.3,12.6-6,19.4c-0.2,1.4-1.4,2.5-2.9,2.3c-1.4-0.2-2.5-1.4-2.3-2.9
				c0.8-7.5,3-14.7,6.5-21.3c3.6-6.7,8.2-12.5,14-17.5c5.9-5,12.7-8.8,20.2-11.1c1.4-0.5,2.9-0.8,4.3-1.2c1.4-0.3,3-0.7,4.4-0.8
				c1.4-0.3,3-0.4,4.5-0.5c1.5-0.1,3-0.2,4.5-0.2c6.4,0,12.5,1,18.5,3c5.8,1.9,11.3,4.7,16.2,8.3s9.2,8,12.9,12.9
				c3.6,5.1,6.5,10.7,8.5,16.7c0.3,0.9,1.1,3.6,2,7.5c1.2,5.1,2.2,10.5,3.1,16c1.1,7.5,1.7,15.2,1.9,22.9
				C188,131.8,186.8,133,185.5,132.9C185.5,132.9,185.5,132.9,185.5,132.9z"/>
		</g>
		<g>
			<path class="st1" d="M60.8,177.4c-0.5,0-1-0.2-1.5-0.5c-1.2-0.8-1.4-2.5-0.7-3.6c1.5-2.2,3-4.4,4.2-6.8c1.3-2.3,2.4-4.7,3.3-7.1
				c0.9-2.5,1.8-4.9,2.4-7.4c0.7-2.5,1.2-5.1,1.5-7.7c0.4-3.1,0.6-6.3,0.6-9.5c0-2.6-0.2-5.3-0.4-8c-0.3-1.9-0.5-3.9-0.8-5.8
				c-0.3-1.4-0.5-2.4-0.6-2.7c-0.3-1.4,0.5-2.9,1.9-3.2c1.4-0.3,2.9,0.5,3.2,1.9c0.1,0.4,0.3,1.4,0.7,3c0.3,1.9,0.7,4,0.8,6.1
				c0.3,2.9,0.4,5.7,0.4,8.6c0,3.5-0.3,6.9-0.7,10.2c-0.4,2.9-0.9,5.7-1.6,8.4c-0.7,2.7-1.5,5.4-2.5,8c-1,2.6-2.2,5.2-3.6,7.6
				c-1.4,2.5-2.9,4.9-4.5,7.3C62.5,177.1,61.6,177.4,60.8,177.4z"/>
		</g>
		<g>
			<path class="st1" d="M163.5,198c-0.3,0-0.6-0.1-0.9-0.2c-1.4-0.5-2-2-1.5-3.4c1.3-3.3,2.4-6.8,3.5-10.2c1-3.2,1.9-6.5,2.6-9.8
				c0.8-3.1,1.4-6.3,1.9-9.4c0.5-3,1-5.9,1.4-8.9c1-8.3,1.4-16.9,1.3-25.4c-0.2-6.9-0.8-13.9-1.7-20.8c-0.8-5-1.6-9.9-2.7-14.5
				c-0.8-3.6-1.5-5.8-1.8-6.6c-0.4-1.4,0.3-2.9,1.7-3.3c1.4-0.4,2.9,0.3,3.3,1.7c0.3,0.8,1,3.3,1.9,7c1.1,4.7,2,9.7,2.8,15
				c1,7,1.6,14.2,1.8,21.3c0.3,8.8-0.3,17.6-1.3,26.2c-0.4,3-0.8,6.1-1.4,9.1c-0.6,3.2-1.3,6.5-2,9.7c-0.8,3.4-1.7,6.8-2.7,10.2
				c-1.1,3.6-2.2,7-3.6,10.5C165.6,197.3,164.6,198,163.5,198z"/>
		</g>
		<g>
			<path class="st1" d="M69.1,185.2c-0.6,0-1.1-0.2-1.5-0.5c-1.2-0.8-1.4-2.5-0.6-3.6c1.9-2.6,3.7-5.3,5.3-8.1
				c1.5-2.8,3-5.7,4.2-8.6s2.2-6,3-9.1c0.8-3.1,1.4-6.3,1.9-9.5c0.5-3.6,0.8-7.5,0.7-11.4c0-3.1-0.3-6.4-0.6-9.4
				c-0.3-2.3-0.6-4.5-1-6.6c-0.3-1.5-0.6-2.5-0.7-2.9c-1.9-6-2.4-12.3-1.8-18.6c0.7-6.1,2.4-11.9,5.3-17.3
				c2.9-5.4,6.7-10.2,11.4-14.1c4.8-4.1,10.3-7.1,16.4-9.1c1.2-0.4,2.3-0.7,3.6-0.9c1.2-0.3,2.4-0.5,3.6-0.7s2.4-0.3,3.6-0.4
				c1.2-0.1,2.4-0.2,3.6-0.2c5.1,0,10.1,0.8,14.9,2.4c4.7,1.5,9.1,3.8,13.1,6.7c1.2,0.8,1.4,2.5,0.6,3.6c-0.8,1.2-2.5,1.4-3.6,0.6
				c-3.6-2.5-7.5-4.6-11.7-6c-4.2-1.4-8.7-2.1-13.3-2.1c-1.1,0-2.1,0.1-3.2,0.2c-1.1,0.1-2.1,0.3-3.2,0.4c-1.1,0.2-2.1,0.4-3.2,0.6
				c-1,0.3-2.1,0.5-3.1,0.8c-5.3,1.7-10.3,4.4-14.6,8C93.7,73,90.3,77.2,87.7,82c-2.5,4.8-4.1,10.2-4.7,15.5
				c-0.6,5.6-0.1,11.1,1.6,16.5l0.1,0.1c0.1,0.4,0.4,1.5,0.8,3.3c0.4,2.2,0.8,4.6,1.1,7c0.4,3.3,0.6,6.7,0.6,10
				c0.1,4.1-0.3,8.1-0.8,12c-0.4,3.5-1.1,6.9-1.9,10.2s-1.9,6.5-3.2,9.7c-1.3,3.1-2.7,6.3-4.4,9.2s-3.6,5.9-5.7,8.7
				C70.7,184.9,69.9,185.2,69.1,185.2z"/>
		</g>
		<g>
			<path class="st1" d="M149.2,203c-0.3,0-0.8-0.1-1.1-0.3c-1.4-0.6-1.9-2.1-1.4-3.5c1.7-3.9,3.4-7.9,4.7-11.9
				c1.4-3.7,2.5-7.6,3.6-11.5c0.9-3.6,1.8-7.3,2.5-10.9c0.7-3.4,1.2-6.9,1.6-10.3c0.9-7.8,1.4-15.8,1.2-23.7
				c-0.2-6.4-0.7-13-1.5-19.2c-0.7-4.7-1.5-9.2-2.5-13.4c-0.8-3.4-1.4-5.5-1.6-6.1c-1-3.2-2.5-6.2-4.5-8.8c-0.8-1.2-0.6-2.8,0.6-3.6
				c1.2-0.8,2.8-0.6,3.6,0.6c2.3,3.1,4,6.6,5.2,10.3c0.3,0.8,0.9,3,1.8,6.5c1,4.4,1.9,9.1,2.5,13.9c0.9,6.5,1.4,13.2,1.6,19.9
				c0.2,8.2-0.3,16.4-1.2,24.5c-0.4,3.6-1,7.1-1.7,10.6c-0.8,3.8-1.6,7.5-2.5,11.4c-1.1,4-2.3,8-3.6,11.9c-1.4,4.2-3.1,8.3-4.9,12.3
				C151.3,202.4,150.2,203,149.2,203z"/>
		</g>
		<g>
			<path class="st1" d="M95.8,136.5c-1.4,0-2.6-1.2-2.6-2.5c-0.1-3.6-0.3-7.3-0.7-10.9c-0.3-2.6-0.8-5.2-1.2-7.5
				c-0.4-2-0.8-3-0.8-3.1c-1.4-4.6-1.9-9.4-1.4-14.2c0.5-4.7,1.8-9.1,4-13.2c2.2-4.2,5.1-7.8,8.6-10.8c3.7-3.1,7.9-5.4,12.5-6.9
				c0.9-0.3,1.8-0.5,2.7-0.8c0.9-0.3,1.8-0.4,2.7-0.5c0.9-0.2,1.9-0.3,2.7-0.3c0.9-0.1,1.9-0.1,2.8-0.1c3.9,0,7.7,0.6,11.4,1.8
				c3.6,1.2,6.9,3,10,5.1c1.2,0.8,1.4,2.5,0.6,3.6c-0.8,1.2-2.5,1.4-3.6,0.6c-2.6-1.9-5.5-3.4-8.6-4.4c-3.1-1-6.4-1.5-9.7-1.5
				c-0.8,0-1.6,0.1-2.4,0.1c-0.8,0.1-1.6,0.2-2.4,0.3c-0.8,0.2-1.5,0.3-2.3,0.5c-0.8,0.2-1.5,0.4-2.3,0.7c-4,1.3-7.5,3.3-10.7,5.9
				c-3,2.5-5.5,5.8-7.4,9.2c-1.9,3.6-3,7.4-3.4,11.4c-0.4,4.2,0,8.2,1.2,12.2c0.1,0.1,0.4,1.4,0.8,3.6c0.5,2.5,0.9,5.2,1.3,8
				c0.5,3.8,0.7,7.6,0.8,11.5C98.4,135.3,97.2,136.5,95.8,136.5L95.8,136.5z"/>
		</g>
		<g>
			<path class="st1" d="M78.2,191.8c-0.6,0-1.1-0.2-1.5-0.5c-1.2-0.8-1.4-2.5-0.6-3.6c2.2-3,4.2-6.1,6-9.3c1.8-3.2,3.4-6.5,4.7-9.8
				c1.4-3.4,2.5-6.9,3.5-10.4c0.3-1.4,1.8-2.2,3.2-1.9c1.4,0.3,2.2,1.8,1.9,3.2c-1,3.7-2.2,7.5-3.6,11c-1.4,3.6-3.1,7.1-5,10.4
				c-1.9,3.4-4.1,6.7-6.4,9.8C79.8,191.5,79,191.8,78.2,191.8z"/>
		</g>
		<g>
			<path class="st1" d="M135.6,205.5c-0.4,0-0.8-0.1-1.2-0.3c-1.3-0.7-1.8-2.2-1.1-3.6c2.1-4.2,4.2-8.6,5.8-12.9
				c1.6-4.1,3-8.2,4.2-12.5c1.1-3.9,2.1-7.9,3-11.9c0.8-3.6,1.4-7.4,1.8-11c0.9-7.2,1.3-14.7,1.1-21.9c-0.1-1.4,1.1-2.6,2.5-2.6
				c1.4,0,2.6,1.1,2.6,2.5c0.2,7.6-0.3,15.2-1.2,22.8c-0.5,3.8-1.1,7.6-1.9,11.4c-0.8,4.2-1.9,8.2-3.1,12.3c-1.3,4.4-2.7,8.7-4.4,13
				c-1.8,4.5-3.8,9.1-6.1,13.4C137.5,204.9,136.6,205.5,135.6,205.5z"/>
		</g>
		<g>
			<path class="st1" d="M148.1,103.3c-1.2,0-2.3-0.8-2.5-2c-0.8-3.1-1.4-5.1-1.5-5.6c-0.7-2-1.6-3.9-2.9-5.7
				c-1.2-1.7-2.6-3.1-4.3-4.3c-1.7-1.2-3.5-2.1-5.4-2.8c-2.5-0.8-5.1-1.1-7.7-0.9c-0.5,0.1-1,0.1-1.5,0.2c-0.5,0.1-1,0.2-1.5,0.3
				c-0.5,0.2-1,0.3-1.4,0.4c-2.5,0.8-4.8,2-6.9,3.8c-1.1,0.9-2.7,0.8-3.7-0.3c-0.9-1.1-0.8-2.7,0.3-3.7c2.5-2.2,5.4-3.8,8.7-4.8
				c0.6-0.2,1.3-0.3,1.9-0.5c0.6-0.2,1.3-0.3,1.9-0.4c0.7-0.1,1.3-0.2,1.9-0.3c3.3-0.3,6.7,0.2,9.8,1.2c2.5,0.8,4.8,2,6.9,3.6
				c2.1,1.5,4,3.4,5.5,5.5c1.5,2.1,2.8,4.6,3.6,7.1c0.3,0.8,0.8,2.8,1.6,6c0.3,1.4-0.6,2.9-1.9,3.1
				C148.6,103.3,148.3,103.3,148.1,103.3z"/>
		</g>
		<g>
			<path class="st1" d="M88.1,197.3c-0.5,0-1.1-0.2-1.5-0.5c-1.2-0.8-1.4-2.5-0.6-3.6c2.4-3.3,4.5-6.8,6.4-10.3
				c1.9-3.5,3.6-7.1,5.1-10.8s2.7-7.5,3.7-11.4c1-3.9,1.8-8,2.3-12c0.7-5,0.9-10.3,0.9-15.5c-0.1-4.2-0.4-8.5-0.9-12.5
				c-0.5-3.7-1.1-6.6-1.4-8.4c-0.4-1.9-0.8-3-0.8-3c-1-3.2-1.4-6.5-1-9.8c0.3-3.2,1.3-6.3,2.7-9.1c0.7-1.3,2.2-1.8,3.6-1.1
				c1.3,0.7,1.8,2.2,1.1,3.6c-1.2,2.3-1.9,4.7-2.2,7.3c-0.3,2.6,0,5.3,0.8,7.8c0.1,0.1,0.4,1.3,0.8,3.5c0.4,1.9,1,5,1.5,8.9
				c0.6,4.3,0.8,8.8,0.9,13.1c0.1,5.5-0.3,10.9-0.9,16.3c-0.6,4.3-1.4,8.6-2.4,12.6c-1,4.1-2.4,8.1-3.9,12
				c-1.5,3.9-3.3,7.7-5.3,11.4c-2,3.7-4.3,7.3-6.8,10.8C89.8,197,88.9,197.3,88.1,197.3z"/>
		</g>
		<g>
			<path class="st1" d="M122.6,205.8c-0.4,0-0.9-0.2-1.3-0.3c-1.3-0.8-1.7-2.3-0.9-3.6c2.5-4.3,4.7-8.8,6.7-13.3
				c1.8-4.2,3.5-8.6,4.8-13c1.3-4,2.3-8.1,3.2-12.3c0.8-3.7,1.4-7.5,1.9-11.4c0.8-6.8,1.2-13.7,1-20.7c-0.2-5.6-0.6-11.2-1.4-16.6
				c-0.6-4-1.3-7.7-2.1-11.2c-0.7-2.7-1.2-4.3-1.2-4.4c-0.3-1.1-0.9-2.1-1.6-3c-0.8-0.8-1.6-1.5-2.5-2s-2-0.8-3.1-0.9
				c-1.2-0.1-2.3,0-3.4,0.4c-1.1,0.3-2.1,0.9-3,1.6c-0.8,0.8-1.5,1.6-2,2.5c-0.5,1-0.8,2-0.9,3.2c-0.2,1.2,0,2.3,0.3,3.4
				c0.1,0.3,0.5,1.6,1,3.8c0.3,1.4-0.6,2.8-1.9,3.1c-1.4,0.3-2.8-0.6-3.1-1.9c-0.5-2-0.8-3.3-0.8-3.4c-0.6-1.8-0.8-3.6-0.6-5.4
				c0.2-1.8,0.7-3.5,1.5-5.1c0.8-1.6,1.9-3,3.3-4.2c1.4-1.2,3-2.1,4.8-2.6c1.8-0.6,3.6-0.8,5.4-0.6c1.8,0.2,3.5,0.7,5.1,1.5
				s3.1,1.9,4.2,3.3c1.2,1.4,2.1,3,2.6,4.7c0.1,0.2,0.6,1.9,1.3,4.7c0.8,3.6,1.6,7.5,2.2,11.7c0.8,5.7,1.3,11.4,1.4,17.3
				c0.2,7.2-0.2,14.4-1.1,21.4c-0.5,4-1.2,7.9-1.9,11.8c-0.9,4.3-2,8.6-3.4,12.8c-1.4,4.6-3.1,9.1-5,13.5c-2,4.7-4.4,9.4-7,13.9
				C124.3,205.4,123.5,205.8,122.6,205.8z"/>
		</g>
		<g>
			<path class="st1" d="M98.8,201.6c-0.5,0-1-0.2-1.4-0.5c-1.2-0.8-1.5-2.5-0.7-3.6c2.4-3.6,4.6-7.2,6.5-10.9
				c1.9-3.7,3.6-7.6,5.2-11.5s2.7-8,3.8-12.2c0.3-1.4,1.8-2.3,3.2-1.9c1.4,0.3,2.3,1.8,1.9,3.2c-1.1,4.3-2.4,8.6-4,12.7
				c-1.5,4.2-3.4,8.2-5.4,12.1c-2,3.9-4.3,7.7-6.9,11.4C100.5,201.2,99.7,201.6,98.8,201.6z"/>
		</g>
		<g>
			<path class="st1" d="M110.3,204.5c-0.5,0-0.9-0.2-1.4-0.4c-1.2-0.8-1.6-2.4-0.8-3.6c6.9-10.9,12-23,15.2-35.6
				c0.3-1.4,1.8-2.3,3.2-1.9c1.4,0.3,2.3,1.8,1.9,3.2c-3.2,13.2-8.6,25.8-15.8,37.2C112,204.1,111.2,204.5,110.3,204.5z"/>
		</g>
		<g>
			<g>
				<path class="st1" d="M117.1,152.3c-1.7-0.9-3-2.4-3.9-4.2c-0.9-1.9-1.4-4.1-1.4-6.6v-13c0-2.7,0.4-5.1,1.3-7
					c0.8-1.9,2.1-3.5,3.8-4.4c1.6-1,3.6-1.5,5.9-1.5s4.3,0.5,6,1.4c1.7,0.9,3,2.3,3.8,4.1c0.8,1.8,1.3,4,1.3,6.5v6.9
					c0,1.5-1.3,2.8-2.8,2.8h-11.8c-1.5,0-2.8-1.3-2.8-2.8l0,0c0-1.5,1.3-2.8,2.8-2.8h5.3c1.5,0,2.8-1.3,2.8-2.8v-1.3
					c0-1.9-0.4-3.4-1.2-4.5c-0.8-1-1.9-1.6-3.4-1.6s-2.5,0.6-3.3,1.7c-0.8,1.1-1.2,2.7-1.2,4.7v13.6c0,1.8,0.4,3.2,1.3,4.2
					c0.8,1,2,1.5,3.6,1.5c1.4,0,2.5-0.4,3.3-1.1c0.8-0.8,1.2-1.8,1.2-3.2v-0.3h6.5v0.3c0,3.4-0.9,6-2.9,7.9c-1.9,1.9-4.6,2.8-8,2.8
					C120.8,153.8,118.7,153.3,117.1,152.3z"/>
			</g>
		</g>
	</g>
</g>
</svg>
