<?xml version="1.0" encoding="utf-8"?>
<!-- Generator: Adobe Illustrator 25.0.0, SVG Export Plug-In . SVG Version: 6.00 Build 0)  -->
<svg version="1.1"
	 id="svg2" xmlns:cc="http://creativecommons.org/ns#" xmlns:dc="http://purl.org/dc/elements/1.1/" xmlns:rdf="http://www.w3.org/1999/02/22-rdf-syntax-ns#" xmlns:svg="http://www.w3.org/2000/svg"
	 xmlns="http://www.w3.org/2000/svg" xmlns:xlink="http://www.w3.org/1999/xlink" x="0px" y="0px" viewBox="0 0 80.6 78.5"
	 style="enable-background:new 0 0 80.6 78.5;" xml:space="preserve">
<style type="text/css">
	.st0{fill-rule:evenodd;clip-rule:evenodd;fill:#ED1C24;}
</style>
<path id="path14" class="st0" d="M50.7,0.2C60.8-1,72.6,2.6,77.8,12c5.4,10.2,2.5,22.7-3.3,32.1c-6.2,11.2-16.4,19.4-26.8,26.4
	c-6.2,3.9-13,8-20.5,8c-5.9-0.1-9.7-6.6-8-12c1.7-5.7,4.6-11.7,9.9-15c3.3-1.9,8.2-2.6,11.2,0.2c1.5,1.4,1.4,3.7,0.2,5.2
	c-3.7,5.4-9.5,8.8-12.6,14.6c-0.6,1.2-1.1,2.9,0,3.9c1.5,1,3.4,0.3,4.9-0.1c6.8-2.5,12.5-6.9,18.1-11.4c8.5-6.9,16.6-15.6,18.6-26.8
	c0.8-4.8-0.5-11.2-5.5-13.2c-5.7-1.5-11.3,1.4-16.1,4.1c-7.2,4.3-14.4,8.6-21,13.8c-4.7,3.5-9.6,7.6-15.6,8.2
	C5,50.3-1,44.4,0.1,38.1c0.6-4.7,3.3-8.8,6.2-12.4C12.8,17.4,21.7,11.4,31,6.6C37.2,3.6,43.7,0.9,50.7,0.2L50.7,0.2z"/>
</svg>
