<?xml version="1.0" encoding="utf-8"?>
<!-- Generator: Adobe Illustrator 25.0.0, SVG Export Plug-In . SVG Version: 6.00 Build 0)  -->
<svg version="1.1" id="Layer_1" xmlns="http://www.w3.org/2000/svg" xmlns:xlink="http://www.w3.org/1999/xlink" x="0px" y="0px"
	 viewBox="0 0 512 512" style="enable-background:new 0 0 512 512;" xml:space="preserve">
<style type="text/css">
	.st0{fill:#5B6ED8;}
	.st1{fill:#FFFFFF;}
	.st2{fill:none;stroke:#5B6ED8;stroke-width:6.4366;stroke-miterlimit:10;}
	.st3{fill:#FFFFFF;stroke:#5B6ED8;stroke-width:6.4366;stroke-miterlimit:10;}
	.st4{fill:#FFFFFF;stroke:#5B6ED8;stroke-width:6.152;stroke-miterlimit:10;}
</style>
<g>
	<path class="st0" d="M264,84.3L264,84.3l-11.4,0c-2.5,0-4.6,2.1-4.6,4.6v95.5c0,1-0.8,1.8-1.8,1.8h-15.9c-1.5,0-2.3,1.8-1.3,2.9
		l25.7,28.7c0.7,0.8,1.9,0.8,2.6,0l25.7-28.7c1-1.1,0.2-2.9-1.3-2.9h-15.9c-1,0-1.8-0.8-1.8-1.8v-84.1
		c63.7,4.5,113.9,58.8,111.6,124.1c-2.2,63.7-54.5,114.9-118.2,116c-62,1-113.5-45.2-121.2-104.8c-0.4-3-2.9-5.2-5.9-5.2h-4.1
		c-3.6,0-6.3,3.2-5.9,6.7c8.3,67.4,66.1,119.7,135.7,119.4c75.1-0.3,135.6-61,135.6-136.2C391.7,148,335.2,88.7,264,84.3z"/>
</g>
</svg>
