<?xml version="1.0" encoding="utf-8"?>
<!-- Generator: Adobe Illustrator 25.0.0, SVG Export Plug-In . SVG Version: 6.00 Build 0)  -->
<svg version="1.1" id="Layer_1" xmlns="http://www.w3.org/2000/svg" xmlns:xlink="http://www.w3.org/1999/xlink" x="0px" y="0px"
	 viewBox="0 0 246.1 246.1" style="enable-background:new 0 0 246.1 246.1;" xml:space="preserve">
<style type="text/css">
	.st0{fill:#5B6ED8;}
	.st1{fill:#FFFFFF;}
</style>
<path class="st0" d="M175,246.1H71.1C31.9,246.1,0,214.3,0,175V71.1C0,31.9,31.9,0,71.1,0H175c39.3,0,71.1,31.9,71.1,71.1V175
	C246.1,214.3,214.3,246.1,175,246.1z"/>
<g>
	<path class="st1" d="M195.5,105.8H52.3c-2.1,0-3.9-1.3-4.5-3.3c-0.7-2,0.1-4,1.7-5.4l71.6-52.6c1.7-1.2,4-1.2,5.6,0l71.6,52.6
		c1.6,1.2,2.4,3.4,1.7,5.4C199.4,104.4,197.5,105.8,195.5,105.8z M55,104.8L55,104.8L55,104.8z M66.3,96.4h115l-57.5-42.3L66.3,96.4
		z M121.2,52.2L121.2,52.2L121.2,52.2z M126.6,52.2L126.6,52.2L126.6,52.2L126.6,52.2z"/>
</g>
<g>
	<g>
		<path class="st1" d="M83.2,200.9h-4.6c-1.3,0-2.4-1.1-2.4-2.4v-78c0-1.3,1.1-2.4,2.4-2.4h4.6c1.3,0,2.4,1.1,2.4,2.4v78
			C85.7,199.7,84.6,200.9,83.2,200.9z"/>
	</g>
	<g>
		<path class="st1" d="M126.2,200.9h-4.6c-1.3,0-2.4-1.1-2.4-2.4v-78c0-1.3,1.1-2.4,2.4-2.4h4.6c1.3,0,2.4,1.1,2.4,2.4v78
			C128.6,199.7,127.5,200.9,126.2,200.9z"/>
	</g>
	<g>
		<path class="st1" d="M169.2,200.9h-4.6c-1.3,0-2.4-1.1-2.4-2.4v-78c0-1.3,1.1-2.4,2.4-2.4h4.6c1.3,0,2.4,1.1,2.4,2.4v78
			C171.5,199.7,170.5,200.9,169.2,200.9z"/>
	</g>
</g>
</svg>
