<?xml version="1.0" encoding="utf-8"?>
<!-- Generator: Adobe Illustrator 25.0.0, SVG Export Plug-In . SVG Version: 6.00 Build 0)  -->
<svg version="1.1" id="Layer_1" xmlns="http://www.w3.org/2000/svg" xmlns:xlink="http://www.w3.org/1999/xlink" x="0px" y="0px"
	 viewBox="0 0 512 512" style="enable-background:new 0 0 512 512;" xml:space="preserve">
<style type="text/css">
	.st0{fill:#5B6ED8;}
	.st1{fill:#445CC1;}
	.st2{fill:#566AC1;}
	.st3{fill:#3954C4;}
	.st4{fill:#6788EF;}
	.st5{fill:none;stroke:#566AC1;stroke-width:12.1789;stroke-linecap:round;stroke-miterlimit:10;}
</style>
<g>
	<g>
		<path class="st0" d="M423.7,166.9H72.6c-10.9,0-19.7,8.8-19.7,19.7v82.3c0,1.9,1.6,3.5,3.5,3.5h9c1.9,0,3.5-1.6,3.5-3.5v-82.3
			c0-2,1.6-3.7,3.7-3.7h351.1c2,0,3.7,1.6,3.7,3.7V316c0,2-1.6,3.7-3.7,3.7H72.6c-2,0-3.7-1.6-3.7-3.7v-23.7c0-2.1-1.7-3.8-3.8-3.8
			h-8.5c-2.1,0-3.8,1.7-3.8,3.8V316c0,10.9,8.8,19.7,19.7,19.7h351.1c10.9,0,19.7-8.8,19.7-19.7V186.5
			C443.3,175.7,434.5,166.9,423.7,166.9z"/>
	</g>
	<g>
		<path class="st0" d="M401.9,156.1H389c-0.9,0-1.6-0.7-1.6-1.6V77.9c0-0.9,0.7-1.6,1.6-1.6h7.6c3.8,0,6.8,3.1,6.8,6.8v71.4
			C403.4,155.4,402.7,156.1,401.9,156.1z"/>
	</g>
	<g>
		<path class="st0" d="M391.9,260.3h-45.2c-1.9,0-3.5-1.6-3.5-3.5v-11c0-1.9,1.6-3.5,3.5-3.5h45.2c1.9,0,3.5,1.6,3.5,3.5v11
			C395.4,258.7,393.9,260.3,391.9,260.3z"/>
	</g>
	<g>
		<path class="st2" d="M308.6,260.3h-45.2c-1.9,0-3.5-1.6-3.5-3.5v-11c0-1.9,1.6-3.5,3.5-3.5h45.2c1.9,0,3.5,1.6,3.5,3.5v11
			C312.1,258.7,310.6,260.3,308.6,260.3z"/>
	</g>
	<g>
		<path class="st3" d="M225.3,260.3h-45.2c-1.9,0-3.5-1.6-3.5-3.5v-11c0-1.9,1.6-3.5,3.5-3.5h45.2c1.9,0,3.5,1.6,3.5,3.5v11
			C228.8,258.7,227.3,260.3,225.3,260.3z"/>
	</g>
</g>
</svg>
