<?xml version="1.0" encoding="UTF-8" standalone="no"?>
<svg
   xmlns:dc="http://purl.org/dc/elements/1.1/"
   xmlns:cc="http://creativecommons.org/ns#"
   xmlns:rdf="http://www.w3.org/1999/02/22-rdf-syntax-ns#"
   xmlns:svg="http://www.w3.org/2000/svg"
   xmlns="http://www.w3.org/2000/svg"
   viewBox="0 0 100 78.666664"
   height="78.666664"
   width="100"
   xml:space="preserve"
   id="svg2"
   version="1.1"><metadata
     id="metadata8"><rdf:RDF><cc:Work
         rdf:about=""><dc:format>image/svg+xml</dc:format><dc:type
           rdf:resource="http://purl.org/dc/dcmitype/StillImage" /></cc:Work></rdf:RDF></metadata><defs
     id="defs6" /><g
     transform="matrix(1.3333333,0,0,-1.3333333,0,78.666667)"
     id="g10"><g
       transform="scale(0.1)"
       id="g12"><path
         id="path14"
         style="fill:#d3d2d2;fill-opacity:1;fill-rule:evenodd;stroke:none"
         d="m 372.152,513.793 c 69.465,0 126.036,-56.57 126.036,-126.047 0,-69.453 -56.571,-126.027 -126.036,-126.027 -69.468,0 -126.035,56.574 -126.035,126.027 0,69.477 56.567,126.047 126.035,126.047 v 0" /><path
         id="path16"
         style="fill:#ed1c24;fill-opacity:1;fill-rule:evenodd;stroke:none"
         d="m 334.199,441.469 -25.773,26.492 h 75.191 v -75.906 l -26.508,26.492 C 312.719,384.895 218.203,293.23 219.625,261.719 c 0.723,-5.715 4.301,-8.586 7.887,-9.305 15.031,-4.301 35.793,8.602 71.605,30.086 -9.308,-7.875 -51.554,-40.109 -75.91,-43.695 -14.328,-2.141 -23.633,7.886 -22.914,22.914 1.434,20.781 27.93,58.73 56.574,93.101 30.793,37.235 64.446,73.039 77.332,86.649 v 0" /><path
         id="path18"
         style="fill:#176fc1;fill-opacity:1;fill-rule:evenodd;stroke:none"
         d="m 440.188,303.266 h -78.051 l -1.434,80.191 30.074,-26.492 c 45.102,33.648 143.215,123.168 141.774,155.394 -0.723,5.016 -4.285,8.59 -7.86,8.59 -12.187,0.719 -38.679,-5.73 -74.48,-27.207 9.309,7.871 55.133,40.809 79.484,40.809 15.035,0 17.907,-7.149 17.907,-22.91 0,-22.914 -23.633,-56.575 -51.559,-90.95 -31.516,-37.234 -66.602,-77.332 -79.484,-91.656 l 23.629,-25.769" /><path
         id="path20"
         style="fill:#176fc1;fill-opacity:1;fill-rule:nonzero;stroke:none"
         d="m 268.16,148.77 h 6.988 c 4.383,0 7.454,1.07 9.231,3.23 1.777,2.141 2.668,5.879 2.668,11.211 0,5.512 -0.973,9.309 -2.91,11.406 -1.918,2.082 -5.555,3.133 -10.887,3.133 h -5.09 z m 0,41.175 h 5.676 c 4.262,0 7.211,0.93 8.828,2.789 1.613,1.86 2.422,5.27 2.422,10.239 0,4.441 -0.828,7.496 -2.465,9.129 -1.637,1.632 -4.726,2.461 -9.25,2.461 h -5.211 z m -16.496,-54.14 v 91.121 h 27.262 c 7.816,0 13.633,-1.821 17.429,-5.457 3.817,-3.614 5.715,-9.203 5.715,-16.739 0,-6.039 -0.929,-10.703 -2.808,-14.015 -1.879,-3.313 -4.684,-5.313 -8.442,-5.981 4.262,-0.582 7.594,-2.703 9.977,-6.359 2.383,-3.652 3.574,-8.461 3.574,-14.461 0,-9.672 -2.019,-16.762 -6.058,-21.305 -4.04,-4.543 -10.34,-6.804 -18.903,-6.804 z m 64.32,32.008 h 16.985 v -5.856 c 0,-5.594 0.707,-9.41 2.101,-11.43 1.391,-2.043 3.817,-3.05 7.246,-3.05 3.598,0 6.325,0.906 8.204,2.726 1.875,1.797 2.804,4.485 2.804,8.039 0,2.727 -0.644,5.047 -1.957,7.004 -1.293,1.942 -4.121,4.465 -8.461,7.535 l -8.687,6.16 c -7.492,5.211 -12.258,9.493 -14.297,12.883 -2.039,3.395 -3.047,7.653 -3.047,12.785 0,7.657 2.262,13.653 6.805,17.993 4.543,4.343 10.785,6.503 18.761,6.503 8.442,0 14.903,-2.304 19.407,-6.925 4.504,-4.61 6.746,-11.231 6.746,-19.875 0,-0.867 0,-1.535 -0.02,-1.996 -0.019,-0.489 -0.062,-0.891 -0.101,-1.254 h -16.098 v 2.422 c 0,4.929 -0.809,8.461 -2.422,10.582 -1.617,2.125 -4.281,3.191 -7.976,3.191 -2.727,0 -4.868,-0.805 -6.422,-2.402 -1.555,-1.594 -2.344,-3.797 -2.344,-6.645 0,-3.816 3.496,-8.055 10.461,-12.703 0.078,-0.039 0.144,-0.078 0.183,-0.121 l 9.348,-6.34 c 6.664,-4.422 11.188,-8.582 13.555,-12.504 2.359,-3.937 3.555,-8.922 3.555,-15 0,-8.281 -2.368,-14.664 -7.11,-19.168 -4.726,-4.504 -11.492,-6.742 -20.297,-6.742 -9.148,0 -15.972,2.359 -20.437,7.086 -4.485,4.746 -6.727,11.957 -6.727,21.672 0,1.008 0.078,2.703 0.242,5.066 z m 68.098,-32.008 v 91.121 h 17.449 l 23.727,-63.715 -0.465,63.715 h 16.039 v -91.121 h -17.328 l -23.914,63.836 0.469,-63.836 z m 72.238,0 v 91.121 h 16.985 v -75.613 h 30.636 V 135.805 H 456.32" /><path
         id="path22"
         style="fill:#231f20;fill-opacity:1;fill-rule:nonzero;stroke:none"
         d="m 211.285,109.258 c 0,-3.531 -0.363,-7.086 -1.097,-10.6603 -0.817,-3.9571 -1.875,-6.8008 -3.165,-8.5235 -0.687,-0.9062 -2.003,-1.3554 -3.941,-1.3554 -0.473,0 -0.711,0.7734 -0.711,2.3242 0,2.4961 0.324,4.9336 0.969,7.3008 0.558,1.8042 1.14,3.6362 1.746,5.4882 0.129,0.391 0.516,0.902 1.16,1.551 0.52,0.558 0.777,1.203 0.777,1.937 0,0.774 -0.562,1.52 -1.679,2.231 -1.121,0.707 -2.242,1.066 -3.36,1.066 -4.132,0 -7.773,-2.586 -10.918,-7.754 -2.925,-4.781 -4.39,-9.82 -4.39,-15.113 0,0.043 0.066,-0.625 0.195,-2.0039 0.086,-0.8594 0.02,-1.7656 -0.195,-2.7109 0.601,-0.8633 1.57,-2.9102 2.906,-6.1368 1.723,-1.4257 2.844,-2.3046 3.359,-2.6523 1.465,-0.9453 2.926,-1.418 4.395,-1.418 1.719,0 3.84,0.6758 6.359,2.0352 2.52,1.3515 3.821,2.0351 3.91,2.0351 0.473,0 0.708,-0.2148 0.708,-0.6484 0,-1.25 -1.247,-2.7539 -3.743,-4.5195 -2.929,-2.0664 -6.117,-3.1016 -9.562,-3.1016 -4.953,0 -8.719,1.6602 -11.301,4.9727 -2.113,2.6289 -3.168,5.664 -3.168,9.1093 0,0.7305 0.066,1.4219 0.191,2.0664 0,0.2149 -0.062,0.4844 -0.191,0.8086 -0.129,0.3243 -0.191,0.5899 -0.191,0.8047 0,2.6289 0.754,6.0508 2.257,10.2735 1.938,5.3359 4.372,9.2339 7.301,11.6909 0.645,1.508 1.551,2.262 2.711,2.262 1.207,1.594 2.918,2.895 5.137,3.906 2.219,1.012 4.469,1.516 6.75,1.516 4.519,0 6.781,-2.262 6.781,-6.781 z m 28.348,-29.9728 c 0,-0.7735 -0.367,-1.3985 -1.098,-1.8711 -3.703,-2.6289 -5.703,-3.9414 -6.008,-3.9414 -0.601,0 -0.906,0.2148 -0.906,0.6484 0,0.6016 1.102,2.043 3.297,4.3281 2.023,2.1094 3.336,3.336 3.937,3.6797 0.52,-0.8164 0.778,-1.7656 0.778,-2.8437 z m -4.137,8.5273 c 0,-4.0039 -1.742,-7.793 -5.226,-11.3672 -3.235,-3.3594 -6.313,-5.039 -9.239,-5.039 -1.984,0 -3.488,0.6054 -4.523,1.8085 -0.774,0.8633 -1.16,1.8086 -1.16,2.8438 -0.086,2.1094 0.125,3.6172 0.644,4.5195 -0.73,0 -2.156,-1.0742 -4.262,-3.2304 -0.089,1.0781 -0.089,2.414 0,4.0039 0.387,0.6484 2.508,2.7929 6.36,6.4257 3.855,3.6407 6.215,5.7188 7.074,6.2344 1.637,0.043 2.539,-0.2148 2.715,-0.7734 -0.176,-0.3008 -0.52,-0.8828 -1.035,-1.7422 0.086,0.043 0.711,0.2344 1.871,0.582 0.734,0.2578 1.355,0.3867 1.875,0.3867 1.289,0 2.433,-0.4218 3.422,-1.2617 0.992,-0.8398 1.484,-1.9687 1.484,-3.3906 z m -4.777,-3.6172 c 0,1.6367 -0.731,2.457 -2.199,2.457 -1.118,0 -2.075,-0.5507 -2.875,-1.6484 -0.793,-1.0976 -1.215,-1.6484 -1.258,-1.6484 0.261,0 -0.125,-0.0625 -1.16,-0.1914 -0.391,-0.3438 -0.821,-1.0547 -1.293,-2.1328 -0.516,-1.2461 -0.774,-2.3907 -0.774,-3.4258 0,-0.5157 0.18,-0.9883 0.547,-1.418 0.367,-0.4336 0.789,-0.6484 1.262,-0.6484 0.859,0 2.238,0.7773 4.133,2.3281 2.41,1.8945 3.617,4.0039 3.617,6.3281 z m 39.722,-5.9414 c -1.722,-1.7656 -2.648,-2.7148 -2.777,-2.8398 -0.988,-0.8203 -2.047,-1.25 -3.164,-1.293 -1.207,-0.043 -2.551,1.1289 -4.039,3.5195 -1.484,2.3907 -2.461,3.5821 -2.938,3.5821 -0.859,0 -2.605,-1.4375 -5.23,-4.3243 -3.746,-4.1796 -5.836,-6.4609 -6.27,-6.8515 -0.425,-0.3828 -1.418,-0.5781 -2.968,-0.5781 -0.43,0 -0.692,0.3437 -0.774,1.0351 0,0 0,0.6445 0,1.9336 0,0.4336 0.364,1.8086 1.098,4.1367 0.82,2.711 1.355,4.8438 1.613,6.3946 -0.301,0.2578 -0.515,0.3867 -0.644,0.3867 -0.43,0 -1.184,-0.6446 -2.262,-1.9375 -1.508,-1.8086 -2.82,-3.1641 -3.941,-4.0703 v 4.3945 c 0.562,0.9023 2.023,2.6914 4.394,5.3594 2.367,2.6718 3.746,4.3281 4.133,4.9765 2.023,0.7735 3.144,1.1602 3.359,1.1602 0.821,0 1.465,-0.4063 1.938,-1.2266 0.344,-0.6015 0.515,-1.2265 0.515,-1.875 0,-1.4609 -0.582,-3.6562 -1.742,-6.5859 -1.035,-2.7539 -1.484,-4.3945 -1.359,-4.9102 1.808,1.9375 3.617,3.8985 5.426,5.8789 2.07,2.1953 4.007,3.293 5.816,3.293 1.207,0 2.172,-0.6875 2.906,-2.0664 0.516,-1.25 1.032,-2.5 1.551,-3.7461 0.559,-1.3789 1.227,-2.0664 2,-2.0664 0.559,0 1.078,0.2227 1.551,0.6758 0.476,0.4531 0.949,0.9179 1.422,1.3906 0,0.043 -0.02,-0.5391 -0.067,-1.7422 0,-0.8203 0.153,-1.4844 0.453,-2.0039 z m 31.071,0 c -1.723,-1.7656 -2.645,-2.7148 -2.778,-2.8398 -0.988,-0.8203 -2.046,-1.25 -3.164,-1.293 -1.207,-0.043 -2.55,1.1289 -4.039,3.5195 -1.484,2.3907 -2.461,3.5821 -2.937,3.5821 -0.86,0 -2.606,-1.4375 -5.231,-4.3243 -3.746,-4.1796 -5.836,-6.4609 -6.269,-6.8515 -0.426,-0.3828 -1.418,-0.5781 -2.969,-0.5781 -0.43,0 -0.687,0.3437 -0.773,1.0351 0,0 0,0.6445 0,1.9336 0,0.4336 0.363,1.8086 1.097,4.1367 0.821,2.711 1.356,4.8438 1.614,6.3946 -0.301,0.2578 -0.516,0.3867 -0.645,0.3867 -0.43,0 -1.184,-0.6446 -2.262,-1.9375 -1.504,-1.8086 -2.82,-3.1641 -3.941,-4.0703 v 4.3945 c 0.562,0.9023 2.023,2.6914 4.394,5.3594 2.368,2.6718 3.746,4.3281 4.133,4.9765 2.024,0.7735 3.145,1.1602 3.36,1.1602 0.82,0 1.464,-0.4063 1.937,-1.2266 0.344,-0.6015 0.516,-1.2265 0.516,-1.875 0,-1.4609 -0.582,-3.6562 -1.742,-6.5859 -1.036,-2.7539 -1.485,-4.3945 -1.36,-4.9102 1.813,1.9375 3.617,3.8985 5.426,5.8789 2.07,2.1953 4.008,3.293 5.816,3.293 1.207,0 2.172,-0.6875 2.907,-2.0664 0.515,-1.25 1.031,-2.5 1.55,-3.7461 0.559,-1.3789 1.231,-2.0664 2.004,-2.0664 0.555,0 1.074,0.2227 1.551,0.6758 0.469,0.4531 0.945,0.9179 1.418,1.3906 0,0.043 -0.02,-0.5391 -0.066,-1.7422 0,-0.8203 0.152,-1.4844 0.453,-2.0039 z m 18.863,0 c -0.344,-0.6484 -2.797,-2.2617 -7.363,-4.8476 -1.379,-0.9024 -2.992,-1.3516 -4.848,-1.3516 -4.902,0 -7.359,2.9687 -7.359,8.9101 0,3.3594 1.461,6.8086 4.39,10.336 2.715,3.3164 5.125,4.9726 7.235,4.9726 0.949,0 1.832,-0.332 2.648,-1 0.82,-0.6679 1.231,-1.4296 1.231,-2.2929 0,-1.6797 -0.832,-3.4649 -2.489,-5.3633 -1.312,-1.5469 -3.672,-3.7031 -7.074,-6.457 0.129,-2.586 1.539,-3.875 4.223,-3.875 1.539,0 3.429,0.75 5.691,2.2617 1.153,0.7734 2.305,1.5703 3.457,2.3867 0.215,0 0.348,-0.1484 0.391,-0.4492 0.039,-0.2149 0.019,-0.6446 -0.067,-1.293 -0.043,-0.8203 -0.066,-1.4648 -0.066,-1.9375 z m -9.754,11.7578 c -0.773,0 -1.637,-0.6054 -2.582,-1.8125 -0.863,-1.0312 -1.293,-1.8086 -1.293,-2.3242 0,-0.0859 0.043,-0.1289 0.129,-0.1289 0.691,0 1.563,0.5156 2.617,1.5469 1.055,1.0351 1.582,1.8125 1.582,2.3281 0,0.2578 -0.148,0.3906 -0.453,0.3906 z m 31.781,-11.3711 c -0.214,-0.7734 -1.722,-2.1328 -4.519,-4.0703 -3.406,-2.4101 -6.594,-3.6172 -9.563,-3.6172 -5.082,0 -7.515,2.6055 -7.3,7.8203 l -1.676,-1.4882 v 4.2617 c 3.312,2.7109 6.629,5.4297 9.945,8.1406 4.391,3.3555 7.535,5.0391 9.434,5.0391 0.773,0 1.16,-1.0977 1.16,-3.2969 0,-0.3008 -0.563,-0.9024 -1.68,-1.8086 -1.25,-1.0352 -2.476,-1.7852 -3.68,-2.2617 -0.734,-0.8594 -2.691,-2.4102 -5.878,-4.6485 -0.907,-0.7343 -1.36,-2.2187 -1.36,-4.457 0,-1.6797 1.168,-2.5195 3.492,-2.5195 1.938,0 4.11,0.8594 6.52,2.582 2.07,1.4688 3.406,2.7578 4.008,3.875 0.429,-0.0391 0.687,-0.5156 0.773,-1.418 0.129,-1.25 0.238,-1.9609 0.324,-2.1328 z m 18.989,-0.1914 c -1.723,-1.6406 -3.274,-3.082 -4.649,-4.3281 -3.273,-2.9727 -5.402,-4.6953 -6.394,-5.168 -0.301,-0.0429 -0.582,0.043 -0.84,0.2578 -0.434,0.3438 -0.668,0.5157 -0.711,0.5157 -0.344,0.1718 -0.859,0.625 -1.551,1.3554 -0.258,4.1758 0.387,9.0235 1.938,14.5352 l -8.332,-8.7188 v 4.6485 c 1.507,1.5937 2.906,3.1875 4.199,4.7812 3.101,3.8321 5.383,7.4063 6.844,10.7227 -4.047,0 -6.114,0 -6.2,0 -2.711,0.1719 -4.07,0.7109 -4.07,1.6133 0,2.7969 0.516,4.1989 1.551,4.1989 h 10.465 c 0.558,0 1.367,1.035 2.422,3.102 1.054,2.066 1.992,3.101 2.808,3.101 0.477,0 0.887,-0.226 1.227,-0.683 0.347,-0.449 0.519,-0.934 0.519,-1.449 0,-0.52 -0.172,-1.196 -0.519,-2.036 -0.34,-0.839 -0.512,-1.453 -0.512,-1.843 0,-0.168 0.32,-0.45 0.969,-0.84 -0.047,-1.074 -0.09,-2.149 -0.133,-3.2267 -0.086,-1.293 -0.27,-1.9375 -0.551,-1.9375 -0.277,0 -0.609,-0.0352 -1,-0.0977 -0.387,-0.0664 -0.707,-0.0976 -0.969,-0.0976 -0.472,0 -1.398,-2.7774 -2.773,-8.3321 -1.383,-5.5546 -2.07,-9.0429 -2.07,-10.4648 0,-0.9023 0.195,-1.3555 0.582,-1.3555 0.429,0 1.55,0.7774 3.359,2.3242 2.195,1.8946 3.574,3.0157 4.133,3.3594 z m 14.277,28.4848 c 0,-2.457 -0.754,-4.461 -2.262,-6.008 -1.207,-1.2932 -2.433,-1.9377 -3.683,-1.9377 -1.461,0 -2.192,1.0317 -2.192,3.1017 0,1.504 1.117,2.949 3.356,4.324 0.734,1.293 1.961,1.941 3.683,1.941 0.731,0 1.098,-0.476 1.098,-1.421 z m 3.875,-29.2621 c -3.188,-2.7149 -5.512,-4.0703 -6.977,-4.0703 -1.679,0 -2.972,0.7343 -3.875,2.1953 -0.472,0.9492 -0.945,1.875 -1.421,2.7773 -0.258,0.2578 -0.582,0.8867 -0.969,1.875 -0.258,0.7305 -0.711,1.0977 -1.356,1.0977 -0.386,0 -1.078,-0.4922 -2.066,-1.4844 -1.293,-1.2891 -2.262,-2.1523 -2.906,-2.582 v 4.0664 c 4.906,5.4297 7.683,8.1406 8.332,8.1406 1.722,0 2.863,-0.9023 3.422,-2.7109 0.257,-1.6836 0.539,-3.3594 0.839,-5.043 0.387,-1.8086 1.227,-2.7109 2.52,-2.7109 0.559,0 1.269,0.3437 2.133,1.0351 1.461,1.2031 2.238,1.8281 2.324,1.8711 z m 31.91,0.582 c -1.726,-1.7656 -2.648,-2.7148 -2.781,-2.8398 -0.988,-0.8203 -2.043,-1.25 -3.16,-1.293 -1.207,-0.043 -2.555,1.1289 -4.039,3.5195 -1.489,2.3907 -2.465,3.5821 -2.938,3.5821 -0.863,0 -2.609,-1.4375 -5.234,-4.3243 -3.746,-4.1796 -5.836,-6.4609 -6.266,-6.8515 -0.43,-0.3828 -1.422,-0.5781 -2.972,-0.5781 -0.43,0 -0.688,0.3437 -0.774,1.0351 0,0 0,0.6445 0,1.9336 0,0.4336 0.367,1.8086 1.098,4.1367 0.82,2.711 1.359,4.8438 1.617,6.3946 -0.301,0.2578 -0.516,0.3867 -0.649,0.3867 -0.429,0 -1.183,-0.6446 -2.261,-1.9375 -1.504,-1.8086 -2.821,-3.1641 -3.938,-4.0703 v 4.3945 c 0.559,0.9023 2.024,2.6914 4.391,5.3594 2.367,2.6718 3.75,4.3281 4.133,4.9765 2.027,0.7735 3.144,1.1602 3.359,1.1602 0.82,0 1.465,-0.4063 1.941,-1.2266 0.34,-0.6015 0.516,-1.2265 0.516,-1.875 0,-1.4609 -0.582,-3.6562 -1.746,-6.5859 -1.031,-2.7539 -1.484,-4.3945 -1.355,-4.9102 1.808,1.9375 3.617,3.8985 5.425,5.8789 2.071,2.1953 4.004,3.293 5.813,3.293 1.207,0 2.176,-0.6875 2.91,-2.0664 0.516,-1.25 1.031,-2.5 1.551,-3.7461 0.558,-1.3789 1.226,-2.0664 2,-2.0664 0.558,0 1.078,0.2227 1.551,0.6758 0.472,0.4531 0.945,0.9179 1.418,1.3906 0,0.043 -0.02,-0.5391 -0.063,-1.7422 0,-0.8203 0.152,-1.4844 0.453,-2.0039 z m 22.555,0.1953 -8.528,-7.3672 c 1.079,-2.1953 1.637,-3.3359 1.68,-3.4218 0.559,-1.336 0.84,-2.6485 0.84,-3.9414 0,-3.1875 -1.68,-6.1797 -5.039,-8.9766 -3.055,-2.5391 -5.898,-3.8125 -8.527,-3.8125 -2.368,0 -3.918,0.4297 -4.649,1.293 -0.519,0.5586 -0.777,1.5507 -0.777,2.9687 0,2.5859 0.797,5.043 2.39,7.3672 0.993,1.418 2.497,3.0352 4.52,4.8437 1.598,1.418 2.395,2.3243 2.395,2.711 0,0.5156 -0.688,1.6289 -2.071,3.3281 -1.379,1.6992 -2.066,3.5 -2.066,5.3906 0,0.3907 0,0.7774 0,1.168 -0.375,-0.0898 -0.785,-0.2148 -1.203,-0.3906 -0.981,-0.5156 -1.907,-1.293 -2.801,-2.3242 l -0.192,4.0664 c 2.711,1.9843 5.079,4.2226 7.106,6.7187 0.125,0.5156 0.473,1.2305 1.031,2.1328 3.403,3.4024 5.77,5.6172 7.106,6.6524 2.109,1.6797 3.941,2.5195 5.492,2.5195 1.031,0 1.551,-0.8398 1.551,-2.5195 0,-1.5938 -0.649,-2.9492 -1.942,-4.0703 -2.41,-1.9766 -5.64,-4.7774 -9.687,-8.3946 -0.387,-0.3906 -0.582,-1.4648 -0.582,-3.2304 0,-1.2071 0.39,-2.4336 1.164,-3.6797 0.687,-1.0782 1.398,-2.1758 2.129,-3.2969 l 10.66,8.332 z M 422.512,62.9453 c 0,1.461 -0.692,2.8203 -2.067,4.0664 -1.683,-1.8515 -3.382,-3.7226 -5.105,-5.6172 -2.024,-2.3242 -3.035,-4.0039 -3.035,-5.039 0,-1.0313 0.515,-1.5469 1.547,-1.5469 1.941,0 3.867,0.8789 5.785,2.6445 1.914,1.7696 2.875,3.5977 2.875,5.4922 z m 38.679,52.1917 c 0,-0.735 -0.304,-2.711 -0.902,-5.946 -0.648,-3.441 -1.269,-6.285 -1.875,-8.523 -0.43,-1.6797 -1.484,-9.6016 -3.168,-23.7696 0.047,-0.6484 0.207,-1.4961 0.484,-2.5507 0.282,-1.0586 0.422,-1.7149 0.422,-1.9727 0,-0.4727 -0.484,-1.0352 -1.453,-1.6797 -0.969,-0.6484 -1.625,-0.9687 -1.969,-0.9687 -1.378,0 -2.07,0.9257 -2.07,2.7773 0,0.3477 0,0.6875 0,1.0352 -0.031,0.2148 -0.094,0.5273 -0.18,0.9336 -0.097,0.414 -0.14,0.6796 -0.14,0.8086 0,4.8671 0.558,12.0781 1.68,21.6406 -0.043,0.3867 -0.11,0.7304 -0.196,1.0312 -0.215,0.7344 -0.515,1.1836 -0.902,1.3594 -0.043,2.5395 0.406,5.5315 1.355,8.9765 0.864,3.059 1.7,5.191 2.52,6.395 0.301,0.429 0.73,0.722 1.293,0.871 0.558,0.152 1.117,0.289 1.68,0.422 0.296,0.086 0.668,0.281 1.093,0.582 0.305,0.214 0.711,0.32 1.231,0.32 0.73,0 1.097,-0.578 1.097,-1.742 z m 32.235,-36.8831 c -1.727,-1.7656 -2.649,-2.7148 -2.781,-2.8398 -0.989,-0.8203 -2.043,-1.25 -3.161,-1.293 -1.211,-0.043 -2.554,1.1289 -4.039,3.5195 -1.488,2.3907 -2.465,3.5821 -2.937,3.5821 -0.863,0 -2.61,-1.4375 -5.235,-4.3243 -3.746,-4.1796 -5.835,-6.4609 -6.265,-6.8515 -0.43,-0.3828 -1.422,-0.5781 -2.973,-0.5781 -0.43,0 -0.687,0.3437 -0.773,1.0351 0,0 0,0.6445 0,1.9336 0,0.4336 0.367,1.8086 1.097,4.1367 0.821,2.711 1.356,4.8438 1.618,6.3946 -0.301,0.2578 -0.516,0.3867 -0.649,0.3867 -0.43,0 -1.183,-0.6446 -2.262,-1.9375 -1.503,-1.8086 -2.82,-3.1641 -3.941,-4.0703 v 4.3945 c 0.563,0.9023 2.023,2.6914 4.395,5.3594 2.367,2.6718 3.75,4.3281 4.132,4.9765 2.024,0.7735 3.145,1.1602 3.36,1.1602 0.82,0 1.465,-0.4063 1.941,-1.2266 0.34,-0.6015 0.516,-1.2265 0.516,-1.875 0,-1.4609 -0.582,-3.6562 -1.746,-6.5859 -1.035,-2.7539 -1.485,-4.3945 -1.356,-4.9102 1.809,1.9375 3.617,3.8985 5.426,5.8789 2.066,2.1953 4.004,3.293 5.812,3.293 1.208,0 2.176,-0.6875 2.911,-2.0664 0.515,-1.25 1.031,-2.5 1.55,-3.7461 0.555,-1.3789 1.227,-2.0664 2,-2.0664 0.559,0 1.079,0.2227 1.551,0.6758 0.473,0.4531 0.946,0.9179 1.418,1.3906 0,0.043 -0.019,-0.5391 -0.066,-1.7422 0,-0.8203 0.156,-1.4844 0.457,-2.0039 z m 29.906,0.1953 c -2.496,-2.0703 -4.695,-3.1015 -6.59,-3.1015 -2.367,0 -4.199,1.0546 -5.488,3.164 -0.563,0.8164 -1.25,2.5196 -2.07,5.1055 -2.024,-2.457 -4.067,-4.9102 -6.133,-7.3672 -2.887,-3.3984 -5.192,-5.1445 -6.914,-5.2305 -2.153,-0.0859 -3.227,0.711 -3.227,2.3868 0,0.9921 0.496,2.8242 1.485,5.4921 l -2.325,-1.4179 0.258,4.2617 c 1.16,0.7734 3.809,3.1836 7.945,7.2344 4.133,4.0468 6.739,6.4609 7.813,7.2343 0.863,0.6016 1.512,0.9024 1.941,0.9024 0.168,0 0.344,-0.0195 0.516,-0.0625 1.246,3.4882 2.496,6.9762 3.746,10.4652 2.715,6.457 5.145,9.687 7.301,9.687 0.644,-1.121 0.969,-2.023 0.969,-2.711 0,-0.691 -0.325,-2.133 -0.969,-4.332 -0.649,-2.363 -1.25,-4.047 -1.813,-5.035 -0.086,-0.648 -0.257,-1.465 -0.515,-2.453 -0.946,-1.984 -1.875,-3.9415 -2.778,-5.879 -1.379,-3.1875 -2.066,-5.75 -2.066,-7.6875 0,-5.6836 1.68,-8.5274 5.039,-8.5274 0.949,0 2.219,0.6446 3.809,1.9375 z M 509.445,89.75 v 2.2617 c -0.957,-0.7304 -3.297,-3.3828 -7.019,-7.9453 -1.778,-2.1523 -2.758,-4.2187 -2.93,-6.1992 1.035,0.4726 1.961,1.1953 2.777,2.1641 0.821,0.9687 1.637,1.9257 2.457,2.871 1.809,2.0665 3.379,4.3516 4.715,6.8477 z m 28.289,17.184 c 0,-2.457 -0.754,-4.461 -2.261,-6.008 -1.203,-1.2932 -2.43,-1.9377 -3.68,-1.9377 -1.465,0 -2.195,1.0317 -2.195,3.1017 0,1.504 1.121,2.949 3.359,4.324 0.731,1.293 1.957,1.941 3.684,1.941 0.73,0 1.093,-0.476 1.093,-1.421 z m 3.875,-29.2621 c -3.183,-2.7149 -5.507,-4.0703 -6.976,-4.0703 -1.676,0 -2.969,0.7343 -3.871,2.1953 -0.477,0.9492 -0.949,1.875 -1.422,2.7773 -0.262,0.2578 -0.586,0.8867 -0.969,1.875 -0.258,0.7305 -0.715,1.0977 -1.359,1.0977 -0.387,0 -1.074,-0.4922 -2.067,-1.4844 -1.293,-1.2891 -2.257,-2.1523 -2.906,-2.582 v 4.0664 c 4.91,5.4297 7.688,8.1406 8.332,8.1406 1.723,0 2.863,-0.9023 3.426,-2.7109 0.258,-1.6836 0.539,-3.3594 0.836,-5.043 0.39,-1.8086 1.23,-2.7109 2.523,-2.7109 0.559,0 1.27,0.3437 2.129,1.0351 1.465,1.2031 2.238,1.8281 2.324,1.8711 z m 26.551,4.6523 -0.066,-4.5859 c -1.465,-1.336 -2.43,-2.1563 -2.906,-2.457 -0.95,-0.6016 -2.043,-0.9024 -3.293,-0.9024 -1.852,0 -3.165,0.7969 -3.942,2.3867 -0.433,0.8633 -0.773,2.3282 -1.031,4.3946 -2.281,-2.0664 -4.567,-4.1368 -6.848,-6.2032 -2.5,-2.1953 -4.414,-3.2929 -5.75,-3.2929 -0.773,0 -1.445,0.2929 -2,0.875 -0.562,0.5781 -0.84,1.2812 -0.84,2.0976 0,1.293 0.215,2.2383 0.645,2.8438 l -0.645,0.5117 c 0.082,1.2539 0.125,2.2851 0.125,3.1055 0,0.8164 2.825,3.7226 8.473,8.7187 5.871,5.125 9.637,7.6875 11.305,7.6875 1.324,0 1.992,-0.5156 1.992,-1.5508 0,-0.8633 -0.367,-1.5937 -1.098,-2.1992 -1.508,-1.2031 -3.551,-3.1211 -6.136,-5.7461 -2.11,-2.1523 -4.243,-4.332 -6.395,-6.5234 -0.172,-0.1719 -0.648,-1.0352 -1.422,-2.586 0.988,0.3477 3.156,1.9805 6.492,4.9102 3.09,2.6719 5.082,4.0039 5.989,4.0039 1.105,0 1.664,-0.9922 1.664,-2.9687 0,-0.1719 0,-0.4961 0,-0.9688 0,-0.4727 0,-0.8203 0,-1.0352 0,-1.9375 0.797,-2.9062 2.39,-2.9062 0.563,0.1719 1.059,0.3867 1.489,0.6445 1.031,0.5196 1.636,1.0977 1.808,1.7461" /></g></g></svg>