<?xml version="1.0" encoding="utf-8"?>
<!-- Generator: Adobe Illustrator 25.0.0, SVG Export Plug-In . SVG Version: 6.00 Build 0)  -->
<svg version="1.1" id="Layer_1" xmlns="http://www.w3.org/2000/svg" xmlns:xlink="http://www.w3.org/1999/xlink" x="0px" y="0px"
	 viewBox="0 0 512 512" style="enable-background:new 0 0 512 512;" xml:space="preserve">
<style type="text/css">
	.st0{fill:#5B6ED8;}
	.st1{fill:#445CC1;}
	.st2{fill:#566AC1;}
	.st3{fill:#3954C4;}
	.st4{fill:#6788EF;}
	.st5{fill:none;stroke:#566AC1;stroke-width:12.1789;stroke-linecap:round;stroke-miterlimit:10;}
</style>
<g>
	<g>
		<path class="st4" d="M252.9,167.6l-7.9-7.9c-1.2-1.2-1.2-3.2,0-4.4l52.7-52.7c1.2-1.2,3.2-1.2,4.4,0l7.9,7.9
			c1.2,1.2,1.2,3.2,0,4.4l-52.7,52.7C256.1,168.8,254.2,168.8,252.9,167.6z"/>
	</g>
	<g>
		<path class="st4" d="M247.5,167.6l-52.7-52.7c-1.2-1.2-1.2-3.2,0-4.4l7.9-7.9c1.2-1.2,3.2-1.2,4.4,0l52.7,52.7
			c1.2,1.2,1.2,3.2,0,4.4l-7.9,7.9C250.7,168.8,248.7,168.8,247.5,167.6z"/>
	</g>
	<g>
		<path class="st4" d="M274.4,343.9h-44c-1.7,0-3.1-1.4-3.1-3.1v-11.1c0-1.7,1.4-3.1,3.1-3.1h44c1.7,0,3.1,1.4,3.1,3.1v11.1
			C277.6,342.5,276.2,343.9,274.4,343.9z"/>
	</g>
	<path class="st2" d="M369.2,158.1H135.7c-8,0-14.6,6.5-14.6,14.6v189.2c0,8,6.5,14.6,14.6,14.6H162v10.6c0,1.4,1.2,2.6,2.6,2.6
		h12.2c1.4,0,2.6-1.2,2.6-2.6v-10.6h142.7v9.5c0,1.4,1.2,2.6,2.6,2.6h12.2c1.4,0,2.6-1.2,2.6-2.6v-9.5h29.7c8,0,14.6-6.5,14.6-14.6
		V172.7C383.8,164.7,377.2,158.1,369.2,158.1z M366.4,359.1H138.5V175.5h227.8V359.1z"/>
</g>
</svg>
