<?xml version="1.0" encoding="utf-8"?>
<!-- Generator: Adobe Illustrator 25.0.0, SVG Export Plug-In . SVG Version: 6.00 Build 0)  -->
<svg version="1.1" id="Layer_1" xmlns="http://www.w3.org/2000/svg" xmlns:xlink="http://www.w3.org/1999/xlink" x="0px" y="0px"
	 viewBox="0 0 246.1 246.1" style="enable-background:new 0 0 246.1 246.1;" xml:space="preserve">
<style type="text/css">
	.st0{fill:#5B6ED8;}
	.st1{fill:none;stroke:#5CD68E;stroke-width:6.3141;stroke-linecap:round;stroke-linejoin:round;stroke-miterlimit:10;}
	.st2{fill:none;stroke:#5B6ED8;stroke-width:6.3141;stroke-linecap:round;stroke-linejoin:round;stroke-miterlimit:10;}
	.st3{fill:#FFFFFF;}
	.st4{fill:#455CBF;}
</style>
<g>
	<path class="st0" d="M115.5,10.9c-9,0-18,0-27,0c-1.9,0-3.4,1.5-3.4,3.4v0c0,1.9,1.5,3.4,3.4,3.4c9,0,18,0,27,0
		c1.9,0,3.4-1.5,3.4-3.4v0C118.9,12.4,117.4,10.9,115.5,10.9z"/>
	<path class="st0" d="M213.4,140.8c0.4-7.7,0.4-9.4-4.9-9.2c-1.9,0.1-2.2-0.6-2.2-2.3c0.1-7,0.1-14,0-20.9c0-4.9-3.1-8.8-7.6-9.3
		c-1.6-0.2-2.3-0.9-3-2.2c-3.9-7.9-7.9-15.7-11.9-23.5c-2.3-4.4-3.1-4.7-7.6-2.4c-3.7,1.9-7.5,3.8-11.6,5.9v-2.8c0-13,0-26,0-39
		c0-1.9,0-3.8-0.4-5.8c-2.4-12-12.6-19.5-25.7-18.3c-1.2,0.1-2.4,0-3.6-0.1c-2.2-0.2-4.1,1.7-3.7,4c0.3,1.6,1.8,2.7,3.5,2.7
		c2.1,0,4.2,0,6.2,0c10.3,0,16.9,6.5,16.9,16.8c0,14.6,0,29.2,0,43.8c0,1.5-0.4,2.4-1.9,3.1c-2,0.8-4,1.7-5.9,2.8
		c-3.7,2.2-4.8,3.2-4.7,0.3c0.1-8.3,0-16.5,0-24.8c0-8.6-5.1-9.9-16-9.9c-22.8,0.1-39.3-0.4-61.7,0c-10.8,0.2-15.7,1.5-15.7,9.9
		c0,42.3,0,84.6,0,126.8c0,7.1,3.5,10.6,10.6,10.6c24.1,0,48.1,0,72.2,0c7.4,0,10.6-3.3,10.7-10.8c0-2.6,0.1-5.1,0-7.7
		c-0.1-1.6,0.7-1.8,2.6-1.6c2.3,0.3,4.7,0.3,7,0c2.2-0.2,3-0.2,2.9,1.4c-0.1,11.9,0.1,23.8-0.1,35.7c-0.1,7.2-5.4,13.5-12.6,14.5
		c-1.4,0.2-2.8,0.3-4.2,0.3c-28.2,0-56.5,0-84.7,0c-8,0-13.9-4.2-16.2-11.2c-0.6-2-0.8-4.1-0.8-6.2c0-29.4,0-58.9,0-88.3
		c0-29.7,0-59.4,0-89.1c0-8,4.5-14,11.9-16.1c1.6-0.5,3.3-0.5,5-0.5c4,0,8,0,12,0c1.5,0,2.9-0.9,3.3-2.3c0.7-2.3-1-4.5-3.2-4.5
		c-4.3,0-8.6,0-12.9,0c-1.5,0-3.1,0.1-4.6,0.4c-11.1,2.3-18.3,11.4-18.3,23.2c0,59.1,0,118.3,0,177.4c0,13.1,10.6,23.8,23.7,23.8
		c28.1,0,56.3,0,84.4,0c14.3,0,23.8-9.5,23.8-23.8c0-10.8,0.1-21.5,0-32.3c0-2.1,0.4-2.7,2.6-2.7c2.5,0,4.9,0,7.4,0.1
		c1.9,0,3.4-1.5,3.4-3.4v0c0-1.9-1.5-3.4-3.4-3.4c-7.9,0-15.9,0-23.8,0c-11,0-22,0-33,0c-3.4,0-3.9-0.5-3.9-3.9
		c0-14.9,0-29.9,0-44.8c0-1.8,0.3-2.4,2.3-2.4c13.6,0.1,27.1,0.1,40.7,0.1c13.5,0,27,0,40.4,0c2.1,0,2.5,0.6,2.3,2.8
		c-0.3,2.5-0.1,4.9,0,7.4c0.1,1.9-0.4,2.4-2.2,2.4c-10-0.1-20.1-0.1-30.1,0c-7.1,0-12.1,3.8-13.7,10.1c-1.7,7.2,3.4,14.8,10.8,15.6
		c6.1,0.7,12.3,0,18.4,0.3c4.8,0.2,9.6,0.1,14.5-0.1c1.8-0.1,2.4,0.4,2.3,2c-0.1,1.7-0.1,3.4-0.1,5.1c0.2,5.6-0.2,5.6-6.7,5.3
		c-2-0.2-2.1,1.2-2,2l0,2c0,1.6,1.3,2.9,2.9,2.9c0.9,0,1.9,0,2.8,0c6,0,9.7-3.8,9.8-9.8c0-2.2,0.1-4.5,0-6.7
		c-0.2-2.1,0.3-2.9,2.7-2.8c3.9,0.2,4.8-1.4,4.6-5.8C213.3,148,213.2,144.4,213.4,140.8z M176.6,78.1c1.4-0.7,1.9-0.5,2.6,0.9
		c3.2,6.5,6.5,13,10,19.7H137c-0.1-0.8,0.6-0.8,0.9-1C150.8,91.2,163.7,84.7,176.6,78.1z M117.5,176.8c6.3,0,12.7,0.1,19,0
		c1.7,0,2.2,0.5,2.1,2.1c-0.1,2.6,0,5.1,0,7.7c0,3-0.5,3.5-3.5,3.5c-8.3,0-16.5,0-24.8,0c-15.9,0-31.8,0-47.7,0
		c-3.7,0-4.1-0.4-4.1-4.2c0-21,0-42,0-63.1c0-21,0-42,0-63c0-2.3,1.9-4.2,4.2-4.2c24,0,48,0,72,0c3.4,0,3.9,0.5,3.9,3.9
		c0,9.5,0,18.9,0,28.4c0,1.6-0.5,2.3-2.2,3c-4,1.6-7.9,3.5-11.6,5.8c-2.3,1.4-4.4,2.1-7,2.1c-5.9,0-10.7,4.7-10.7,10.6
		c0,19,0,38,0,57C107.1,173.2,110.7,176.7,117.5,176.8z M199.6,111.4c-0.4,1.4-1.4,0.8-2.2,0.8c-13.6,0-27.1,0-40.7,0
		c-13.5,0-26.9,0-40.4,0c-1,0-2.5,0.8-2.5-1.4c-0.1-3.9,0.3-4.9,2.3-5.2c0.7-0.1,1.4-0.1,2.2-0.1c25.6,0,51.2,0,76.7,0
		C199.1,105.5,200.6,107.5,199.6,111.4z M206.8,148.4c0.2,1.7,0,2.4-1.5,2.4c-12.9,0-25.8,0-38.7-0.1c-3.9,0-6.5-2.7-6.5-6.3
		c0-3.5,2.6-6.1,6.6-6.2c6.4-0.1,12.8,0,19.2,0c6.3,0,12.7,0.1,19,0c1.9,0,2.1,0.7,1.9,2.9C206.5,143.5,206.6,146,206.8,148.4z"/>
	<path class="st0" d="M99.1,36.6c-7.9,0-15.7,0-23.6,0c-2.8,0-4.3-1.2-4.4-3.3c0-2.1,1.5-3.4,4.3-3.4c15.8,0,31.6,0,47.4,0
		c2.9,0,4.3,1.1,4.3,3.3c0,2.2-1.4,3.4-4.3,3.4C114.9,36.6,107,36.6,99.1,36.6z"/>
	<path class="st0" d="M110.2,213c0,6.2-4.8,11.2-11,11.2c-6.1,0-11.2-5-11.2-11.1c0-6.1,5.1-11.1,11.2-11.1
		C105.3,201.9,110.2,206.9,110.2,213z M98.9,217.4c2.4,0.1,4.4-1.6,4.5-4c0.2-2.5-1.6-4.6-4.1-4.7c-2.4-0.1-4.5,1.9-4.6,4.3
		C94.7,215.3,96.6,217.3,98.9,217.4z"/>
</g>
</svg>
