<?xml version="1.0" encoding="utf-8"?>
<!-- Generator: Adobe Illustrator 25.0.0, SVG Export Plug-In . SVG Version: 6.00 Build 0)  -->
<svg version="1.1" id="Layer_1" xmlns="http://www.w3.org/2000/svg" xmlns:xlink="http://www.w3.org/1999/xlink" x="0px" y="0px"
	 viewBox="0 0 246.1 246.1" style="enable-background:new 0 0 246.1 246.1;" xml:space="preserve">
<style type="text/css">
	.st0{fill:#5B6ED8;}
	.st1{fill:none;stroke:#5CD68E;stroke-width:6.3141;stroke-linecap:round;stroke-linejoin:round;stroke-miterlimit:10;}
	.st2{fill:none;stroke:#5B6ED8;stroke-width:6.3141;stroke-linecap:round;stroke-linejoin:round;stroke-miterlimit:10;}
	.st3{fill:#FFFFFF;}
	.st4{fill:#455CBF;}
</style>
<g>
	<path class="st0" d="M213.2,51.7h-21.3c-3,0-5.4,2.4-5.4,5.4v0c0,3,2.4,5.4,5.4,5.4h21.3c2.1,0,3.8,1.7,3.8,3.8v78.4H26.5V66.3
		c0-2.1,1.7-3.8,3.9-3.8h56c3,0,5.4-2.4,5.4-5.4v0c0-3-2.4-5.4-5.4-5.4h-56c-8.1,0-14.7,6.6-14.7,14.7v105.8
		c0,8.1,6.6,14.7,14.7,14.7h73.3l-15,25.9H62.9c-2.8,0-5.2,2-5.6,4.7c-0.4,3.3,2.2,6.1,5.4,6.1l125.9,0c2.8,0,5.2-2,5.6-4.7
		c0.4-3.3-2.2-6.1-5.4-6.1h-26.5l-15-25.9h65.9c8.1,0,14.7-6.6,14.7-14.7V66.3C227.9,58.2,221.3,51.7,213.2,51.7z M150.3,212.7
		h-49.6l15-25.9h19.7L150.3,212.7z M217.1,172.1c0,2.1-1.7,3.8-3.8,3.8H30.4c-2.1,0-3.9-1.7-3.9-3.9v-16.6h190.5V172.1z"/>
	<path class="st4" d="M167.3,171.3c2.6,0,4.8-2.1,4.8-4.8c0-2.6-2.1-4.8-4.8-4.8s-4.8,2.1-4.8,4.8
		C162.5,169.2,164.7,171.3,167.3,171.3z"/>
	<path class="st4" d="M183.8,171.3c2.6,0,4.8-2.1,4.8-4.8c0-2.6-2.1-4.8-4.8-4.8c-2.6,0-4.8,2.1-4.8,4.8
		C179,169.2,181.2,171.3,183.8,171.3z"/>
	<path class="st4" d="M201.2,171.3c2.7,0,4.8-2.1,4.8-4.8c0-2.6-2.1-4.8-4.8-4.8c-2.6,0-4.8,2.1-4.8,4.8
		C196.4,169.2,198.6,171.3,201.2,171.3z"/>
	<path class="st0" d="M149.6,120c-0.6,0-1.2-0.1-1.8-0.3c-1.3-0.5-2.4-1.5-3-2.8l-4.1-8.7c-1.1,0.1-2.2,0.1-3.2,0.1
		c-1.4,0-2.7-0.1-4-0.2l-4.3,8.7c-0.9,1.8-2.7,3-4.8,3c-0.8,0-1.6-0.2-2.4-0.6l-15.5-7.6c-1.3-0.6-2.2-1.7-2.7-3.1
		c-0.5-1.4-0.4-2.8,0.3-4.1l4.3-8.7c-1.7-1.8-3.2-3.7-4.5-5.7l-9.4,2.1c-0.4,0.1-0.8,0.1-1.2,0.1c-1,0-2-0.3-2.9-0.8
		c-1.2-0.8-2-1.9-2.3-3.3l-3.8-16.9c-0.3-1.4-0.1-2.8,0.7-4c0.7-1.2,1.9-2,3.3-2.3l9.4-2.1c0.3-2.4,0.9-4.8,1.6-7.1l-7.5-6
		c-1.1-0.9-1.8-2.2-2-3.6c-0.2-1.4,0.2-2.8,1.1-3.9l10.8-13.5c1-1.3,2.5-2,4.2-2c1.2,0,2.4,0.4,3.3,1.2l7.5,6
		c2.1-1.2,4.3-2.3,6.5-3.2v-9.6c0-2.9,2.4-5.3,5.3-5.3H146c2.9,0,5.3,2.4,5.3,5.3v9.7c2.5,0.9,4.9,2.1,7.2,3.6l7.7-5.9
		c0.9-0.7,2.1-1.1,3.2-1.1c1.7,0,3.2,0.8,4.2,2.1l10.5,13.7c0.9,1.1,1.2,2.5,1.1,3.9c-0.2,1.4-0.9,2.7-2,3.5l-7.6,5.9
		c0.7,2.3,1.2,4.7,1.5,7.1l9.4,2.3c2.9,0.7,4.6,3.6,3.9,6.4L186.4,89c-0.3,1.4-1.2,2.5-2.4,3.3c-0.8,0.5-1.8,0.8-2.8,0.8
		c-0.4,0-0.9-0.1-1.3-0.2l-9.4-2.3c-1.4,2-2.9,3.9-4.6,5.6l4.1,8.8c0.6,1.3,0.7,2.7,0.2,4.1c-0.5,1.3-1.5,2.4-2.7,3l-15.7,7.3
		C151.1,119.8,150.4,120,149.6,120z M145,98c0.8,0,1.5,0.4,1.8,1.2l4.7,10.1l8.4-3.9l-4.7-10.1c-0.4-0.9-0.1-1.9,0.6-2.5
		c1.4-1,2.7-2.2,3.9-3.5c1-1.1,2-2.2,2.8-3.5c1-1.4,1.9-2.9,2.6-4.5c0.3-0.7,1.1-1.2,1.8-1.2c0.2,0,0.3,0,0.5,0.1l10.8,2.6l2.2-9
		l-10.8-2.6c-0.9-0.2-1.6-1.1-1.5-2.1c0-0.3,0-0.7,0-1c0-1.4-0.1-2.8-0.3-4.2c-0.2-1.5-0.5-2.9-0.9-4.4c-0.5-1.6-1.1-3.3-1.9-4.8
		c-0.4-0.9-0.2-1.9,0.6-2.5l8.8-6.8l-5.6-7.3l-8.8,6.8c-0.4,0.3-0.8,0.4-1.2,0.4c-0.5,0-0.9-0.2-1.3-0.5c-1.3-1.1-2.7-2.2-4.2-3.1
		c-1.5-0.9-3-1.6-4.6-2.3c-1.6-0.6-3.3-1.1-5-1.5c-0.9-0.2-1.6-1-1.6-2V25.1h-9.2v11.1c0,1-0.7,1.8-1.6,2c-1.7,0.4-3.4,0.8-5,1.5
		c-1.4,0.5-2.7,1.2-4,1.9c0,0-0.1,0-0.1,0c-1.5,0.9-2.9,1.8-4.2,2.9c-0.4,0.3-0.8,0.5-1.3,0.5c-0.4,0-0.9-0.1-1.3-0.4l-8.7-7
		l-5.8,7.2l8.7,7c0.7,0.6,1,1.6,0.5,2.5c-0.8,1.5-1.4,3.2-2,4.8c-0.4,1.4-0.8,2.9-1,4.4c-0.2,1.6-0.4,3.2-0.4,4.8c0,0.1,0,0.3,0,0.4
		c0,1-0.6,1.8-1.6,2l-10.9,2.4l2,9l10.9-2.4c0.1,0,0.3,0,0.4,0c0.8,0,1.5,0.5,1.8,1.2c0.7,1.6,1.6,3.1,2.5,4.6
		c0.8,1.2,1.8,2.4,2.8,3.5c1.2,1.3,2.5,2.5,3.8,3.5c0.8,0.6,1,1.6,0.6,2.5l-4.9,10l8.3,4.1l4.9-10c0.3-0.7,1.1-1.1,1.8-1.1
		c0.2,0,0.3,0,0.5,0.1c1.7,0.4,3.4,0.7,5.1,0.9c0.8,0.1,1.7,0.1,2.5,0.1c0.6,0,1.3,0,2-0.1c1.7-0.1,3.5-0.4,5.1-0.8
		C144.6,98.1,144.8,98,145,98z"/>
	<g>
		<path class="st4" d="M140.1,95.2c-0.3-0.2-0.6-0.4-0.8-0.7c-5.8-6.9-11.6-13.7-17.7-20.3c-0.4-0.4-0.5-0.8-0.5-1.3
			c0-1.3,0-2.7,0-4c0-1,0.4-1.5,1.5-1.5c2,0,4.1,0,6.1-0.1c2.3-0.2,4.6-0.7,6.5-2.2c1.2-0.9,2-2,2.5-3.5c0-0.1,0-0.2,0.1-0.3
			c-0.2,0-0.4,0-0.6,0c-4.8,0-9.6,0-14.4,0c-1.2,0-1.6-0.3-1.6-1.6c0-1,0-2,0-3c0-1.1,0.4-1.4,1.4-1.4c4.7,0,9.3,0,14,0
			c0.2,0,0.4,0,0.7,0c-0.6-1.2-1.4-2-2.5-2.6c-1.8-1-3.8-1.4-5.8-1.5c-2.1-0.1-4.2,0-6.2-0.1c-1.2,0-1.6-0.4-1.6-1.6
			c0-1.4,0-2.8,0-4.1c0-1,0.4-1.4,1.4-1.4c9.9,0,19.8,0,29.7,0c1,0,1.4,0.4,1.4,1.4c0,1.1,0,2.2,0,3.3c0,1-0.4,1.4-1.4,1.4
			c-2.5,0-5.1,0-7.6,0c-0.2,0-0.4,0-0.6,0c0.4,0.7,0.8,1.3,1.1,1.9c0.4,0.9,0.7,1.9,1,2.8c0.1,0.3,0.2,0.5,0.6,0.5
			c1.8,0,3.6,0,5.4,0c1,0,1.4,0.4,1.4,1.4c0,1.1,0,2.2,0,3.3c0,0.9-0.4,1.3-1.3,1.3c-1.8,0-3.6,0-5.4,0c-0.4,0-0.5,0.1-0.6,0.5
			c-0.6,3.2-2.1,5.9-4.5,8c-2.2,1.9-4.8,3-7.6,3.6c-0.8,0.2-1.6,0.3-2.4,0.4c0.1,0.2,0.3,0.3,0.4,0.5c5.6,6.1,10.9,12.5,16.1,18.8
			c0.6,0.8,0.5,1.4-0.4,2C145.3,95.2,142.7,95.2,140.1,95.2z"/>
	</g>
</g>
</svg>
