<?xml version="1.0" encoding="utf-8"?>
<!-- Generator: Adobe Illustrator 25.0.0, SVG Export Plug-In . SVG Version: 6.00 Build 0)  -->
<svg version="1.1" id="Layer_1" xmlns="http://www.w3.org/2000/svg" xmlns:xlink="http://www.w3.org/1999/xlink" x="0px" y="0px"
	 viewBox="0 0 512 512" style="enable-background:new 0 0 512 512;" xml:space="preserve">
<style type="text/css">
	.st0{fill:#445CC1;}
	.st1{fill:#5B6ED8;}
	.st2{fill:#455CBF;}
	.st3{fill:#4A60BC;}
	.st4{fill:#495EB2;}
	.st5{fill:#465BB2;}
</style>
<g>
	<g>
		<rect x="122.2" y="181.5" class="st5" width="276" height="15"/>
	</g>
	<g>
		<path class="st5" d="M205.9,300.6h-20.6c-1,0-1.8-0.8-1.8-1.8V289c0-1,0.8-1.8,1.8-1.8h20.6c1,0,1.8,0.8,1.8,1.8v9.7
			C207.7,299.7,206.9,300.6,205.9,300.6z"/>
	</g>
	<g>
		<path class="st5" d="M242.9,300.6h-20.6c-1,0-1.8-0.8-1.8-1.8V289c0-1,0.8-1.8,1.8-1.8h20.6c1,0,1.8,0.8,1.8,1.8v9.7
			C244.8,299.7,243.9,300.6,242.9,300.6z"/>
	</g>
	<g>
		<path class="st1" d="M366.6,313.5c-2.7,1.2-7.9,2.2-13.7,2.2c-15.9,0-26.1-9.7-26.1-25.2c0-14.4,9.9-26.2,28.2-26.2
			c4,0,8.5,0.7,11.7,1.9l-2.4,11.4c-1.8-0.8-4.5-1.5-8.6-1.5c-8.1,0-13.3,5.7-13.2,13.8c0,9.1,6.1,13.8,13.5,13.8
			c3.6,0,6.5-0.6,8.8-1.5L366.6,313.5z"/>
	</g>
	<path class="st1" d="M383.4,141H128.6c-10.3,0-18.6,8.3-18.6,18.6v48.7c0,2.2,1.8,3.9,3.9,3.9h7.3c2.2,0,3.9-1.8,3.9-3.9v-48.7
		c0-1.9,1.5-3.4,3.4-3.4h254.8c1.9,0,3.4,1.5,3.4,3.4v168.3c0,1.9-1.5,3.4-3.4,3.4H128.6c-1.9,0-3.4-1.5-3.4-3.4v-91.3
		c0-4.1-3.4-7.5-7.5-7.5h-0.2c-4.1,0-7.5,3.4-7.5,7.5v91.3c0,10.3,8.3,18.6,18.6,18.6h254.8c10.3,0,18.6-8.3,18.6-18.6V159.6
		C402,149.3,393.7,141,383.4,141z"/>
</g>
</svg>
