<?xml version="1.0" encoding="utf-8"?>
<!-- Generator: Adobe Illustrator 25.0.0, SVG Export Plug-In . SVG Version: 6.00 Build 0)  -->
<svg version="1.1" id="Layer_1" xmlns="http://www.w3.org/2000/svg" xmlns:xlink="http://www.w3.org/1999/xlink" x="0px" y="0px"
	 viewBox="0 0 512 512" style="enable-background:new 0 0 512 512;" xml:space="preserve">
<style type="text/css">
	.st0{fill:#5B6ED8;}
	.st1{fill:#445CC1;}
	.st2{fill:#566AC1;}
	.st3{fill:#3954C4;}
	.st4{fill:#6788EF;}
	.st5{fill:none;stroke:#566AC1;stroke-width:12.1789;stroke-linecap:round;stroke-miterlimit:10;}
</style>
<g>
	<g>
		<path class="st2" d="M442.6,195.8h-85.6c-2.9,0-5.2,2.3-5.2,5.2v9.4c0,2.9,2.3,5.2,5.2,5.2h79.4v80.6h-79.4
			c-2.9,0-5.2,2.3-5.2,5.2v9.4c0,2.9,2.3,5.2,5.2,5.2h85.6c7.6,0,13.8-6.2,13.8-13.8v-92.8C456.4,202,450.2,195.8,442.6,195.8z"/>
	</g>
	<g>
		<rect x="147.7" y="170.8" class="st4" width="19.9" height="169.2"/>
	</g>
	<g>
		<path class="st4" d="M400.4,246.5h-5.9c-2.1,0-3.7-1.7-3.7-3.7v-12.4c0-2.1,1.7-3.7,3.7-3.7h5.9c2.1,0,3.7,1.7,3.7,3.7v12.4
			C404.1,244.8,402.5,246.5,400.4,246.5z"/>
	</g>
	<g>
		<path class="st4" d="M400.4,283.1h-5.9c-2.1,0-3.7-1.7-3.7-3.7V267c0-2.1,1.7-3.7,3.7-3.7h5.9c2.1,0,3.7,1.7,3.7,3.7v12.4
			C404.1,281.4,402.5,283.1,400.4,283.1z"/>
	</g>
	<path class="st2" d="M346.5,159.4v32.2c0,2-1.6,3.7-3.7,3.7h-12.6c-2,0-3.7-1.6-3.7-3.7v-12.3H269c-4.2,0-6.3-5.1-3.3-8.1
		l11.8-11.8H346.5z"/>
	<path class="st2" d="M330.3,315.6h12.6c2,0,3.7,1.6,3.7,3.7v33.3H121.9c-36.6,0-66.3-29.7-66.3-66.3v-60.6
		c0-36.6,29.7-66.3,66.3-66.3h119.9c4.2,0,6.3,5.1,3.3,8c-4,4-7.9,7.9-11.8,11.8H126.4c-28.1,0-50.9,22.8-50.9,50.9v51.7
		c0,28.1,22.8,50.9,50.9,50.9h200.2v-13.4C326.6,317.3,328.3,315.6,330.3,315.6z"/>
</g>
</svg>
