<?xml version="1.0" encoding="UTF-8" standalone="no"?>
<svg
   xmlns:dc="http://purl.org/dc/elements/1.1/"
   xmlns:cc="http://creativecommons.org/ns#"
   xmlns:rdf="http://www.w3.org/1999/02/22-rdf-syntax-ns#"
   xmlns:svg="http://www.w3.org/2000/svg"
   xmlns="http://www.w3.org/2000/svg"
   viewBox="0 0 100 78.666664"
   height="78.666664"
   width="100"
   xml:space="preserve"
   id="svg2"
   version="1.1"><metadata
     id="metadata8"><rdf:RDF><cc:Work
         rdf:about=""><dc:format>image/svg+xml</dc:format><dc:type
           rdf:resource="http://purl.org/dc/dcmitype/StillImage" /></cc:Work></rdf:RDF></metadata><defs
     id="defs6" /><g
     transform="matrix(1.3333333,0,0,-1.3333333,0,78.666667)"
     id="g10"><g
       transform="scale(0.1)"
       id="g12"><path
         id="path14"
         style="fill:#f03f24;fill-opacity:1;fill-rule:evenodd;stroke:none"
         d="M 131.086,220.785 C 113.57,208.816 92.0273,207.18 91.4883,238.816 c -0.2031,12.18 1.7617,22.2 10.1447,26.551 7.754,4.024 22.726,1.996 29.519,-1.801 z m -63.7149,-2.769 c 2.0195,-5.004 2.9023,-6.739 6.2422,-10.407 14.1914,-15.566 42.9067,-17.621 58.7067,-4.468 0.149,-0.176 0.278,-0.274 0.325,-0.61 0.043,-0.336 0.242,-0.472 0.3,-0.617 1.211,-3.078 0.364,-2.957 1.957,-4.629 2.684,-2.82 20.961,-1.59 22.27,-0.074 1.851,4.723 1.738,117.891 0.035,122.406 -3.945,2.133 -21.387,2.375 -25.375,-0.246 -1.754,-6.285 -0.512,-28.695 -0.742,-36.949 -3.887,-0.16 -43.7775,14.914 -61.0705,-14.559 -10.0703,-17.16 -7.9453,-32.781 -2.6484,-49.847" /><path
         id="path16"
         style="fill:#f03f24;fill-opacity:1;fill-rule:evenodd;stroke:none"
         d="m 319.68,194.715 h 22.043 c 6.078,0 2.453,19.894 2.453,29.137 0,10.015 -0.395,20.902 0.125,30.804 2.035,4.86 32.304,24.875 37.804,-0.847 1.508,-7.059 0.844,-35.336 0.821,-45.774 -0.02,-7.39 -1.078,-9.121 2.812,-13.32 h 21.746 c 4.336,4.867 2.766,10.051 2.766,18.316 0,17.938 2.191,46.469 -6.312,58.5 -9.758,13.805 -30.036,17.367 -46.497,10.309 -2.625,-1.125 -4.945,-2.469 -6.871,-4 -2.64,-2.102 -3.453,-3.668 -6.375,-3.844 -0.023,8.059 0.981,31.043 -0.863,36.758 -4.555,1.445 -19.019,1.711 -24.332,0.301 -3.98,-5.989 -1.844,-19.867 -1.844,-28.09 V 223.02 c 0,-8.653 -1.976,-23.309 2.524,-28.305" /><path
         id="path18"
         style="fill:#f03f24;fill-opacity:1;fill-rule:evenodd;stroke:none"
         d="m 334.621,364.563 c -34.308,-9.977 -68.582,-21.52 -101.754,-34.79 -10.246,-4.093 -22.777,-10.183 -31.972,-13.234 6.996,1.414 15.601,5.402 23.238,7.832 81.066,25.797 156.64,44.582 242.023,49.133 54.129,2.887 93.149,-3.422 144.145,-17.992 7.933,-2.262 15.73,-7.074 23.195,-9.477 2.895,2.36 12.156,12.992 13.922,16.016 -57.137,56.078 -249.422,20.933 -312.797,2.512" /><path
         id="path20"
         style="fill:#f03f24;fill-opacity:1;fill-rule:evenodd;stroke:none"
         d="m 220.699,272.82 c -4.625,-7.183 -4.301,-20.593 5.781,-28.898 17.118,-14.109 62.958,-12.149 52.028,-26.344 -4.797,-6.219 -25.356,-6.324 -32.121,-1.211 -4.348,3.289 -4.61,6.242 -13.285,6.336 -6.684,0.074 -14.414,1.914 -14.914,-4.699 -2.227,-29.313 71.785,-29.035 85.125,-9.457 6.566,9.633 3.792,23.851 -4.106,29.855 -7.059,5.368 -17.734,9.391 -28.426,11.504 -7.484,1.481 -28.863,4.239 -25.215,13.856 2.981,7.847 23.68,7.523 30.715,2.476 5.223,-3.742 3.848,-6.207 13.34,-6.371 6.125,-0.109 14.176,-1.648 14.766,4.852 2.519,27.945 -69.379,30.34 -83.688,8.101" /><path
         id="path22"
         style="fill:#f03f24;fill-opacity:1;fill-rule:evenodd;stroke:none"
         d="m 517.535,194.715 h 19.774 c 0.171,0.152 0.453,0.582 0.546,0.422 0.086,-0.164 0.415,0.32 0.536,0.41 11.386,8.219 12.441,14.211 20.527,24.621 l 34.887,50.051 c 1.418,2.242 2.086,2.969 3.879,5.261 1.441,1.84 2.601,4.125 4.007,5.997 l 30.399,45.343 c 2.387,3.637 4.887,7.418 7.406,10.918 l 11.313,16.985 c 2.445,3.925 9.562,12.836 11.39,17.031 l -45.648,-51.031 c -1.715,-1.965 -2.313,-2.266 -3.996,-4.336 -3.434,-4.227 -8.332,-8.481 -11.817,-13.153 l -37.929,-43.671 c -2.571,-3.469 -4.426,-4.961 -7.625,-9.028 -1.422,-1.805 -2.465,-2.496 -3.957,-4.344 l -10.395,-12.218 c -1.336,-1.203 0.16,-0.192 -1.703,-1.262 -0.203,13.352 -0.106,26.906 -0.035,40.273 0.043,7.75 1,11.469 -7.946,11.524 -6.05,0.027 -13.582,0.176 -18.496,-1.18 -1.613,-9.465 -0.55,-54.617 -0.578,-70.297 -0.023,-14.777 -0.992,-14.824 5.461,-18.316" /><path
         id="path24"
         style="fill:#f03f24;fill-opacity:1;fill-rule:evenodd;stroke:none"
         d="m 439.094,281.609 c -4.239,-1.265 -9.41,0.805 -10.832,-3.964 -0.832,-2.79 -0.184,-11.485 0.359,-14.032 3.555,-1.715 5.567,-1.211 10.449,-1.23 0.493,-30.617 -6.078,-64.203 30.383,-67.125 9.317,-0.75 23.399,-0.047 30.168,3.371 l 0.406,14.734 c -20.675,7.594 -36.761,-19.586 -33.449,48.43 7.961,2.426 19.953,-2.105 26.61,1.687 1.847,3.954 1.3,13.282 -0.313,16.93 -6.016,0.36 -22.437,0.078 -26.332,1.223 -0.203,7.555 0.977,25.117 -0.863,30.703 -2.008,0.586 -24.473,3.621 -26.309,-1.969 -0.773,-2.355 -0.289,-24.469 -0.277,-28.758" /><path
         id="path26"
         style="fill:#f03f24;fill-opacity:1;fill-rule:evenodd;stroke:none"
         d="m 181.563,194.715 h 21.402 c 4.73,4.82 3.055,11.191 3.055,19.148 0,12.992 0.906,60.707 -0.899,66.934 -4.668,1.371 -21.027,1.422 -25.594,-0.086 -1.886,-6.75 -0.839,-61.551 -0.941,-76.856 -0.039,-5.593 -0.168,-6.585 2.977,-9.14" /><path
         id="path28"
         style="fill:#f03f24;fill-opacity:1;fill-rule:evenodd;stroke:none"
         d="m 667.594,347.02 c -2.707,3.199 -6.563,7.8 -11.149,9.332 -2.078,-4.852 -8.34,-12.528 -11.691,-17.61 0.984,-1.371 9.457,-9.472 12.809,-14.23 3.574,-5.078 7.003,-10.942 9.453,-18.012 9.972,-28.766 -7.297,-59.887 -23.852,-80.648 -4.832,-6.063 -21.84,-24.094 -26.828,-27.536 6.508,3.832 28.453,21.27 33.125,26.219 35.941,38.043 56.18,77.477 18.133,122.485" /><path
         id="path30"
         style="fill:#f03f24;fill-opacity:1;fill-rule:evenodd;stroke:none"
         d="m 178.91,287.945 c 5.742,-1.851 21.07,-1.336 27.047,-0.207 0.488,2.528 0.922,13.961 0.363,16.825 -0.972,5.015 -8.711,3.378 -14.058,3.378 -5.254,0 -12.821,1.625 -13.762,-3.472 -0.539,-2.922 -0.117,-14.012 0.41,-16.524" /></g></g></svg>