<?xml version="1.0" encoding="utf-8"?>
<!-- Generator: Adobe Illustrator 25.0.0, SVG Export Plug-In . SVG Version: 6.00 Build 0)  -->
<svg version="1.1" id="Layer_1" xmlns="http://www.w3.org/2000/svg" xmlns:xlink="http://www.w3.org/1999/xlink" x="0px" y="0px"
	 viewBox="0 0 512 512" style="enable-background:new 0 0 512 512;" xml:space="preserve">
<style type="text/css">
	.st0{fill:#445CC1;}
	.st1{fill:#5B6ED8;}
	.st2{fill:#455CBF;}
	.st3{fill:#4A60BC;}
	.st4{fill:#495EB2;}
	.st5{fill:#465BB2;}
</style>
<g>
	<path class="st2" d="M330.1,194.8c8-8,8-21,0-29c-8-8-21-8-29,0c-6.7,6.7-7.8,16.8-3.3,24.6l-20.6,20.6l7.7,7.7l20.6-20.6
		C313.3,202.6,323.5,201.5,330.1,194.8z M308,187.9c-4.2-4.2-4.2-11,0-15.2c4.2-4.2,11-4.2,15.2,0c4.2,4.2,4.2,11,0,15.2
		C319,192.1,312.2,192.1,308,187.9z"/>
	<path class="st1" d="M374.6,308.3l-187-187c-3.2-3.2-8.3-3.2-11.5,0c-8.2,8.2-15.1,17.1-20.8,26.6c-1.8,3-0.3,6.9,3,7.9l5.5,1.7
		c2.3,0.7,4.9-0.2,6.1-2.3c3.5-5.7,7.6-11.2,12.2-16.4l175.1,175.1c-48.7,42.7-123.1,40.9-169.5-5.6
		c-34.4-34.4-44.3-84.1-29.8-127.3c1.5-4.4-0.9-9.1-5.3-10.4c-4.2-1.3-8.8,1-10.2,5.2c-14.9,44.4-7,94.9,23.7,132.9
		c0,0.3-0.1,0.6-0.1,1l0.4,37.2c0,3.6,3,6.4,6.5,6.4c0,0,0,0,0.1,0c3.6,0,6.5-3,6.4-6.6l-0.3-23.9c54.9,51.7,141.7,50.7,195.4-3
		C377.8,316.7,377.8,311.5,374.6,308.3z"/>
	<g>
		<path class="st3" d="M195.2,372.3H151c-3.9,0-7.1-3.2-7.1-7.1s3.2-7.1,7.1-7.1h44.1c3.9,0,7.1,3.2,7.1,7.1
			S199.1,372.3,195.2,372.3z"/>
	</g>
</g>
</svg>
