<?xml version="1.0" encoding="utf-8"?>
<!-- Generator: Adobe Illustrator 25.0.0, SVG Export Plug-In . SVG Version: 6.00 Build 0)  -->
<svg version="1.1" id="Layer_1" xmlns="http://www.w3.org/2000/svg" xmlns:xlink="http://www.w3.org/1999/xlink" x="0px" y="0px"
	 viewBox="0 0 512 512" style="enable-background:new 0 0 512 512;" xml:space="preserve">
<style type="text/css">
	.st0{fill:#445CC1;}
	.st1{fill:#5B6ED8;}
	.st2{fill:#455CBF;}
	.st3{fill:#4A60BC;}
	.st4{fill:#495EB2;}
	.st5{fill:#465BB2;}
</style>
<g>
	<g>
		<path class="st4" d="M306.2,382.2H202.7c-4.4,0-8-3.6-8-8s3.6-8,8-8h103.5c4.4,0,8,3.6,8,8S310.6,382.2,306.2,382.2z"/>
	</g>
	<path class="st1" d="M333.3,135c-21.1-20.8-49.1-32.1-78.8-31.7c-49.1,0.7-90.7,34-104,79.1c-0.9,3,1.4,6,4.5,6h6.9
		c2,0,3.8-1.3,4.5-3.3c11.9-37.6,47-65.3,88.4-65.9c26.8-0.4,51.9,10.3,70.3,30c14.7,15.7,23.5,36.2,24.9,57.7
		c2.1,31.4-11.2,61-35.7,80.3c-5.6,4.4-8.8,11-8.8,18.1v25.1c0,3.9-3.2,7.1-7.1,7.1H264c0-0.1,0-0.1,0-0.2v-90.6
		c0-4.4-3.4-8.2-7.7-8.3c-4.5-0.1-8.2,3.5-8.2,8v90.9c0,0.1,0,0.1,0,0.2h-34.3c-3.9,0-7.1-3.2-7.1-7.1v-25.1
		c0-7.1-3.2-13.7-8.9-18.2c-22.8-18-35.8-44.9-35.8-73.8c0-0.4,0-0.8,0-1.2c0.1-4.5-3.5-8.1-8-8.1h0c-4.4,0-7.9,3.5-8,7.9
		c0,0.5,0,0.9,0,1.4c0,33.9,15.3,65.3,41.9,86.4c1.8,1.4,2.8,3.4,2.8,5.6v25.1c0,12.7,10.3,23.1,23.1,23.1h84.6
		c12.7,0,23.1-10.3,23.1-23.1v-25.1c0-2.2,1-4.2,2.7-5.6c26.7-21,42-52.5,42-86.4C366,183.7,354.4,155.9,333.3,135z"/>
</g>
</svg>
