<?xml version="1.0" encoding="utf-8"?>
<!-- Generator: Adobe Illustrator 25.0.0, SVG Export Plug-In . SVG Version: 6.00 Build 0)  -->
<svg version="1.1" id="Layer_1" xmlns="http://www.w3.org/2000/svg" xmlns:xlink="http://www.w3.org/1999/xlink" x="0px" y="0px"
	 viewBox="0 0 512 512" style="enable-background:new 0 0 512 512;" xml:space="preserve">
<style type="text/css">
	.st0{fill:#5B6ED8;}
	.st1{fill:#445CC1;}
	.st2{fill:#566AC1;}
	.st3{fill:#3954C4;}
	.st4{fill:#6788EF;}
	.st5{fill:none;stroke:#566AC1;stroke-width:12.1789;stroke-linecap:round;stroke-miterlimit:10;}
</style>
<g>
	<g>
		
			<rect x="157.6" y="246" transform="matrix(0.9999 -1.098634e-02 1.098634e-02 0.9999 -2.7737 3.1508)" class="st4" width="255.5" height="16"/>
	</g>
	<g>
		<path class="st2" d="M421.2,371.6H148.2c-5.1,0-9.3-4.2-9.3-9.3v-79c0-8.1,2.2-16,6.4-22.9L208.6,156c1.7-2.8,4.7-4.5,8-4.5h136.3
			c3.2,0,6.3,1.7,8,4.5l63.3,104.4c4.2,6.9,6.4,14.8,6.4,22.9v79C430.5,367.4,426.3,371.6,421.2,371.6z M154.9,355.6h259.6v-72.3
			c0-5.2-1.4-10.2-4.1-14.6l-61.3-101.2H220.3L159,268.6c-2.7,4.4-4.1,9.5-4.1,14.6V355.6z"/>
	</g>
	<g>
		<path class="st2" d="M419.8,397.7h-37.4c-1.5,0-2.7-1.2-2.7-2.7v-10.5c0-1.5,1.2-2.7,2.7-2.7h37.4c1.5,0,2.7,1.2,2.7,2.7V395
			C422.5,396.5,421.3,397.7,419.8,397.7z"/>
	</g>
	<g>
		<path class="st2" d="M94.8,148.7l-3.7-4.7c-1.7-2.2-1.4-5.3,0.8-7.1l27.5-21.8c1.2-0.9,2.8-0.7,3.7,0.4l6.6,8.4
			c0.9,1.2,0.7,2.8-0.4,3.7l-27.5,21.8C99.7,151.2,96.5,150.9,94.8,148.7z"/>
	</g>
	<g>
		<path class="st4" d="M143.1,113.4l-6.6-8.4c-0.9-1.2-0.7-2.8,0.4-3.7L166.3,78c1.2-0.9,2.8-0.7,3.7,0.4l6.6,8.4
			c0.9,1.2,0.7,2.8-0.4,3.7l-29.4,23.3C145.7,114.8,144,114.6,143.1,113.4z"/>
	</g>
	<g>
		<path class="st2" d="M189,77.1l-6.6-8.4c-0.9-1.2-0.7-2.8,0.4-3.7l29.4-23.3c1.2-0.9,2.8-0.7,3.7,0.4l6.6,8.4
			c0.9,1.2,0.7,2.8-0.4,3.7l-29.4,23.3C191.5,78.4,189.9,78.2,189,77.1z"/>
	</g>
	<g>
		<path class="st2" d="M187,397.7h-37.4c-1.5,0-2.7-1.2-2.7-2.7v-10.5c0-1.5,1.2-2.7,2.7-2.7H187c1.5,0,2.7,1.2,2.7,2.7V395
			C189.7,396.5,188.5,397.7,187,397.7z"/>
	</g>
	<g>
		<path class="st2" d="M105,159.4H67.4c-1.4,0-2.6,1.3-2.6,2.9v44.2c0,2.1,1.7,3.8,3.8,3.8h4.5c2.1,0,3.8-1.7,3.8-3.8v-30.6
			c0-1.6,1.1-2.9,2.6-2.9h13.4c1.4,0,2.6,1.3,2.6,2.9V380c0,1.6-1.1,2.9-2.6,2.9H79.5c-1.4,0-2.6-1.3-2.6-2.9V230.2
			c0-2.1-1.7-3.8-3.8-3.8h-4.5c-2.1,0-3.8,1.7-3.8,3.8v163.4c0,1.6,1.1,2.9,2.6,2.9H105c1.4,0,2.6-1.3,2.6-2.9V162.3
			C107.5,160.7,106.4,159.4,105,159.4z"/>
	</g>
</g>
</svg>
