<?xml version="1.0" encoding="utf-8"?>
<!-- Generator: Adobe Illustrator 25.0.0, SVG Export Plug-In . SVG Version: 6.00 Build 0)  -->
<svg version="1.1" id="Layer_1" xmlns="http://www.w3.org/2000/svg" xmlns:xlink="http://www.w3.org/1999/xlink" x="0px" y="0px"
	 viewBox="0 0 512 512" style="enable-background:new 0 0 512 512;" xml:space="preserve">
<style type="text/css">
	.st0{fill:#5B6ED8;}
	.st1{fill:#445CC1;}
	.st2{fill:#566AC1;}
	.st3{fill:#3954C4;}
	.st4{fill:#6788EF;}
	.st5{fill:none;stroke:#566AC1;stroke-width:12.1789;stroke-linecap:round;stroke-miterlimit:10;}
</style>
<g>
	<g>
		<rect x="222.2" y="80.7" class="st2" width="17.6" height="48.8"/>
	</g>
	<g>
		<rect x="273.2" y="80.7" class="st2" width="17.6" height="48.8"/>
	</g>
	<g>
		<path class="st2" d="M306.8,89.5H205.1c-1.2,0-2.3-1-2.3-2.3V74.1c0-1.2,1-2.3,2.3-2.3h101.8c1.2,0,2.3,1,2.3,2.3v13.1
			C309.1,88.5,308.1,89.5,306.8,89.5z"/>
	</g>
	<g>
		<rect x="155.1" y="232.4" class="st4" width="201.8" height="17.6"/>
	</g>
	<g>
		<path class="st2" d="M345.5,126.1h-179c-11.1,0-20.2,8.6-20.2,19.1v48.8c0,2.1,1.7,3.8,3.8,3.8h10c2.1,0,3.8-1.7,3.8-3.8v-48.8
			c0-1.3,1.2-2.4,2.6-2.4h179c1.4,0,2.6,1.1,2.6,2.4v260.2c0,1.3-1.2,2.4-2.6,2.4h-179c-1.4,0-2.6-1.1-2.6-2.4v-187
			c0-2.1-1.7-3.8-3.8-3.8h-10c-2.1,0-3.8,1.7-3.8,3.8v187c0,10.5,9.1,19.1,20.2,19.1h179c11.1,0,20.2-8.6,20.2-19.1V145.2
			C365.7,134.6,356.6,126.1,345.5,126.1z"/>
	</g>
</g>
</svg>
