<?xml version="1.0" encoding="utf-8"?>
<!-- Generator: Adobe Illustrator 25.0.0, SVG Export Plug-In . SVG Version: 6.00 Build 0)  -->
<svg version="1.1" id="Layer_1" xmlns="http://www.w3.org/2000/svg" xmlns:xlink="http://www.w3.org/1999/xlink" x="0px" y="0px"
	 viewBox="0 0 512 512" style="enable-background:new 0 0 512 512;" xml:space="preserve">
<style type="text/css">
	.st0{fill:#445CC1;}
	.st1{fill:#5B6ED8;}
	.st2{fill:#455CBF;}
	.st3{fill:#4A60BC;}
	.st4{fill:#495EB2;}
	.st5{fill:#465BB2;}
</style>
<g>
	<path class="st1" d="M363.7,198.6l-35.1-20.3l-34.9-20.1c-1.1-0.6-2.4,0.2-2.4,1.4v29H129.6c-2,0-3.6,1.6-3.6,3.6v15.4
		c0,2,1.6,3.6,3.6,3.6h161.8v29c0,1.2,1.4,2,2.4,1.4l34.9-20.1l35.1-20.3C364.7,200.6,364.7,199.2,363.7,198.6z"/>
	<path class="st1" d="M148.3,282.2l35.1-20.3l34.9-20.1c1.1-0.6,2.4,0.2,2.4,1.4v29h161.8c2,0,3.6,1.6,3.6,3.6v15.4
		c0,2-1.6,3.6-3.6,3.6H220.6v29c0,1.2-1.4,2-2.4,1.4L183.3,305l-35.1-20.3C147.3,284.2,147.3,282.7,148.3,282.2z"/>
</g>
</svg>
