<?xml version="1.0" encoding="utf-8"?>
<!-- Generator: Adobe Illustrator 25.0.0, SVG Export Plug-In . SVG Version: 6.00 Build 0)  -->
<svg version="1.1" id="Layer_1" xmlns="http://www.w3.org/2000/svg" xmlns:xlink="http://www.w3.org/1999/xlink" x="0px" y="0px"
	 viewBox="0 0 512 512" style="enable-background:new 0 0 512 512;" xml:space="preserve">
<style type="text/css">
	.st0{fill:#5B6ED8;}
	.st1{fill:#6788EF;}
	.st2{fill:#566AC1;}
</style>
<g>
	<path class="st1" d="M392.5,357.2h-14.4c-2.3,0-4.1-1.8-4.1-4.1v-155c0-1.5-0.8-2.8-2.1-3.6l-113.9-65.9c-1.3-0.7-2.8-0.7-4.1,0
		L140,194.5c-1.3,0.7-2.1,2.1-2.1,3.6v155c0,2.3-1.8,4.1-4.1,4.1h-14.4c-2.3,0-4.1-1.8-4.1-4.1v-168c0-1.5,0.8-2.8,2.1-3.6
		L254,102.6c1.3-0.7,2.8-0.7,4.1,0l136.5,78.9c1.3,0.7,2.1,2.1,2.1,3.6v168C396.6,355.3,394.8,357.2,392.5,357.2z"/>
</g>
</svg>
