<?xml version="1.0" encoding="utf-8"?>
<!-- Generator: Adobe Illustrator 25.0.0, SVG Export Plug-In . SVG Version: 6.00 Build 0)  -->
<svg version="1.1"
	 id="svg2" xmlns:cc="http://creativecommons.org/ns#" xmlns:dc="http://purl.org/dc/elements/1.1/" xmlns:rdf="http://www.w3.org/1999/02/22-rdf-syntax-ns#" xmlns:svg="http://www.w3.org/2000/svg"
	 xmlns="http://www.w3.org/2000/svg" xmlns:xlink="http://www.w3.org/1999/xlink" x="0px" y="0px" viewBox="0 0 61.6 36.8"
	 style="enable-background:new 0 0 61.6 36.8;" xml:space="preserve">
<style type="text/css">
	.st0{fill:#FDF000;}
	.st1{fill:#046FBB;}
</style>
<g>
	<g id="XMLID_2_">
		<path id="XMLID_16_" d="M0,3.3C0,1.7,1.3,0,3,0C21.5,0,40,0,58.4,0c2.2-0.1,3.4,2.4,3.1,4.3v20.6c-3.9,4-7.9,7.9-11.9,11.9
			c-15.5,0-31.1,0-46.6,0c-2,0.1-3.3-2.1-3-3.9C0,23,0,13.2,0,3.3 M0.8,3.6c0,10,0,20,0,29.9c0,1.3,1.1,2.6,2.5,2.5
			c15.3,0,30.7,0,46,0c3.8-3.8,7.6-7.6,11.4-11.4c0-7.1,0-14.2,0-21.3c0-1.3-1.1-2.6-2.5-2.5c-18.3,0-36.6,0-54.9,0
			C1.8,0.7,0.7,2.2,0.8,3.6z"/>
		<path id="XMLID_15_" d="M23.6,10.5c1,0,2.1,0,3.1,0c-0.8,4.9-1.6,9.9-2.5,14.8c-1,0-2,0-3,0c0.1-0.5,0.2-1.1,0.3-1.6
			c-0.6,0.6-1.2,1.3-2,1.6c-1.3,0.5-3,0.2-3.8-1c-0.9-1.4-0.7-3.2-0.5-4.8c0.4-1.9,1.1-3.8,2.9-4.8c1.5-0.8,3.7-0.9,4.6,0.8
			C23,13.9,23.3,12.2,23.6,10.5 M20.4,16.6c-1,0.5-1.3,1.7-1.6,2.7c-0.2,1.1-0.5,2.4,0.1,3.5c0.9,1,2.4,0.1,2.7-1
			c0.4-1.3,0.6-2.7,0.7-4.1C22.3,16.8,21.2,16.1,20.4,16.6z"/>
		<path id="XMLID_13_" d="M29.8,15c2-1.1,4.9-1.2,6.4,0.7c1.1,1.3,1,3.2,0.7,4.8c-2.4,0-4.7,0-7.1,0c-0.2,1-0.2,2.3,0.9,2.7
			c1.3,0.5,2.5-0.4,3-1.6c1,0.1,1.9,0.1,2.9,0.2c-0.8,1.5-1.9,3-3.6,3.5c-1.6,0.5-3.4,0.5-4.8-0.4c-1.1-0.7-1.7-2-1.8-3.4
			C26.4,19,27.6,16.3,29.8,15 M31.7,16.5c-0.8,0.3-1.1,1.2-1.5,2c1.3,0,2.6,0,3.9,0c-0.1-0.6,0-1.4-0.5-1.8
			C33.1,16.2,32.3,16.3,31.7,16.5z"/>
		<path id="XMLID_12_" d="M41,15.1c1.8-1,4-1.1,5.9-0.6c1,0.3,2,1.2,1.8,2.3c-0.2,2.9-1,5.6-1.2,8.5c-1,0-2.1,0-3.1,0
			c0-0.5,0.1-1.1,0.2-1.6c-0.8,0.8-1.7,1.6-2.8,1.8c-1.3,0.2-3,0-3.7-1.3c-0.7-1.6,0.2-3.4,1.5-4.3c1.7-1.1,3.8-1.1,5.8-1.3
			c0.1-0.7,0.3-1.8-0.5-2.1c-1.2-0.5-2.5,0.3-3,1.5c-1-0.1-1.9-0.2-2.9-0.3C39.4,16.6,40,15.6,41,15.1 M41.4,22.1
			c-0.3,0.8,0.5,1.7,1.3,1.5c1.6-0.2,2.3-2,2.3-3.4C43.8,20.4,41.8,20.5,41.4,22.1z"/>
		<path id="XMLID_10_" class="st0" d="M0.8,3.6c-0.1-1.4,1-2.9,2.4-2.8c18.3,0,36.6,0,54.9,0c1.4-0.1,2.5,1.1,2.5,2.5
			c0,7.1,0,14.2,0,21.3c-3.8,3.8-7.6,7.6-11.4,11.4c-15.3,0-30.7,0-46,0c-1.4,0.1-2.5-1.2-2.5-2.5C0.8,23.5,0.8,13.6,0.8,3.6
			 M12.1,10.5c-0.6,3.3-1.1,6.7-1.7,10c1.1,0,2.1,0,3.2,0c0.6-3.3,1.1-6.7,1.7-10C14.3,10.5,13.2,10.5,12.1,10.5 M23.6,10.5
			c-0.3,1.7-0.6,3.4-0.8,5c-0.9-1.6-3.2-1.6-4.6-0.8c-1.7,1-2.5,3-2.9,4.8c-0.3,1.6-0.4,3.3,0.5,4.8c0.8,1.2,2.5,1.5,3.8,1
			c0.8-0.3,1.4-1,2-1.6c-0.1,0.5-0.2,1.1-0.3,1.6c1,0,2,0,3,0c0.8-4.9,1.6-9.9,2.5-14.8C25.7,10.5,24.7,10.5,23.6,10.5 M29.8,15
			c-2.2,1.3-3.4,4-3.4,6.5c0,1.3,0.6,2.6,1.8,3.4c1.4,0.9,3.2,0.9,4.8,0.4c1.7-0.5,2.9-2,3.6-3.5c-1-0.1-1.9-0.1-2.9-0.2
			c-0.5,1.1-1.7,2.1-3,1.6c-1.1-0.4-1.2-1.7-0.9-2.7c2.4,0,4.7,0,7.1,0c0.3-1.6,0.3-3.4-0.7-4.8C34.7,13.9,31.8,13.9,29.8,15
			 M41,15.1c-1,0.5-1.6,1.5-2,2.5c1,0.1,1.9,0.2,2.9,0.3c0.4-1.2,1.7-2,3-1.5c0.9,0.3,0.6,1.4,0.5,2.1c-2,0.2-4.1,0.2-5.8,1.3
			c-1.4,0.9-2.2,2.8-1.5,4.3c0.7,1.3,2.4,1.5,3.7,1.3c1.1-0.2,2-1,2.8-1.8c-0.1,0.5-0.1,1.1-0.2,1.6c1,0,2.1,0,3.1,0
			c0.2-2.9,1-5.7,1.2-8.5c0.1-1.1-0.8-2-1.8-2.3C45,14,42.8,14.2,41,15.1 M10.2,22.2c-0.2,1.1-0.4,2.1-0.5,3.2c1.1,0,2.1,0,3.2,0
			c0.2-1.1,0.4-2.1,0.6-3.2C12.3,22.2,11.3,22.2,10.2,22.2z"/>
		<path id="XMLID_9_" class="st0" d="M31.7,16.5c0.6-0.2,1.5-0.4,2,0.2c0.5,0.5,0.4,1.2,0.5,1.8c-1.3,0-2.6,0-3.9,0
			C30.5,17.8,30.8,16.9,31.7,16.5z"/>
		<path id="XMLID_7_" class="st0" d="M20.4,16.6c0.8-0.5,2,0.1,1.9,1.1c0,1.4-0.3,2.8-0.7,4.1c-0.3,1.1-1.9,2-2.7,1
			c-0.6-1.1-0.3-2.4-0.1-3.5C19,18.4,19.4,17.2,20.4,16.6z"/>
		<path id="XMLID_6_" class="st0" d="M41.4,22.1c0.4-1.6,2.4-1.7,3.7-2c-0.1,1.4-0.7,3.2-2.3,3.4C41.9,23.8,41.1,22.9,41.4,22.1z"/>
		<path id="XMLID_4_" class="st1" d="M12.1,10.5c1.1,0,2.1,0,3.2,0c-0.6,3.3-1.1,6.7-1.7,10c-1.1,0-2.1,0-3.2,0
			C11,17.2,11.5,13.8,12.1,10.5z"/>
		<path id="XMLID_3_" class="st1" d="M10.2,22.2c1.1,0,2.1,0,3.2,0c-0.2,1.1-0.4,2.1-0.6,3.2c-1.1,0-2.1,0-3.2,0
			C9.8,24.3,10,23.2,10.2,22.2z"/>
	</g>
</g>
</svg>
