<?xml version="1.0" encoding="utf-8"?>
<!-- Generator: Adobe Illustrator 25.0.0, SVG Export Plug-In . SVG Version: 6.00 Build 0)  -->
<svg version="1.1" id="Layer_1" xmlns="http://www.w3.org/2000/svg" xmlns:xlink="http://www.w3.org/1999/xlink" x="0px" y="0px"
	 viewBox="0 0 512 512" style="enable-background:new 0 0 512 512;" xml:space="preserve">
<style type="text/css">
	.st0{fill:#5B6ED8;}
	.st1{fill:#445CC1;}
	.st2{fill:#566AC1;}
	.st3{fill:#3954C4;}
	.st4{fill:#6788EF;}
	.st5{fill:none;stroke:#566AC1;stroke-width:12.1789;stroke-linecap:round;stroke-miterlimit:10;}
</style>
<g>
	<path class="st2" d="M261.4,86.8c80,1.3,145.1,66.3,146.5,146.3c0.4,22.6-4.3,44.1-13,63.4c-0.8,1.8-0.4,4,1,5.4l4.7,4.7
		c2.4,2.4,6.4,1.7,7.9-1.4c10.1-21.6,15.6-45.7,15.4-71C423,143.3,348,69.8,257.2,70.8c-45.4,0.5-86.5,19.4-116.1,49.7l11.3,11.3
		C180,103.5,218.7,86.1,261.4,86.8z"/>
	<path class="st2" d="M379.5,325.2c-26.7,42.7-74.4,71.1-128.5,70.3c-82.1-1.1-148.3-69.5-146.8-151.7c0.6-31.9,11.3-61.3,28.9-85.3
		c1.6-2.1,1.3-5-0.5-6.9l-3.9-3.9c-2.3-2.3-6-2-8,0.6c-20.4,27.4-32.5,61.3-32.6,97.9c-0.2,89.2,71.3,162.9,160.5,165.2
		c59.5,1.6,112.2-28.6,142.4-74.7L379.5,325.2z"/>
	<path class="st2" d="M135.5,139.8l27.9-5.3c0.8-0.1,1-1.1,0.4-1.6l-27.3-22.6c-0.6-0.5-1.5-0.1-1.5,0.7l-0.5,27.9
		C134.4,139.5,134.9,139.9,135.5,139.8z"/>
	<path class="st2" d="M394.5,315.8l-27.2,8.1c-0.7,0.2-0.9,1.2-0.2,1.6l29.5,19.7c0.6,0.4,1.5-0.1,1.4-0.8l-2.3-27.8
		C395.6,316.1,395.1,315.7,394.5,315.8z"/>
	<g>
		<path class="st4" d="M168.1,216.8c0.2,1.1,3.7,26.9,16.8,57.2c17.4,40.2,41.9,68.8,70.9,83l0.2,0.5c0.1-0.1,0.2-0.1,0.4-0.2
			c0.1,0.1,0.2,0.1,0.4,0.2l0.2-0.5c29-14.1,53.5-42.8,70.9-83c13.1-30.2,16.7-55.7,16.9-56.8l0-1l3.5-50l-91-39.1l-0.3-0.6
			l-0.6,0.3l-0.6-0.3l-0.3,0.6l-91.1,39.2 M323.2,245.2c-9.9,30.1-29.9,74.4-66.8,95.7c-36.9-21.2-56.9-65.6-66.8-95.7
			c-5.3-16.3-8-33.2-8-50.3v-20.2l69.8-30c3.2-1.4,6.8-1.4,10,0l69.8,30v20.2C331.2,211.9,328.5,228.9,323.2,245.2z"/>
		<g>
			<path class="st4" d="M235.7,265l-17.2-17.2c-1.5-1.5-1.5-4,0-5.5l4.8-4.8c1.5-1.5,4-1.5,5.5,0l7.9,7.8c1.4,1.4,3.7,1.5,5.2,0.2
				l63.3-52.6c1.6-1.4,4.1-1.1,5.5,0.5l4.3,5.2c1.4,1.6,1.1,4.1-0.5,5.5l-73.5,61C239.4,266.5,237.1,266.4,235.7,265z"/>
		</g>
	</g>
</g>
</svg>
