<?xml version="1.0" encoding="utf-8"?>
<!-- Generator: Adobe Illustrator 25.0.0, SVG Export Plug-In . SVG Version: 6.00 Build 0)  -->
<svg version="1.1" id="Layer_1" xmlns="http://www.w3.org/2000/svg" xmlns:xlink="http://www.w3.org/1999/xlink" x="0px" y="0px"
	 viewBox="0 0 512 512" style="enable-background:new 0 0 512 512;" xml:space="preserve">
<style type="text/css">
	.st0{fill:#5B6ED8;}
	.st1{fill:#6788EF;}
	.st2{fill:#566AC1;}
</style>
<g>
	<g>
		<path class="st0" d="M394,194.1v211.4c0,1.9-1.7,3.4-3.8,3.4h-98.1c-2.1,0-3.8-1.5-3.8-3.4v-50.7c0-0.7,0.4-1.3,1.1-1.6
			c3.1-1.5,6.1-3.1,9-4.8c0,0,0.1,0,0.1-0.1c1.6-0.9,3.3-1.8,4.9-2.7c0.1-0.1,0.2-0.1,0.4-0.2c1.4-0.8,3.2,0.1,3.2,1.6v45.2h68.5
			V207.4h-68.5v117.3c0,0.6-0.3,1.2-0.9,1.5c0,0,0,0-0.1,0.1c-1.2,0.7-2.4,1.4-3.6,2c-0.5,0.3-1,0.6-1.5,0.9
			c-3.1,1.8-6.2,3.5-9.3,5.2c-1.4,0.8-3.2-0.1-3.2-1.6V194.1c0-1.9,1.7-3.4,3.8-3.4h98.1C392.3,190.7,394,192.2,394,194.1z"/>
	</g>
	<g>
		<path class="st0" d="M265.4,409.5h-57.9c-1.7,0-3.1-1.4-3.1-3.1l0-5.7v-69.4c0-1.7,1.4-3.1,3.1-3.1l5.7,0H271
			c1.7,0,3.1,1.4,3.1,3.1l0,5.7v69.4c0,1.7-1.4,3.1-3.1,3.1L265.4,409.5z M221.8,392.1h34.9v-46.5h-34.9V392.1z"/>
	</g>
	<g>
		<rect x="131.6" y="391.5" class="st0" width="53.7" height="18.6"/>
	</g>
	<path class="st1" d="M309.5,135.8l-17.7-42.2l-33.5,31.2l17.9,3.8c-13.2,58.8-55,104.7-88,133c-29.1,25-56.8,41.1-67.4,46.9
		c-2.5,1.4-3.5,4.5-2.3,7.1l2.5,5c1.4,2.7,4.7,3.8,7.4,2.3c11.1-6,39.5-22.5,70.1-48.7c50.1-42.8,82.4-91.9,93.7-142.2L309.5,135.8z
		"/>
</g>
</svg>
