<?xml version="1.0" encoding="utf-8"?>
<!-- Generator: Adobe Illustrator 25.0.0, SVG Export Plug-In . SVG Version: 6.00 Build 0)  -->
<svg version="1.1" id="Layer_1" xmlns="http://www.w3.org/2000/svg" xmlns:xlink="http://www.w3.org/1999/xlink" x="0px" y="0px"
	 viewBox="0 0 512 512" style="enable-background:new 0 0 512 512;" xml:space="preserve">
<style type="text/css">
	.st0{fill:#5B6ED8;}
	.st1{fill:#445CC1;}
	.st2{fill:#566AC1;}
	.st3{fill:#3954C4;}
	.st4{fill:#6788EF;}
	.st5{fill:none;stroke:#566AC1;stroke-width:12.1789;stroke-linecap:round;stroke-miterlimit:10;}
</style>
<g>
	<g>
		<path class="st2" d="M223.6,399.9H105.4c-4.2,0-7.5-3.4-7.5-7.5V125c0-4.2,3.4-7.5,7.5-7.5h118.1c4.2,0,7.5,3.4,7.5,7.5v267.4
			C231.1,396.5,227.7,399.9,223.6,399.9z M122.7,382.6h83.5c4.2,0,7.5-3.4,7.5-7.5V142.3c0-4.2-3.4-7.5-7.5-7.5h-83.5
			c-4.2,0-7.5,3.4-7.5,7.5v232.8C115.2,379.2,118.6,382.6,122.7,382.6z"/>
	</g>
	<path class="st2" d="M411,117.9H252.9c-5.1,0-7.6,6.1-4,9.7l5.9,5.9c1.1,1.1,2.5,1.7,4,1.7h134.9c1.7,0,3.1,1.4,3.1,3.1v240.8
		c0,1.7-1.4,3.1-3.1,3.1H253.1c-1,0-2,0.4-2.8,1.1c-3.2,3.2-6.3,6.3-9.5,9.5c-2.5,2.5-0.7,6.7,2.8,6.7H411c1.7,0,3.1-1.4,3.1-3.1
		V121C414.1,119.3,412.7,117.9,411,117.9z"/>
	<g>
		<path class="st4" d="M367.3,199.4h-93.1c-2.2,0-4-1.8-4-4V185c0-2.2,1.8-4,4-4h93.1c2.2,0,4,1.8,4,4v10.4
			C371.2,197.7,369.5,199.4,367.3,199.4z"/>
	</g>
	<g>
		<path class="st2" d="M298.4,254.6h-24.2c-2.2,0-4-1.8-4-4V238c0-2.2,1.8-4,4-4h24.2c2.2,0,4,1.8,4,4v12.6
			C302.3,252.8,300.6,254.6,298.4,254.6z"/>
	</g>
	<g>
		<path class="st2" d="M367.3,254.8h-25c-2.2,0-4-1.8-4-4v-13.1c0-2.2,1.8-4,4-4h25c2.2,0,4,1.8,4,4v13.1
			C371.2,253,369.5,254.8,367.3,254.8z"/>
	</g>
	<g>
		<path class="st2" d="M298.4,294.2h-24.2c-2.2,0-4-1.8-4-4v-12.6c0-2.2,1.8-4,4-4h24.2c2.2,0,4,1.8,4,4v12.6
			C302.3,292.5,300.6,294.2,298.4,294.2z"/>
	</g>
	<g>
		<path class="st2" d="M367.3,294.5h-25c-2.2,0-4-1.8-4-4v-13.1c0-2.2,1.8-4,4-4h25c2.2,0,4,1.8,4,4v13.1
			C371.2,292.7,369.5,294.5,367.3,294.5z"/>
	</g>
</g>
</svg>
