<?xml version="1.0" encoding="utf-8"?>
<!-- Generator: Adobe Illustrator 25.0.0, SVG Export Plug-In . SVG Version: 6.00 Build 0)  -->
<svg version="1.1" id="Layer_1" xmlns="http://www.w3.org/2000/svg" xmlns:xlink="http://www.w3.org/1999/xlink" x="0px" y="0px"
	 viewBox="0 0 512 512" style="enable-background:new 0 0 512 512;" xml:space="preserve">
<style type="text/css">
	.st0{fill:#5B6ED8;}
	.st1{fill:#445CC1;}
	.st2{fill:#445CC1;stroke:#445CC1;stroke-width:3.3317;stroke-miterlimit:10;}
	.st3{fill:none;stroke:#445CC1;stroke-width:16;stroke-miterlimit:10;}
</style>
<g>
	<g>
		<path class="st1" d="M307.2,298.2c-3.2,1.9-6.3,3.9-9.4,5.9c-4.1,2.6-6.6,7.1-6.6,12v39.9c0,3.2-2.6,5.7-5.7,5.7h-141
			c-3.2,0-5.7-2.6-5.7-5.7V155.9c0-3.2,2.6-5.7,5.7-5.7h141c3.2,0,5.7,2.6,5.7,5.7v38.6c0,2.4,2.6,3.8,4.6,2.5
			c3.7-2.4,7.5-4.8,11.4-7v-34.1c0-12-9.7-21.7-21.7-21.7h-141c-12,0-21.7,9.7-21.7,21.7v200.2c0,12,9.7,21.7,21.7,21.7h141
			c12,0,21.7-9.7,21.7-21.7L307.2,298.2C307.2,298.2,307.2,298.2,307.2,298.2z"/>
	</g>
	<g>
		<path class="st1" d="M388.5,256.2l-35.3-51c-1.9-2.8-5.7-3.5-8.5-1.5l-3.1,2.2c-2.8,1.9-3.5,5.7-1.5,8.5l19.4,28.1
			c0.7,1,0,2.3-1.2,2.3h-123c-2.7,0-4.8,2.2-4.8,4.8v7c0,2.3,1.8,4.1,4.1,4.1h125.7c1.3,0,1.9,1.6,1,2.5l-27.8,27.8
			c-1.7,1.7-1.7,4.5,0,6.2l5.1,5.1c1.7,1.7,4.5,1.7,6.2,0l43.8-43.8c0.6-0.6,0.6-1.5,0-2l0,0C388.6,256.3,388.5,256.3,388.5,256.2z"
			/>
		<path class="st1" d="M341.7,303.6c-1.2,0-2.3-0.4-3.2-1.3l-5.1-5.1c-1.8-1.8-1.8-4.6,0-6.4l27.8-27.8c0.4-0.4,0.5-0.9,0.3-1.4
			c-0.2-0.5-0.7-0.8-1.2-0.8H234.6c-2.3,0-4.3-1.9-4.3-4.3v-7c0-2.7,2.2-5,5-5h123c0.5,0,0.9-0.3,1.2-0.7s0.2-1-0.1-1.4L340,214.4
			c-0.9-1.4-1.3-3-1-4.6c0.3-1.6,1.2-3.1,2.6-4l3.2-2.2c2.8-1.9,6.7-1.2,8.6,1.6l35.3,51c0,0.1,0.1,0.1,0.2,0.2
			c0.6,0.6,0.6,1.6,0,2.2l-43.8,43.8C344.1,303.2,342.9,303.6,341.7,303.6z M235.3,244.8c-2.6,0-4.7,2.1-4.7,4.7v7c0,2.2,1.8,4,4,4
			h125.7c0.6,0,1.2,0.4,1.5,1c0.2,0.6,0.1,1.3-0.3,1.7L333.6,291c-1.7,1.7-1.7,4.4,0,6l5.1,5.1c0.8,0.8,1.9,1.3,3,1.3c0,0,0,0,0,0
			c1.1,0,2.2-0.4,3-1.2l43.8-43.8c0.5-0.5,0.5-1.4,0-1.9c-0.1-0.1-0.1-0.1-0.2-0.2l-35.3-51c-0.9-1.3-2.3-2.2-3.8-2.5
			c-1.6-0.3-3.1,0.1-4.5,1l-3.2,2.2c-1.3,0.9-2.2,2.3-2.5,3.8c-0.3,1.6,0.1,3.2,1,4.5l19.4,28.1c0.3,0.5,0.4,1.1,0.1,1.6
			s-0.8,0.8-1.4,0.8H235.3z"/>
	</g>
</g>
</svg>
