<?xml version="1.0" encoding="utf-8"?>
<!-- Generator: Adobe Illustrator 25.0.0, SVG Export Plug-In . SVG Version: 6.00 Build 0)  -->
<svg version="1.1" id="Layer_1" xmlns="http://www.w3.org/2000/svg" xmlns:xlink="http://www.w3.org/1999/xlink" x="0px" y="0px"
	 viewBox="0 0 246.1 246.1" style="enable-background:new 0 0 246.1 246.1;" xml:space="preserve">
<style type="text/css">
	.st0{fill:#5B6ED8;}
	.st1{fill:#FFFFFF;}
</style>
<path class="st0" d="M175,246.1H71.1C31.9,246.1,0,214.3,0,175V71.1C0,31.9,31.9,0,71.1,0H175c39.3,0,71.1,31.9,71.1,71.1V175
	C246.1,214.3,214.3,246.1,175,246.1z"/>
<g>
	<g>
		<g>
			<path class="st1" d="M57.1,84.8V74.5h26.7v-6h-28c-2.6,0-4.7,2.1-4.7,4.7v10c0,0.6,0.3,1.1,0.7,1.5l1.6,1.6
				C54.7,87.6,57.1,86.7,57.1,84.8z"/>
			<path class="st1" d="M144.7,68.4h-28v6h26.6v119.3H57.1V99.3c0-0.6-0.3-1.1-0.7-1.5l-1.6-1.6c-1.4-1.4-3.7-0.4-3.7,1.5v97.4
				c0,2.6,2.1,4.7,4.7,4.7h89.1c2.6,0,4.7-2.1,4.7-4.7V73.1C149.4,70.6,147.3,68.4,144.7,68.4z"/>
		</g>
		<g>
			<path class="st1" d="M64.2,105.7v33.9c0,1.7,1.4,3.1,3.1,3.1h65.9c1.7,0,3.1-1.4,3.1-3.1v-33.9c0-1.7-1.4-3.1-3.1-3.1H67.3
				C65.6,102.6,64.2,104,64.2,105.7z M130,136.4H70.5v-27.5H130V136.4z"/>
		</g>
		<path class="st1" d="M194,88.5h-41c-1.6,0-2.4,2-1.3,3.1l1.3,1.3c0.2,0.2,0.3,0.4,0.5,0.6c0.3,0.5,0.9,0.8,1.6,0.8h38.3v86.5
			h-34.8c-1.6,0-2.4,2-1.3,3.1c0.8,0.8,1.5,1.5,2.2,2.2c0.3,0.3,0.8,0.5,1.3,0.5H194c2.9,0,5.3-2.4,5.3-5.3V93.7
			C199.3,90.8,196.9,88.5,194,88.5z"/>
		<g>
			<g>
				<path class="st1" d="M160,116.1h-3.4c-0.7,0-1.2-0.5-1.2-1.2v-5.6c0-0.7,0.5-1.2,1.2-1.2h3.4c0.7,0,1.2,0.5,1.2,1.2v5.6
					C161.3,115.5,160.7,116.1,160,116.1z"/>
			</g>
			<g>
				<path class="st1" d="M160,133.3h-3.4c-0.7,0-1.2-0.5-1.2-1.2v-5.6c0-0.7,0.5-1.2,1.2-1.2h3.4c0.7,0,1.2,0.5,1.2,1.2v5.6
					C161.3,132.7,160.7,133.3,160,133.3z"/>
			</g>
			<g>
				<path class="st1" d="M160,150.4h-3.4c-0.7,0-1.2-0.5-1.2-1.2v-5.6c0-0.7,0.5-1.2,1.2-1.2h3.4c0.7,0,1.2,0.5,1.2,1.2v5.6
					C161.3,149.9,160.7,150.4,160,150.4z"/>
			</g>
			<g>
				<path class="st1" d="M160,167.6h-3.4c-0.7,0-1.2-0.5-1.2-1.2v-5.6c0-0.7,0.5-1.2,1.2-1.2h3.4c0.7,0,1.2,0.5,1.2,1.2v5.6
					C161.3,167.1,160.7,167.6,160,167.6z"/>
			</g>
			<g>
				<path class="st1" d="M186.5,167.6h-3.4c-0.7,0-1.2-0.5-1.2-1.2v-32c0-0.7,0.5-1.2,1.2-1.2h3.4c0.7,0,1.2,0.5,1.2,1.2v32
					C187.7,167.1,187.2,167.6,186.5,167.6z"/>
			</g>
		</g>
		<g>
			<path class="st1" d="M78.8,160.2H66.1c-0.6,0-1.1-0.5-1.1-1.1v-3.7c0-0.6,0.5-1.1,1.1-1.1h12.7c0.6,0,1.1,0.5,1.1,1.1v3.7
				C80,159.7,79.5,160.2,78.8,160.2z"/>
		</g>
		<g>
			<path class="st1" d="M107,160.2H94.4c-0.6,0-1.1-0.5-1.1-1.1v-3.7c0-0.6,0.5-1.1,1.1-1.1H107c0.6,0,1.1,0.5,1.1,1.1v3.7
				C108.1,159.7,107.6,160.2,107,160.2z"/>
		</g>
		<g>
			<path class="st1" d="M135.2,160.2h-12.7c-0.6,0-1.1-0.5-1.1-1.1v-3.7c0-0.6,0.5-1.1,1.1-1.1h12.7c0.6,0,1.1,0.5,1.1,1.1v3.7
				C136.3,159.7,135.8,160.2,135.2,160.2z"/>
		</g>
		<g>
			<path class="st1" d="M78.8,175.3H66.1c-0.6,0-1.1-0.5-1.1-1.1v-3.7c0-0.6,0.5-1.1,1.1-1.1h12.7c0.6,0,1.1,0.5,1.1,1.1v3.7
				C80,174.7,79.5,175.3,78.8,175.3z"/>
		</g>
		<g>
			<path class="st1" d="M107,175.3H94.4c-0.6,0-1.1-0.5-1.1-1.1v-3.7c0-0.6,0.5-1.1,1.1-1.1H107c0.6,0,1.1,0.5,1.1,1.1v3.7
				C108.1,174.7,107.6,175.3,107,175.3z"/>
		</g>
		<g>
			<path class="st1" d="M135.2,175.3h-12.7c-0.6,0-1.1-0.5-1.1-1.1v-3.7c0-0.6,0.5-1.1,1.1-1.1h12.7c0.6,0,1.1,0.5,1.1,1.1v3.7
				C136.3,174.7,135.8,175.3,135.2,175.3z"/>
		</g>
		<path class="st1" d="M123.2,87.5L123.2,87.5c-0.3,0-0.5-0.3-0.5-0.5V49.3c0-2.7-2.2-4.9-4.9-4.9H82.9c-2.8,0-5.1,2.3-5.1,5.1v37.4
			c0,0.3-0.3,0.5-0.5,0.5l0,0c-1.1,0-2,0.9-2,2v1.2c0,1.4,1.2,2.6,2.6,2.6l0,0l0,0h44.9l0,0l0,0c1.4,0,2.6-1.2,2.6-2.6v-1.2
			C125.3,88.4,124.3,87.5,123.2,87.5z M83.7,50.3h33.1v37.1H83.7V50.3z"/>
		<g>
			<path class="st1" d="M110.7,65.2H89.3c-0.6,0-1-0.5-1-1v-3.7c0-0.6,0.5-1,1-1h21.4c0.6,0,1,0.5,1,1v3.7
				C111.7,64.8,111.3,65.2,110.7,65.2z"/>
		</g>
		<g>
			<path class="st1" d="M110.7,75.7H89.3c-0.6,0-1-0.5-1-1v-3.7c0-0.6,0.5-1,1-1h21.4c0.6,0,1,0.5,1,1v3.7
				C111.7,75.2,111.3,75.7,110.7,75.7z"/>
		</g>
	</g>
</g>
</svg>
