<?xml version="1.0" encoding="utf-8"?>
<!-- Generator: Adobe Illustrator 25.0.0, SVG Export Plug-In . SVG Version: 6.00 Build 0)  -->
<svg version="1.1" id="Layer_1" xmlns="http://www.w3.org/2000/svg" xmlns:xlink="http://www.w3.org/1999/xlink" x="0px" y="0px"
	 viewBox="0 0 512 512" style="enable-background:new 0 0 512 512;" xml:space="preserve">
<style type="text/css">
	.st0{fill:#5B6ED8;}
	.st1{fill:#FFFFFF;}
	.st2{fill:none;stroke:#5B6ED8;stroke-width:6.4366;stroke-miterlimit:10;}
	.st3{fill:#FFFFFF;stroke:#5B6ED8;stroke-width:6.4366;stroke-miterlimit:10;}
	.st4{fill:#FFFFFF;stroke:#5B6ED8;stroke-width:6.152;stroke-miterlimit:10;}
</style>
<g>
	<path class="st0" d="M328,366.9v55.3H125.6V102.6H328v107.7c0,1.6,1.3,2.9,2.9,2.9h10.8c1.6,0,2.9-1.3,2.9-2.9V86.1H109.1v352.6
		h235.4v-71.8c0-1.4-1.1-2.5-2.5-2.5h-11.4C329.2,364.4,328,365.5,328,366.9z"/>
	<g>
		<path class="st0" d="M209.9,155.7h-64.4c-1.5,0-2.7-1.2-2.7-2.7v-10.7c0-1.5,1.2-2.7,2.7-2.7h64.4c1.5,0,2.7,1.2,2.7,2.7V153
			C212.5,154.5,211.3,155.7,209.9,155.7z"/>
	</g>
	<g>
		<path class="st0" d="M209.9,183.8h-64.4c-1.5,0-2.7-1.2-2.7-2.7v-10.7c0-1.5,1.2-2.7,2.7-2.7h64.4c1.5,0,2.7,1.2,2.7,2.7v10.7
			C212.5,182.6,211.3,183.8,209.9,183.8z"/>
	</g>
	<g>
		<path class="st0" d="M209.9,212h-64.4c-1.5,0-2.7-1.2-2.7-2.7v-10.7c0-1.5,1.2-2.7,2.7-2.7h64.4c1.5,0,2.7,1.2,2.7,2.7v10.7
			C212.5,210.8,211.3,212,209.9,212z"/>
	</g>
	<g>
		<path class="st0" d="M209.9,254.2h-64.4c-1.5,0-2.7-1.2-2.7-2.7v-10.7c0-1.5,1.2-2.7,2.7-2.7h64.4c1.5,0,2.7,1.2,2.7,2.7v10.7
			C212.5,253,211.3,254.2,209.9,254.2z"/>
	</g>
	<g>
		<path class="st0" d="M209.9,282.3h-64.4c-1.5,0-2.7-1.2-2.7-2.7V269c0-1.5,1.2-2.7,2.7-2.7h64.4c1.5,0,2.7,1.2,2.7,2.7v10.7
			C212.5,281.2,211.3,282.3,209.9,282.3z"/>
	</g>
	<g>
		<path class="st0" d="M209.9,310.5h-64.4c-1.5,0-2.7-1.2-2.7-2.7v-10.7c0-1.5,1.2-2.7,2.7-2.7h64.4c1.5,0,2.7,1.2,2.7,2.7v10.7
			C212.5,309.3,211.3,310.5,209.9,310.5z"/>
	</g>
	<g>
		<path class="st0" d="M209.9,352.7h-64.4c-1.5,0-2.7-1.2-2.7-2.7v-10.7c0-1.5,1.2-2.7,2.7-2.7h64.4c1.5,0,2.7,1.2,2.7,2.7v10.7
			C212.5,351.5,211.3,352.7,209.9,352.7z"/>
	</g>
	<g>
		<path class="st0" d="M209.9,380.9h-64.4c-1.5,0-2.7-1.2-2.7-2.7v-10.7c0-1.5,1.2-2.7,2.7-2.7h64.4c1.5,0,2.7,1.2,2.7,2.7v10.7
			C212.5,379.7,211.3,380.9,209.9,380.9z"/>
	</g>
	<g>
		<path class="st0" d="M209.9,409h-64.4c-1.5,0-2.7-1.2-2.7-2.7v-10.7c0-1.5,1.2-2.7,2.7-2.7h64.4c1.5,0,2.7,1.2,2.7,2.7v10.7
			C212.5,407.8,211.3,409,209.9,409z"/>
	</g>
	<g>
		<path class="st0" d="M312.4,379.9h-42.9c-1.5,0-2.7-1.2-2.7-2.7v-8.7c0-1.5,1.2-2.7,2.7-2.7h42.9c1.5,0,2.7,1.2,2.7,2.7v8.7
			C315.1,378.7,313.9,379.9,312.4,379.9z"/>
	</g>
	<g>
		<path class="st0" d="M312.4,408h-42.9c-1.5,0-2.7-1.2-2.7-2.7v-8.7c0-1.5,1.2-2.7,2.7-2.7h42.9c1.5,0,2.7,1.2,2.7,2.7v8.7
			C315.1,406.8,313.9,408,312.4,408z"/>
	</g>
	<g>
		<path class="st0" d="M312.4,154.7h-42.9c-1.5,0-2.7-1.2-2.7-2.7v-8.7c0-1.5,1.2-2.7,2.7-2.7h42.9c1.5,0,2.7,1.2,2.7,2.7v8.7
			C315.1,153.5,313.9,154.7,312.4,154.7z"/>
	</g>
	<g>
		<path class="st0" d="M312.4,182.8h-42.9c-1.5,0-2.7-1.2-2.7-2.7v-8.7c0-1.5,1.2-2.7,2.7-2.7h42.9c1.5,0,2.7,1.2,2.7,2.7v8.7
			C315.1,181.6,313.9,182.8,312.4,182.8z"/>
	</g>
	<g>
		<path class="st0" d="M312.4,211h-42.9c-1.5,0-2.7-1.2-2.7-2.7v-8.7c0-1.5,1.2-2.7,2.7-2.7h42.9c1.5,0,2.7,1.2,2.7,2.7v8.7
			C315.1,209.8,313.9,211,312.4,211z"/>
	</g>
	<circle class="st0" cx="337.9" cy="287.4" r="65"/>
	<path class="st1" d="M354.4,260.5c-0.6-1.1-1.3-2.1-2.1-3.1c-0.5-0.7-1.1-1.3-1.6-2h17.7c0.5-2.3,0.9-4.6,1.4-7
		c0.3-1.3,0.6-2.6,0.9-3.8H351h-34.8c-1.4,3.6-2.7,7.2-4,10.8h18l0,0.2c3.7,1,7.1,2.7,9.8,5h-25.5c-0.9,2.8-1.7,5.6-2.4,8.5
		c-0.3,1-0.5,2-0.7,3.1h35.2c0,1.1-0.1,2.1-0.3,3.2c-1,3.6-3.8,6.5-7.9,8.3c-4.6,2-10.2,2.2-15.8,0.8l-2.9,10.8
		c0.2,0,0.3,0.1,0.5,0.1l-0.5,0.3c6,9.4,12.3,18.5,18.4,27.4c2.1,3.1,4.2,6.2,6.3,9.3h14.9c-3.8-5.7-7.6-11.3-11.4-16.8
		c-4.3-6.4-8.8-12.9-13.2-19.5c2.7-0.4,5.4-1.1,7.9-2.2c7.4-3.1,12.4-8.7,14.3-15.7c0.5-2,0.8-4,0.7-6h12.1c0.1-1,0.3-2,0.4-3
		c0.4-2.8,0.9-5.7,1.4-8.5H354.4z"/>
</g>
</svg>
