<?xml version="1.0" encoding="utf-8"?>
<!-- Generator: Adobe Illustrator 25.0.0, SVG Export Plug-In . SVG Version: 6.00 Build 0)  -->
<svg version="1.1" id="Layer_1" xmlns="http://www.w3.org/2000/svg" xmlns:xlink="http://www.w3.org/1999/xlink" x="0px" y="0px"
	 viewBox="0 0 551.4 373" style="enable-background:new 0 0 551.4 373;" xml:space="preserve">
<style type="text/css">
	.st0{fill-rule:evenodd;clip-rule:evenodd;fill:#037F04;}
</style>
<path id="Color_Fill_1" class="st0" d="M526.4,51h-210c0,14.2-0.6,29.2-1,42h-82V51h-208c-0.1-6.7,0.6-12.5,1-18
	c9.7-8,22.9-24.8,33-32c6.9-0.3,24.9-1,33-1h376c7.8,0,16.6,0.6,24,1c5.8,2.9,13.1,10.9,17,16C519.1,29.9,526.5,26,526.4,51z
	 M26.4,55h87v20c-24.1-2.1-40.7,3.7-58,11c-10,4.3-16.4,13.7-29,15C26.1,86.8,25.8,69.2,26.4,55z M525.4,55c0.2,7.1,0.8,13.3,0,20
	c-28.9,0-57,0-87,0V56C465.8,55.9,496.4,55,525.4,55z M228.4,100v53h-88v-40c2.1-6.3,7.7-8.9,12-13H228.4z M316.4,101
	c0.1,17.4-0.6,36.1-1,52h-82c0-18.2,0-34.2,0-52C260.5,100.6,287.9,101,316.4,101z M323.4,101h75c2.9,0.2,12.6,9.2,12,13
	c0.2,8.9,0.2,31.7,0,39h-87V101z M113.4,103v52c-13.3,13.3-26.7,27.7-40,41c-2.3,2.3-16.3,13.6-17,15v110c6.5,8.1,3.3,4.5,12,14h413
	c4.5-1.8,11-9,12-12c0.2-11.2,0-30.3,0-38c0-25.6,0.3-51,0-76l-55-55v-51c22.2-0.1,27.2,11.2,38,22c16.5,16.5,32.5,33.5,49,50
	c5.7,5.8,22.2,20.7,26,27c0,11.7,0,25.3,0,34v81c0,8.1,0.2,24.4-1,31c-9.7,9.6-18.7,18.7-25,25h-502c-5.9-8.9-16.9-15.4-23-26v-46
	c0-34-1.3-70.7,1-103l70-69C83.6,116.8,88.5,103.1,113.4,103z M315.4,158c0.3,16.5,0.2,36.4,0,53h-82c0-18.5-0.1-35.3,0-53H315.4z
	 M141.4,158h87c0.1,17.4,0,34.1,0,52c-27.6,0.4-58.8,1-88,1C140.3,193.3,140.9,174.2,141.4,158z M323.4,158h87
	c0.2,16.6,0.2,36.4,0,53h-87V158z M141.4,215c28.9,0,59.7,0.7,87,1c0.3,13.7-0.3,28.3,0,42c-15.4,0-56.8,0-87,0
	C141.3,243.8,141.2,228.7,141.4,215z M233.4,215h82c0.5,12.9,0,28.6,0,43h-82C233.4,242.2,233.4,231.2,233.4,215z M323.4,215h87
	c0.9,12.8,1,28.7,1,43h-88C323.7,244.9,323.3,229.5,323.4,215z M141.4,265h87c0.3,16.7,0.7,33.3,1,50c-28.7,0-59.2,0-88,0
	C141.1,299.5,141.1,280.5,141.4,265z M233.4,265h82c0.2,15.4,1,33.2,1,50c-26.3,0-55.2,0-83,0C233.4,296.3,233.4,283.2,233.4,265z
	 M323.4,265h87c0.1,16.7,0.7,34.9,0,50c-29.9,0-57.7,0-87,0C324,299.9,323.4,281.7,323.4,265z"/>
</svg>
