<?xml version="1.0" encoding="utf-8"?>
<!-- Generator: Adobe Illustrator 25.0.0, SVG Export Plug-In . SVG Version: 6.00 Build 0)  -->
<svg version="1.1" id="Layer_1" xmlns="http://www.w3.org/2000/svg" xmlns:xlink="http://www.w3.org/1999/xlink" x="0px" y="0px"
	 viewBox="0 0 246.1 246.1" style="enable-background:new 0 0 246.1 246.1;" xml:space="preserve">
<style type="text/css">
	.st0{fill:#5B6ED8;}
	.st1{fill:#FFFFFF;}
</style>
<path class="st0" d="M175,246.1H71.1C31.9,246.1,0,214.3,0,175V71.1C0,31.9,31.9,0,71.1,0H175c39.3,0,71.1,31.9,71.1,71.1V175
	C246.1,214.3,214.3,246.1,175,246.1z"/>
<path class="st1" d="M161.6,46.7h-77c-6.4,0-11.6,5.2-11.6,11.6v22.8c0,1.3,1,2.3,2.3,2.3h3.5c1.3,0,2.3-1,2.3-2.3V58.4
	c0-2,1.7-3.5,3.5-3.5h16.1v2.5c0,3.9,3.1,7,7,7h27c3.9,0,7-3.1,7-7v-2.6h20c2,0,3.5,1.7,3.5,3.5v129.4c0,2-1.7,3.5-3.5,3.5h-77
	c-2,0-3.5-1.7-3.5-3.5V94.8c0-2-1.7-3.8-3.8-3.8h-0.6c-2,0-3.8,1.7-3.8,3.8v92.9c0,6.4,5.2,11.6,11.6,11.6h77
	c6.4,0,11.6-5.2,11.6-11.6V58.4C173.2,51.9,168,46.7,161.6,46.7z"/>
<path class="st1" d="M148,115.1l-8.2-4.7l-8.1-4.7c-0.3-0.1-0.6,0-0.6,0.3v6.4c0,0.2-0.1,0.3-0.3,0.3H93.9c-0.6,0-1.2,0.5-1.2,1.2
	v2.9c0,0.6,0.5,1.2,1.2,1.2h37c0.2,0,0.3,0.1,0.3,0.3v6.4c0,0.3,0.3,0.5,0.6,0.3l8.1-4.7l8.2-4.7C148.3,115.5,148.3,115.2,148,115.1
	z"/>
<path class="st1" d="M97.9,135.5l8.2-4.7l8.1-4.7c0.3-0.1,0.6,0,0.6,0.3v6.7h37.5c0.5,0,1,0.4,1,1v3.3c0,0.5-0.4,1-1,1h-37.5v6.7
	c0,0.3-0.3,0.5-0.6,0.3l-8.1-4.7l-8.2-4.7C97.7,136,97.7,135.6,97.9,135.5z"/>
</svg>
