<?xml version="1.0" encoding="utf-8"?>
<!-- Generator: Adobe Illustrator 25.0.0, SVG Export Plug-In . SVG Version: 6.00 Build 0)  -->
<svg version="1.1" id="Layer_1" xmlns="http://www.w3.org/2000/svg" xmlns:xlink="http://www.w3.org/1999/xlink" x="0px" y="0px"
	 viewBox="0 0 512 512" style="enable-background:new 0 0 512 512;" xml:space="preserve">
<style type="text/css">
	.st0{fill:#5B6ED8;}
	.st1{fill:#445CC1;}
	.st2{fill:#566AC1;}
	.st3{fill:#3954C4;}
	.st4{fill:#6788EF;}
	.st5{fill:none;stroke:#566AC1;stroke-width:12.1789;stroke-linecap:round;stroke-miterlimit:10;}
</style>
<g>
	<g>
		<g>
			<path class="st2" d="M371.8,403.5H167.1c-2.1,0-3.9-1.7-3.9-3.9v-9.2c0-2.1,1.7-3.9,3.9-3.9h187.8c2.1,0,3.9-1.7,3.9-3.9V262.7
				c0-2.1,1.7-3.9,3.9-3.9h9.2c2.1,0,3.9,1.7,3.9,3.9v137C375.7,401.8,373.9,403.5,371.8,403.5z"/>
		</g>
		<g>
			<path class="st2" d="M167.9,403.4h-9.2c-2.1,0-3.9-1.7-3.9-3.9V262.7c0-2.1,1.7-3.9,3.9-3.9h9.2c2.1,0,3.9,1.7,3.9,3.9v136.9
				C171.7,401.7,170,403.4,167.9,403.4z"/>
		</g>
	</g>
	<g>
		<path class="st4" d="M317.3,302.6H213.2c-1.9,0-3.5-1.5-3.5-3.5v-10c0-1.9,1.5-3.5,3.5-3.5h104.1c1.9,0,3.5,1.5,3.5,3.5v10
			C320.7,301,319.2,302.6,317.3,302.6z"/>
	</g>
	<g>
		<path class="st4" d="M317.3,337.9H213.2c-1.9,0-3.5-1.5-3.5-3.5v-10c0-1.9,1.5-3.5,3.5-3.5h104.1c1.9,0,3.5,1.5,3.5,3.5v10
			C320.7,336.4,319.2,337.9,317.3,337.9z"/>
	</g>
	<path class="st2" d="M268,108.2c-1.6-1.6-4.1-1.6-5.6,0l-9.1,9.1L120.6,250c-1.5,1.5-1.6,4.1,0,5.6l6.3,6.3c1.6,1.6,4.1,1.6,5.6,0
		l129.9-129.9c1.6-1.6,4.1-1.6,5.6,0L397.9,262c1.6,1.6,4.1,1.6,5.6,0l6.3-6.3c1.6-1.6,1.6-4.1,0-5.6L268,108.2z"/>
	<g>
		<path class="st2" d="M356.5,214.8l-1.9-54.6c-0.1-1.8,1.3-3.3,3.1-3.3l10.4-0.4c1.8-0.1,3.3,1.3,3.3,3.1l1.9,54.6
			c0.1,1.8-1.3,3.3-3.1,3.3l-10.4,0.4C358.1,218,356.6,216.6,356.5,214.8z"/>
	</g>
</g>
</svg>
