<?xml version="1.0" encoding="utf-8"?>
<!-- Generator: Adobe Illustrator 25.0.0, SVG Export Plug-In . SVG Version: 6.00 Build 0)  -->
<svg version="1.1" id="Layer_1" xmlns="http://www.w3.org/2000/svg" xmlns:xlink="http://www.w3.org/1999/xlink" x="0px" y="0px"
	 viewBox="0 0 512 512" style="enable-background:new 0 0 512 512;" xml:space="preserve">
<style type="text/css">
	.st0{fill:#5B6ED8;}
</style>
<g>
	<path class="st0" d="M353.6,231.2c-2.7-2.7-5.9-5.4-9.4-8.2c-6.2-5.1-13.3-11-15.8-16.1c-0.6-1.3-1-3.2-1.3-5.2l-0.2-1
		c-5.3-29.5-25.9-65.3-58.8-74c-2.4-0.6-4.8-0.9-7.1-1.1c-2-6.7-6.3-12.4-12.2-16.2c-6.6-4.2-14.4-5.7-22.1-4
		c-7.7,1.7-14.2,6.2-18.5,12.8c-3.8,5.9-5.4,12.9-4.4,19.8c-5.5,3.5-10.4,7.8-14.9,13c-14.2,16.3-21.9,38.8-21.9,63.4
		c0,3.3,0.2,6.9,0.5,10.6c0.5,8.2,1.1,17.5-1.1,23.5c-1.7,4.8-4.9,9.2-8.4,13.9c-5.4,7.4-11.5,15.7-12.4,27.3
		c-1.1,13.9,9.4,26.3,24.4,28.8c2.8,0.5,5.7,0.7,8.5,0.7c5.4,0,10.8-0.7,16-1.6c5.2,15.5,19.8,26.3,36.4,26.3c1.3,0,2.7-0.1,4.1-0.2
		c19.2-2,33.6-17.9,34.4-36.6l65.3-8.8c14.2-1.9,25.3-10.9,29.8-24C369.4,259.6,365.1,242.7,353.6,231.2z M220.2,125.9
		c2.2-3.4,5.5-5.7,9.5-6.6c3.9-0.9,8-0.1,11.3,2c1.8,1.2,3.3,2.7,4.5,4.5c-4.8,0.3-9.3,0.8-13.4,1.5c-5,0.9-9.6,2.1-14,3.6
		C218.5,129.2,219.2,127.5,220.2,125.9z M233.5,329.4c-10.7,1.1-20.5-4.9-24.6-14.2c0,0,0.1,0,0.1,0l45.9-6.2
		C253.2,319.6,244.6,328.2,233.5,329.4z M350.9,269.7c-1.6,4.7-6,12.7-18.1,14.3L207.1,301c-3.2,0.4-6.5,1-9.6,1.6
		c-8.6,1.5-17.5,3.1-25.1,1.8c-6.6-1.1-13-6.5-12.5-13.6c0.6-7.5,4.8-13.2,9.7-19.9c3.9-5.3,7.9-10.7,10.3-17.5
		c3.2-8.8,2.5-19.6,1.9-29.2c-0.2-3.5-0.4-6.8-0.4-9.7c0-21.2,6.5-40.4,18.4-54c8.9-10.3,20-16.3,34.9-18.9c5.6-1,11.9-1.5,19.4-1.7
		c1.1,0,2.2,0,3.2,0c2.6,0,5,0.1,7.2,0.7c25.6,6.8,43.8,36.7,48.4,62.7l0.2,0.9c0.5,2.8,1,5.9,2.5,9c3.9,8,12.2,14.8,19.5,20.9
		c3.2,2.6,6.2,5.1,8.4,7.3C351.2,249,354.1,260.2,350.9,269.7z"/>
</g>
</svg>
