<?xml version="1.0" encoding="utf-8"?>
<!-- Generator: Adobe Illustrator 25.0.0, SVG Export Plug-In . SVG Version: 6.00 Build 0)  -->
<svg version="1.1" id="Layer_1" xmlns="http://www.w3.org/2000/svg" xmlns:xlink="http://www.w3.org/1999/xlink" x="0px" y="0px"
	 viewBox="0 0 258.9 280.2" style="enable-background:new 0 0 258.9 280.2;" xml:space="preserve">
<style type="text/css">
	.st0{fill:#FFFFFF;}
</style>
<g>
	<g>
		<path class="st0" d="M243.8,148.2c-3.2-3.2-6.9-6.3-11-9.6c-7.3-6-15.6-12.9-18.5-18.9c-0.7-1.5-1.2-3.7-1.5-6.1l-0.2-1.2
			c-6.2-34.6-30.3-76.5-68.9-86.7c-2.8-0.7-5.6-1.1-8.3-1.3c-2.3-7.8-7.4-14.5-14.3-19c-7.7-4.9-16.9-6.7-25.9-4.7
			s-16.6,7.3-21.7,15C69,22.7,67.1,30.9,68.3,39c-6.4,4.1-12.2,9.1-17.5,15.2c-16.6,19.1-25.7,45.5-25.7,74.3
			c0,3.9,0.2,8.1,0.6,12.4c0.6,9.6,1.3,20.5-1.3,27.5c-2,5.6-5.7,10.8-9.8,16.3c-6.3,8.7-13.5,18.4-14.5,32
			c-1.3,16.3,11,30.8,28.6,33.7c3.3,0.6,6.7,0.8,10,0.8c6.3,0,12.7-0.8,18.7-1.9c6.1,18.2,23.2,30.8,42.6,30.8
			c1.5,0,3.2-0.1,4.8-0.2c22.5-2.3,39.4-21,40.3-42.9l76.5-10.3c16.6-2.2,29.6-12.8,34.9-28.1C262.3,181.5,257.3,161.7,243.8,148.2z
			 M87.5,24.8c2.6-4,6.4-6.7,11.1-7.7c4.6-1.1,9.4-0.1,13.2,2.3c2.1,1.4,3.9,3.2,5.3,5.3c-5.6,0.4-10.9,0.9-15.7,1.8
			c-5.9,1.1-11.2,2.5-16.4,4.2C85.5,28.7,86.3,26.7,87.5,24.8z M103.1,263.2c-12.5,1.3-24-5.7-28.8-16.6h0.1l53.8-7.3
			C126.2,251.8,116.1,261.8,103.1,263.2z M240.6,193.3c-1.9,5.5-7,14.9-21.2,16.8L72.1,230c-3.7,0.5-7.6,1.2-11.2,1.9
			c-10.1,1.8-20.5,3.6-29.4,2.1c-7.7-1.3-15.2-7.6-14.6-15.9c0.7-8.8,5.6-15.5,11.4-23.3c4.6-6.2,9.3-12.5,12.1-20.5
			c3.7-10.3,2.9-23,2.2-34.2c-0.2-4.1-0.5-8-0.5-11.4c0-24.8,7.6-47.3,21.6-63.3C74,53.3,87,46.3,104.5,43.2
			c6.6-1.2,13.9-1.8,22.7-2c1.3,0,2.6,0,3.7,0c3,0,5.9,0.1,8.4,0.8c30,8,51.3,43,56.7,73.5l0.2,1.1c0.6,3.3,1.2,6.9,2.9,10.5
			c4.6,9.4,14.3,17.3,22.8,24.5c3.7,3,7.3,6,9.8,8.6C241,169,244.4,182.2,240.6,193.3z"/>
	</g>
</g>
</svg>
