<?xml version="1.0" encoding="utf-8"?>
<!-- Generator: Adobe Illustrator 25.0.0, SVG Export Plug-In . SVG Version: 6.00 Build 0)  -->
<svg version="1.1" id="Layer_1" xmlns="http://www.w3.org/2000/svg" xmlns:xlink="http://www.w3.org/1999/xlink" x="0px" y="0px"
	 viewBox="0 0 246.1 246.1" style="enable-background:new 0 0 246.1 246.1;" xml:space="preserve">
<style type="text/css">
	.st0{fill:#5B6ED8;}
	.st1{fill:none;stroke:#5CD68E;stroke-width:6.3141;stroke-linecap:round;stroke-linejoin:round;stroke-miterlimit:10;}
	.st2{fill:none;stroke:#5B6ED8;stroke-width:6.3141;stroke-linecap:round;stroke-linejoin:round;stroke-miterlimit:10;}
	.st3{fill:#FFFFFF;}
	.st4{fill:#455CBF;}
</style>
<g>
	<path class="st0" d="M213.6,188.7h-181c-9.3,0-16.8-7.5-16.8-16.8V74c0-9.3,7.5-16.8,16.8-16.8h181c9.3,0,16.8,7.5,16.8,16.8v97.8
		C230.4,181.1,222.8,188.7,213.6,188.7z M32.5,65.2c-4.9,0-8.8,4-8.8,8.8v97.8c0,4.9,4,8.8,8.8,8.8h181c4.9,0,8.8-4,8.8-8.8V74
		c0-4.9-4-8.8-8.8-8.8H32.5z"/>
</g>
<g>
	<path class="st0" d="M172.2,139.1c-8.9,0-16.1-7.2-16.1-16.1s7.2-16.1,16.1-16.1s16.1,7.2,16.1,16.1S181.1,139.1,172.2,139.1z
		 M172.2,114c-5,0-9.1,4.1-9.1,9.1c0,5,4.1,9.1,9.1,9.1s9.1-4.1,9.1-9.1C181.3,118,177.2,114,172.2,114z"/>
</g>
<g>
	<path class="st0" d="M203,165.2h-7c0-13.1-10.7-23.8-23.8-23.8s-23.8,10.7-23.8,23.8h-7c0-17,13.8-30.8,30.8-30.8
		C189.2,134.3,203,148.2,203,165.2z"/>
</g>
<g>
	<path class="st0" d="M200.5,166.3h-56.7c-3.9,0-7.1-3.2-7.1-7.1v-56.7c0-3.9,3.2-7.1,7.1-7.1h56.7c3.9,0,7.1,3.2,7.1,7.1v56.7
		C207.7,163.1,204.4,166.3,200.5,166.3z M143.9,102.4c-0.1,0-0.1,0.1-0.1,0.1v56.7c0,0.1,0.1,0.1,0.1,0.1h56.7
		c0.1,0,0.1-0.1,0.1-0.1v-56.7c0-0.1-0.1-0.1-0.1-0.1H143.9z"/>
</g>
<g>
	<path class="st0" d="M113.6,114.5H42c-1.1,0-2.1-0.9-2.1-2.1v-3.9c0-1.1,0.9-2.1,2.1-2.1h71.6c1.1,0,2.1,0.9,2.1,2.1v3.9
		C115.7,113.5,114.7,114.5,113.6,114.5z"/>
</g>
<g>
	<path class="st0" d="M113.6,134.9H42c-1.1,0-2.1-0.9-2.1-2.1v-3.9c0-1.1,0.9-2.1,2.1-2.1h71.6c1.1,0,2.1,0.9,2.1,2.1v3.9
		C115.7,133.9,114.7,134.9,113.6,134.9z"/>
</g>
<g>
	<path class="st0" d="M113.6,155.2H42c-1.1,0-2.1-0.9-2.1-2.1v-3.9c0-1.1,0.9-2.1,2.1-2.1h71.6c1.1,0,2.1,0.9,2.1,2.1v3.9
		C115.7,154.3,114.7,155.2,113.6,155.2z"/>
</g>
</svg>
