<?xml version="1.0" encoding="utf-8"?>
<!-- Generator: Adobe Illustrator 25.0.0, SVG Export Plug-In . SVG Version: 6.00 Build 0)  -->
<svg version="1.1" id="Layer_1" xmlns="http://www.w3.org/2000/svg" xmlns:xlink="http://www.w3.org/1999/xlink" x="0px" y="0px"
	 viewBox="0 0 246.1 246.1" style="enable-background:new 0 0 246.1 246.1;" xml:space="preserve">
<style type="text/css">
	.st0{fill:#5B6ED8;}
	.st1{fill:none;stroke:#5CD68E;stroke-width:6.3141;stroke-linecap:round;stroke-linejoin:round;stroke-miterlimit:10;}
	.st2{fill:none;stroke:#5B6ED8;stroke-width:6.3141;stroke-linecap:round;stroke-linejoin:round;stroke-miterlimit:10;}
	.st3{fill:#FFFFFF;}
	.st4{fill:#455CBF;}
</style>
<g>
	<g>
		<path class="st0" d="M6.2,70.9l16.3,11.3c1.1,0.8,2.3,1.1,3.7,1.1c1.9,0,4.2-1.1,5.3-2.6l0.3-0.8l42.8,30c1.9,1.5,4.2,2.3,6.8,2.3
			c0.8,0,1.1,0,1.9,0l10.7-1.5c-0.3,0.8-0.8,1.1-1.1,1.9c-1.1,2.6-0.8,5.7,0.3,7.9c1.1,2.6,3.4,4.5,6.1,5.7c1.1,0.3,2.6,0.8,3.7,0.8
			c1.5,0,3.1-0.3,4.5-1.1l17.4-7.9c2.3-0.8,3.7-2.6,5-4.5l61.9,43.6c0.8,0.3,1.5,0.8,2.3,0.8c1.1,0,2.3-0.3,3.1-1.5
			c10.7-14.9,34.1-48.9,44.7-64.1c1.1-1.9,0.8-4.2-0.8-5.3L139.1,15.4c-1.9-1.1-4.2-0.8-5.3,0.8l-6.5,9.5l-1.1-1.1
			c-2.3-3.7-6.5-6.5-11-6.1l-42.8,2.3c0-0.8,0-1.5,0-2.3c-0.3-1.5-1.1-3.1-2.6-4.2L53.6,2.9c-3.1-1.9-6.8-1.5-9,1.5L4.3,62.2
			C2.5,64.8,3.2,69,6.2,70.9z M121.5,111.1l-17.4,7.6c-0.8,0.3-1.5,0.3-2.3,0c-0.8-0.3-1.5-0.8-1.9-1.5c-0.3-0.8-0.3-1.5,0-2.3
			c0.3-0.8,0.8-1.5,1.5-1.9l13.7-6.5l4.2-0.8l3.7,2.6C123.2,110,122.4,110.7,121.5,111.1z M193.2,148.6l-63-43.9l1.9-0.3
			c7.6-1.1,13.2-6.5,12.9-14.9c-0.3-7.3-6.1-13.2-13.2-14l-28.4-2.6l17.3-24.7l95.9,67.2L193.2,148.6z M220.9,108.9l-95.6-66.7
			l4.5-6.5l95.6,66.7C225.5,102.7,220.5,109.2,220.9,108.9z M138.2,23.9l95.6,67.2l-3.7,5.3l-95.6-67.2L138.2,23.9z M116.2,25.4
			c1.5,0,3.1,0.8,3.7,2.3l2.6,5L95.1,72.1h-1.9c-2.3,0-3.7,1.5-4.2,3.4c0,1.9,1.5,3.7,3.4,4.2l39.1,3.4c3.1,0.3,6.1,2.6,6.1,6.5
			c0,4.5-2.6,6.1-6.8,7.3c-9.9,1.5-23.1,3.7-48.6,7.6c-1.1,0-2.3,0-3.1-0.8l-42.8-30L68.1,28L116.2,25.4z M50.7,9.4L65,19.6
			c-0.3,0.3-41.7,59.6-39.1,55.7L11.6,65.1L50.7,9.4z"/>
	</g>
	<g>
		<path class="st0" d="M160.6,99c-1.9-1.1-4.2-0.8-5.3,0.8c-1.1,1.9-0.8,4.2,0.8,5.3l8.7,6.1c1.9,1.1,4.2,0.8,5.3-0.8
			c1.1-1.9,0.8-4.2-0.8-5.3L160.6,99z"/>
	</g>
	<g>
		<path class="st0" d="M192.1,121l-8.7-6.1c-1.9-1.1-4.2-0.8-5.3,0.8c-1.1,1.9-0.8,4.2,0.8,5.3l8.7,6.1c1.9,1.1,4.2,0.8,5.3-0.8
			C194.1,124.7,193.6,122.1,192.1,121z"/>
	</g>
	<g>
		<path class="st0" d="M241,172.2c-3.7-6.8-11.8-9.9-18.9-7.6l-49.7,15.2c-6.5-9-24.2-8.7-26.5-8.7c-20,0.8-40.5-6.1-41-6.1
			c-20.5-6.5-38.3,7.6-39.1,7.9l-0.3,0.3c-8.4,8.7-45.9,23.1-59.6,27.6c-1.9,0.8-3.1,2.6-2.3,5c0.8,1.9,2.6,3.1,5,2.3
			c1.9-0.8,50.4-17.4,62.2-29.2c1.5-1.1,16.3-11.8,31.8-6.8c0.8,0.3,22,7.3,43.6,6.5c27.6-1.1,28.4,19.4,2.6,16.3
			c-16-0.8-36-0.8-40.2,2.3c-1.5,1.1-1.9,3.7-0.8,5.3c1.1,1.6,3.4,1.9,5.3,0.8c3.1-1.5,20.5-1.5,35.2-0.8c9.9,1.1,17.4-0.3,22-4.5
			c3.1-3.1,4.5-6.5,4.5-11l49.3-15.2c4.2-1.1,8.4,0.3,10.2,4.2c1.5,2.6,0.3,5.7-1.9,6.8l-68.6,37.1c-4.2,2.3-8.4,3.1-12.9,2.6
			c-25.8-2.6-87.7-6.5-108,15.5c-1.5,1.5-1.5,3.7,0,5.3c1.5,1.5,3.7,1.5,5.3,0c18.6-19.7,82.7-15.2,102.1-12.9
			c6.1,0.8,12.1-0.8,17.4-3.4l68.6-37.1C242.2,186.2,244.8,178.6,241,172.2z"/>
	</g>
</g>
</svg>
