<?xml version="1.0" encoding="utf-8"?>
<!-- Generator: Adobe Illustrator 25.0.0, SVG Export Plug-In . SVG Version: 6.00 Build 0)  -->
<svg version="1.1" id="Layer_1" xmlns="http://www.w3.org/2000/svg" xmlns:xlink="http://www.w3.org/1999/xlink" x="0px" y="0px"
	 viewBox="0 0 246.1 246.1" style="enable-background:new 0 0 246.1 246.1;" xml:space="preserve">
<style type="text/css">
	.st0{fill:#5B6ED8;}
	.st1{fill:#FFFFFF;}
</style>
<path class="st0" d="M175,246.1H71.1C31.9,246.1,0,214.3,0,175V71.1C0,31.9,31.9,0,71.1,0H175c39.3,0,71.1,31.9,71.1,71.1V175
	C246.1,214.3,214.3,246.1,175,246.1z"/>
<g>
	<g>
		<path class="st1" d="M52.1,89.3l10.1,7c0.7,0.5,1.4,0.7,2.3,0.7c1.2,0,2.6-0.7,3.3-1.6l0.2-0.5l26.5,18.6c1.2,0.9,2.6,1.4,4.2,1.4
			c0.5,0,0.7,0,1.2,0l6.6-0.9c-0.2,0.5-0.5,0.7-0.7,1.2c-0.7,1.6-0.5,3.5,0.2,4.9c0.7,1.6,2.1,2.8,3.8,3.5c0.7,0.2,1.6,0.5,2.3,0.5
			c0.9,0,1.9-0.2,2.8-0.7l10.8-4.9c1.4-0.5,2.3-1.6,3.1-2.8l38.3,27c0.5,0.2,0.9,0.5,1.4,0.5c0.7,0,1.4-0.2,1.9-0.9
			c6.6-9.2,21.1-30.3,27.7-39.7c0.7-1.2,0.5-2.6-0.5-3.3l-63.2-44.4c-1.2-0.7-2.6-0.5-3.3,0.5l-4,5.9l-0.7-0.7c-1.4-2.3-4-4-6.8-3.8
			l-26.5,1.4c0-0.5,0-0.9,0-1.4c-0.2-0.9-0.7-1.9-1.6-2.6l-10.1-7c-1.9-1.2-4.2-0.9-5.6,0.9L50.9,83.9
			C49.8,85.5,50.2,88.1,52.1,89.3z M123.5,114.2l-10.8,4.7c-0.5,0.2-0.9,0.2-1.4,0c-0.5-0.2-0.9-0.5-1.2-0.9c-0.2-0.5-0.2-0.9,0-1.4
			c0.2-0.5,0.5-0.9,0.9-1.2l8.5-4l2.6-0.5l2.3,1.6C124.5,113.5,124,113.9,123.5,114.2z M167.9,137.4l-39-27.2l1.2-0.2
			c4.7-0.7,8.2-4,8-9.2c-0.2-4.5-3.8-8.2-8.2-8.7l-17.6-1.6L123,75.2l59.4,41.6L167.9,137.4z M185,112.8l-59.2-41.3l2.8-4l59.2,41.3
			C187.9,109,184.8,113,185,112.8z M133.8,60.2l59.2,41.6l-2.3,3.3l-59.2-41.6L133.8,60.2z M120.2,61.1c0.9,0,1.9,0.5,2.3,1.4
			l1.6,3.1L107.1,90h-1.2c-1.4,0-2.3,0.9-2.6,2.1c0,1.2,0.9,2.3,2.1,2.6l24.2,2.1c1.9,0.2,3.8,1.6,3.8,4c0,2.8-1.6,3.8-4.2,4.5
			c-6.1,0.9-14.3,2.3-30.1,4.7c-0.7,0-1.4,0-1.9-0.5L70.7,90.9l19.7-28.2L120.2,61.1z M79.6,51.2l8.9,6.3
			c-0.2,0.2-25.8,36.9-24.2,34.5l-8.9-6.3L79.6,51.2z"/>
	</g>
	<g>
		<path class="st1" d="M147.7,106.7c-1.2-0.7-2.6-0.5-3.3,0.5c-0.7,1.2-0.5,2.6,0.5,3.3l5.4,3.8c1.2,0.7,2.6,0.5,3.3-0.5
			c0.7-1.2,0.5-2.6-0.5-3.3L147.7,106.7z"/>
	</g>
	<g>
		<path class="st1" d="M167.2,120.3l-5.4-3.8c-1.2-0.7-2.6-0.5-3.3,0.5c-0.7,1.2-0.5,2.6,0.5,3.3l5.4,3.8c1.2,0.7,2.6,0.5,3.3-0.5
			C168.4,122.6,168.1,121,167.2,120.3z"/>
	</g>
	<g>
		<path class="st1" d="M197.5,152c-2.3-4.2-7.3-6.1-11.7-4.7l-30.8,9.4c-4-5.6-15-5.4-16.4-5.4c-12.4,0.5-25.1-3.8-25.4-3.8
			c-12.7-4-23.7,4.7-24.2,4.9l-0.2,0.2c-5.2,5.4-28.4,14.3-36.9,17.1c-1.2,0.5-1.9,1.6-1.4,3.1c0.5,1.2,1.6,1.9,3.1,1.4
			c1.2-0.5,31.2-10.8,38.5-18.1c0.9-0.7,10.1-7.3,19.7-4.2c0.5,0.2,13.6,4.5,27,4c17.1-0.7,17.6,12,1.6,10.1
			c-9.9-0.5-22.3-0.5-24.9,1.4c-0.9,0.7-1.2,2.3-0.5,3.3s2.1,1.2,3.3,0.5c1.9-0.9,12.7-0.9,21.8-0.5c6.1,0.7,10.8-0.2,13.6-2.8
			c1.9-1.9,2.8-4,2.8-6.8l30.5-9.4c2.6-0.7,5.2,0.2,6.3,2.6c0.9,1.6,0.2,3.5-1.2,4.2l-42.5,23c-2.6,1.4-5.2,1.9-8,1.6
			c-16-1.6-54.3-4-66.9,9.6c-0.9,0.9-0.9,2.3,0,3.3c0.9,0.9,2.3,0.9,3.3,0c11.5-12.2,51.2-9.4,63.2-8c3.8,0.5,7.5-0.5,10.8-2.1
			l42.5-23C198.2,160.7,199.8,156,197.5,152z"/>
	</g>
</g>
</svg>
