<?xml version="1.0" encoding="utf-8"?>
<!-- Generator: Adobe Illustrator 25.0.0, SVG Export Plug-In . SVG Version: 6.00 Build 0)  -->
<svg version="1.1" id="Layer_1" xmlns="http://www.w3.org/2000/svg" xmlns:xlink="http://www.w3.org/1999/xlink" x="0px" y="0px"
	 viewBox="0 0 512 512" style="enable-background:new 0 0 512 512;" xml:space="preserve">
<style type="text/css">
	.st0{fill:#5B6ED8;}
	.st1{fill:#445CC1;}
	.st2{fill:#566AC1;}
	.st3{fill:#3954C4;}
	.st4{fill:#6788EF;}
	.st5{fill:none;stroke:#566AC1;stroke-width:12.1789;stroke-linecap:round;stroke-miterlimit:10;}
</style>
<g>
	<g>
		<path class="st2" d="M259.3,110.3c-61.2-0.8-113.8,37.3-134.4,91.2c-0.7,1.8-0.2,3.9,1.3,5.1c1.8,1.6,3.7,3.2,5.5,4.7
			c2.4,2.1,6.2,1.1,7.3-1.9c17.5-48.3,63.7-83,117.9-83.2c69.1-0.3,125.9,55.8,126.4,124.9c0.5,69.9-56.1,126.9-125.9,126.9
			c-69.4,0-125.9-56.5-125.9-125.9c0-5.4,0.3-10.6,1-15.8c0.2-1.5-0.3-2.9-1.4-4c-2-1.9-4.1-3.8-6.2-5.6c-2.7-2.4-7-0.9-7.6,2.7
			c-1.2,7.4-1.8,15-1.8,22.7c0,78.2,63.7,141.9,141.9,141.9c78.6,0,142.5-64.3,141.9-143C398.7,174.2,336.1,111.4,259.3,110.3z"/>
	</g>
	<g>
		<path class="st2" d="M261.3,407l-2.5-18.5c-0.4-3.1,1.8-5.9,4.8-6.3l4.7-0.6c3.1-0.4,5.9,1.8,6.3,4.8l2.5,18.5
			c0.4,3.1-1.8,5.9-4.8,6.3l-4.7,0.6C264.5,412.3,261.7,410.1,261.3,407z"/>
	</g>
	<g>
		<path class="st2" d="M338.4,439.4H192.1c-2,0-3.7-1.6-3.7-3.7v-8.6c0-2,1.6-3.7,3.7-3.7h146.2c2,0,3.7,1.6,3.7,3.7v8.6
			C342,437.8,340.4,439.4,338.4,439.4z"/>
	</g>
	<g>
		<path class="st4" d="M258.7,318.9c-10.5,0-20.8-2.9-29.7-8.5c-19.8-12.3-29.6-36.2-24.4-59.4l14.9-66.7l40.8,59l30.7-29.3
			l14.3,27.1c8.4,16,8.2,34.9-0.6,50.7c-8.6,15.5-24.3,25.6-42,26.8C261.4,318.9,260.1,318.9,258.7,318.9z M229.3,234.5l-4.7,21
			c-3.3,14.7,2.8,29.8,15.2,37.5c6.4,4,13.9,5.8,21.5,5.3c10.8-0.8,20.1-6.7,25.5-16.3c5.4-9.7,5.6-21.4,0.4-31.2l-1.7-3.1
			L266,266.3c-2.2,2.1-5.2,3.1-8.3,2.8c-3-0.3-5.8-1.9-7.5-4.5L229.3,234.5z M267,253L267,253C267,253,267,253,267,253z
			 M251.8,251.5C251.8,251.5,251.8,251.5,251.8,251.5L251.8,251.5z"/>
	</g>
</g>
</svg>
