<?xml version="1.0" encoding="utf-8"?>
<!-- Generator: Adobe Illustrator 25.0.0, SVG Export Plug-In . SVG Version: 6.00 Build 0)  -->
<svg version="1.1" id="Layer_1" xmlns="http://www.w3.org/2000/svg" xmlns:xlink="http://www.w3.org/1999/xlink" x="0px" y="0px"
	 viewBox="0 0 512 512" style="enable-background:new 0 0 512 512;" xml:space="preserve">
<style type="text/css">
	.st0{fill:#5B6ED8;}
	.st1{fill:#445CC1;}
	.st2{fill:#566AC1;}
	.st3{fill:#3954C4;}
	.st4{fill:#6788EF;}
	.st5{fill:none;stroke:#566AC1;stroke-width:12.1789;stroke-linecap:round;stroke-miterlimit:10;}
</style>
<g>
	<path class="st0" d="M340.1,76.3H171.8c-14,0-25.4,11.3-25.4,25.4v49.8c0,2.8,2.3,5,5,5h7.5c2.8,0,5-2.3,5-5v-49.8
		c0-4.3,3.5-7.8,7.8-7.8h35.2v5.4c0,8.4,6.8,15.2,15.2,15.2h58.9c8.4,0,15.2-6.8,15.2-15.2v-5.4h43.8c4.3,0,7.8,3.5,7.8,7.8v282.6
		c0,4.3-3.5,7.8-7.8,7.8H171.9c-4.3,0-7.8-3.5-7.8-7.8v-203c0-4.5-3.6-8.2-8.2-8.2h-1.3c-4.5,0-8.2,3.6-8.2,8.2v203
		c0,14,11.3,25.4,25.4,25.4h168.2c14,0,25.4-11.3,25.4-25.4V101.7C365.5,87.6,354.1,76.3,340.1,76.3z"/>
	<path class="st1" d="M228.6,354L228.6,354c-6.6,0-12-5.4-12-12v-89.8c0-6.6,5.4-12,12-12h0c6.6,0,12,5.4,12,12v89.8
		C240.6,348.7,235.2,354,228.6,354z"/>
	<path class="st1" d="M292.5,353.2L292.5,353.2c-6.6,0-12-5.4-12-12V173.9c0-6.6,5.4-12,12-12h0c6.6,0,12,5.4,12,12v167.3
		C304.5,347.9,299.1,353.2,292.5,353.2z"/>
</g>
</svg>
