<?xml version="1.0" encoding="utf-8"?>
<!-- Generator: Adobe Illustrator 25.0.0, SVG Export Plug-In . SVG Version: 6.00 Build 0)  -->
<svg version="1.1" id="Layer_1" xmlns="http://www.w3.org/2000/svg" xmlns:xlink="http://www.w3.org/1999/xlink" x="0px" y="0px"
	 viewBox="0 0 512 512" style="enable-background:new 0 0 512 512;" xml:space="preserve">
<style type="text/css">
	.st0{fill:#566AC1;}
</style>
<g>
	<path class="st0" d="M223.8,191.6c0,8.4,0,16.8,0,25.2c0,5-1.9,6.9-6.8,6.9c-17,0-34,0-51,0c-4.8,0-6.8-2-6.8-6.7
		c0-17.1,0-34.2,0-51.3c0-4.6,2-6.6,6.5-6.6c17.2,0,34.4,0,51.6,0c4.5,0,6.4,2.1,6.5,6.6C223.8,174.4,223.8,183,223.8,191.6z
		 M170.2,170.1c0,14.4,0,28.5,0,42.7c14.3,0,28.4,0,42.7,0c0-14.3,0-28.4,0-42.7C198.6,170.1,184.6,170.1,170.2,170.1z"/>
	<path class="st0" d="M288.2,191.7c0-8.5,0-17,0-25.5c0-5.2,1.9-7.1,7-7.1c16.9,0,33.8,0,50.7,0c5,0,6.9,1.9,6.9,6.8c0,17,0,34,0,51
		c0,4.9-2,6.8-7,6.8c-16.9,0-33.8,0-50.7,0c-5,0-6.9-1.9-6.9-6.9C288.2,208.5,288.2,200.1,288.2,191.7z M299.2,170.2
		c0,14.3,0,28.4,0,42.7c14.3,0,28.4,0,42.7,0c0-14.3,0-28.4,0-42.7C327.5,170.2,313.4,170.2,299.2,170.2z"/>
	<path class="st0" d="M223.8,320.6c0,8.4,0,16.8,0,25.2c0,5.1-1.9,7-7.1,7c-16.8,0-33.6,0-50.4,0c-5.4,0-7.2-1.8-7.2-7.2
		c0-16.8,0-33.6,0-50.4c0-5.2,1.9-7,7-7c16.9,0,33.8,0,50.7,0c4.9,0,6.9,1.9,6.9,6.9C223.8,303.6,223.8,312.1,223.8,320.6z
		 M212.8,341.9c0-14.5,0-28.6,0-42.7c-14.3,0-28.4,0-42.6,0c0,14.4,0,28.5,0,42.7C184.5,341.9,198.5,341.9,212.8,341.9z"/>
	<path class="st0" d="M374.3,137.7c-5.6,0-10.6,0-15.6,0c-14.3,0-28.5,0-42.8,0c-4.7,0-7.2-3.5-5.6-7.4c1.1-2.6,3.3-3.3,5.9-3.3
		c7.1,0,14.3,0,21.4,0c13.5,0,27.1,0,40.6,0c5,0,6.9,1.9,6.9,6.8c0,20.6,0,41.1,0,61.7c0,0.6,0,1.3-0.1,1.9
		c-0.4,3.1-2.6,4.9-5.6,4.8c-3-0.1-5-2.1-5.1-5.3c-0.1-8.7,0-17.4,0-26.1c0-9.8,0-19.5,0-29.3C374.3,140.3,374.3,139.2,374.3,137.7z
		"/>
	<path class="st0" d="M374.3,374.3c0-1.6,0-2.8,0-4.1c0-17.5,0-35.1,0-52.6c0-1,0-2.1,0.1-3.1c0.3-2.8,2.2-4.6,5-4.7
		c2.9-0.1,5.2,1.6,5.6,4.5c0.3,1.9,0.1,3.8,0.1,5.7c0,19.3,0,38.6,0,57.9c0,5.3-1.9,7.2-7.2,7.2c-20.4,0-40.7,0-61.1,0
		c-1.2,0-2.5-0.1-3.7-0.5c-2.5-0.9-3.4-3-3.2-5.5c0.3-2.6,1.7-4.3,4.3-4.6c1.1-0.1,2.3-0.1,3.5-0.1c17.5,0,35.1,0,52.6,0
		C371.5,374.3,372.7,374.3,374.3,374.3z"/>
	<path class="st0" d="M137.7,137.7c0,8,0,15.5,0,22.9c0,12,0,23.9,0,35.9c0,4.5-3.9,7-7.7,5.2c-2.4-1.2-3-3.3-3-5.8
		c0-7.9,0-15.7,0-23.6c0-12.7,0-25.4,0-38.1c0-5.4,1.8-7.2,7.2-7.2c20.4,0,40.7,0,61.1,0c0.6,0,1.3,0,1.9,0c3.3,0.3,5.3,2.5,5.1,5.6
		c-0.1,3-2.1,5-5.3,5c-8.8,0.1-17.6,0-26.4,0c-9.7,0-19.3,0-29,0C140.3,137.7,139.2,137.7,137.7,137.7z"/>
	<path class="st0" d="M137.7,374.3c1.6,0,2.9,0,4.1,0c18,0,36.1,0,54.1,0c4.9,0,7.5,3.5,5.8,7.5c-1.2,2.8-3.6,3.2-6.3,3.2
		c-14.6,0-29.2,0-43.8,0c-6,0-12,0-17.9,0c-4.8,0-6.8-1.9-6.8-6.6c0-20.8,0-41.6,0-62.3c0-4,2-6.3,5.4-6.3c3.4,0,5.3,2.2,5.3,6.4
		c0,17.9,0,35.9,0,53.8C137.7,371.3,137.7,372.5,137.7,374.3z"/>
	<path class="st0" d="M299,277.5c0,5.2,0,10,0,14.8c0,4.9-1.8,6.7-6.6,6.7c-3.1,0-6.3,0.1-9.4,0c-3.3-0.1-5.4-2.2-5.4-5.3
		c0-3,2.1-5.2,5.4-5.4c1.6-0.1,3.3,0,5.3,0c0-5,0-9.7,0-14.4c0-5.3,1.8-7.1,7.2-7.1c4.6,0,9.2,0,14.3,0c0-1.4,0-2.6,0-3.8
		c0-7.2,0-14.5,0-21.7c0-4.8,1.9-6.6,6.7-6.7c3.1,0,6.3-0.1,9.4,0c3.2,0.1,5.1,2,5.3,5c0.1,3.2-1.7,5.4-5,5.6c-1.7,0.1-3.5,0-5.6,0
		c0,6.4,0,12.5,0,18.5c0,2.5,0,5,0,7.5c-0.1,4.3-2,6.1-6.2,6.2C309.3,277.5,304.4,277.5,299,277.5z"/>
	<path class="st0" d="M256.1,223.8c0,7.3,0,14.2,0,21.5c1.8,0,3.5-0.1,5.3,0c3.2,0.1,5.2,2.1,5.3,5.1c0.1,3.1-1.9,5.5-5.1,5.6
		c-7.2,0.1-14.5,0.1-21.7,0c-3.3,0-5.3-2.3-5.3-5.4c0-3.1,2.1-5.1,5.4-5.2c1.6-0.1,3.1,0,5.2,0c0-1.2,0-2.3,0-3.4
		c0-7.5,0-14.9,0-22.4c0-4.6,1.8-6.4,6.5-6.5c6.5,0,13,0,19.5,0c4,0,6.1,1.8,6.1,5.2c0.1,3.4-2.1,5.5-6.2,5.6
		C266.3,223.8,261.4,223.8,256.1,223.8z"/>
	<path class="st0" d="M277.5,342c0-4.7,0-9.1,0-13.5c0-6.5,1.4-8,7.9-8.1c0.8,0,1.6-0.1,2.9-0.2c0-1.7-0.1-3.4,0-5
		c0.2-3.5,2.4-5.6,5.6-5.5c3.1,0.1,5,2.2,5.1,5.6c0.1,3.1,0.1,6.3,0,9.4c-0.1,4.5-1.8,6.3-6.3,6.4c-1.3,0-2.7,0-4.5,0
		c0,5.1,0,9.9,0,14.7c0,5-1.8,6.9-6.8,6.9c-9.9,0-19.7,0.1-29.6,0c-1.6,0-3.8-0.3-4.6-1.4c-1.1-1.5-1.8-3.8-1.6-5.6
		c0.3-2.6,2.5-3.7,5.1-3.7c7.7,0,15.3,0,23,0C274.9,342,276,342,277.5,342z"/>
	<path class="st0" d="M213,266.7c0-5.3,0-10.2,0-15.1c0-4.2,1.9-6.3,5.3-6.3c3.4,0,5.4,2.3,5.4,6.3c0,4.9,0,9.8,0,15.1
		c5.4,0,10.5-0.1,15.6,0c3.9,0.1,6.4,2.8,5.8,6.2c-0.5,2.8-2.2,4.5-5.2,4.5c-14.4,0-28.8,0.1-43.2,0c-3.2,0-5.1-2.1-5.2-5.2
		c-0.1-3.2,1.8-5.3,5.2-5.5c2.6-0.1,5.2,0,7.9,0C207.3,266.7,209.9,266.7,213,266.7z"/>
	<path class="st0" d="M256,299c0-5.5-0.1-10.7,0-16c0.1-4.3,4.1-6.9,7.6-4.8c1.4,0.9,2.9,3,2.9,4.7c0.3,10.7,0.2,21.4,0.1,32.1
		c0,3.4-2.1,5.4-5.3,5.4c-3.2,0-5.2-1.9-5.4-5.3c-0.1-1.7,0-3.3,0-5.2c-3.6,0-7,0-10.8,0c0,1.8,0.1,3.5,0,5.1
		c-0.2,3.4-2.2,5.3-5.3,5.3c-3.3,0-5.3-2-5.3-5.6c-0.1-3.3-0.1-6.5,0-9.8c0.1-4,2-5.9,6.1-6C245.6,298.9,250.6,299,256,299z"/>
	<path class="st0" d="M342,299c-8.4,0-16.3,0-24.3,0c-5.6,0-7.9-1.6-7.9-5.3c0-3.8,2.4-5.4,7.9-5.4c9.2,0,18.5,0,27.7,0
		c5.7,0,7.4,1.7,7.5,7.6c0,5.8,0,11.5,0,17.3c0,1,0,2.1-0.2,3.1c-0.5,2.8-2.5,4.3-5.4,4.2c-2.8-0.1-4.9-1.7-5-4.6
		c-0.2-4.3-0.1-8.6-0.1-12.9C342,301.7,342,300.5,342,299z"/>
	<path class="st0" d="M266.7,180.7c0,5.2,0,10,0,14.8c0,4.8-1.9,6.7-6.6,6.8c-6.4,0.1-12.8,0.1-19.2-0.1c-1.6,0-3.8-0.4-4.5-1.5
		c-1.1-1.5-1.6-3.8-1.4-5.7c0.3-2.2,2.2-3.5,4.6-3.5c5.3,0,10.7,0,16.4,0c0-5.1,0-9.9,0-14.6c0-5.2,1.8-6.9,7-7c3,0,6.1-0.1,9.1,0.1
		c3.4,0.2,5.3,2.3,5.3,5.4c0,3-1.9,5-5.1,5.2C270.5,180.8,268.8,180.7,266.7,180.7z"/>
	<path class="st0" d="M169.9,245.3c5.5,0,10.5,0,15.4,0c3.9,0,6,1.9,6.1,5.2c0.1,3.4-2.1,5.5-6.1,5.5c-4.9,0-9.8,0-15.3,0
		c0,4,0,7.8,0,11.6c0,1.8,0,3.6-0.2,5.3c-0.3,2.8-2.2,4.2-4.9,4.4c-2.8,0.2-4.9-1.4-5.5-4.1c-0.2-0.7-0.2-1.5-0.2-2.2
		c0-10.1,0-20.1,0-30.2c0-2.6,0.6-4.8,3.3-5.9c3.4-1.4,7,0.6,7.4,4.3C170,241.1,169.9,243,169.9,245.3z"/>
	<path class="st0" d="M320.5,342.1c0-5.2-0.1-9.9,0-14.6c0-1.5,0.2-3.2,0.9-4.5c1.2-2.2,3.4-2.7,5.7-2.2c2.5,0.5,3.9,2.1,4,4.6
		c0.1,4.3,0.1,8.6,0.1,12.9c0,1.1,0,2.2,0,3.8c5.6,0,10.8,0,16,0c2.3,0,4.5,0.9,4.9,3.2c0.3,1.9,0.1,4.4-1,5.8
		c-1,1.2-3.5,1.7-5.4,1.7c-8.2,0.2-16.4,0.1-24.6,0.1c-2.2,0-4.4,0.1-6.6-0.2c-3.6-0.4-5.4-3.4-4.5-6.8c0.6-2.3,2.2-3.5,4.5-3.7
		C316.4,342,318.1,342.1,320.5,342.1z"/>
	<path class="st0" d="M342,266.7c0-5.3-0.2-10.3,0.1-15.3c0.1-1.7,0.8-3.9,2-5c3-2.8,8.3-0.8,8.5,3.4c0.3,7.5,0.3,15.1,0.1,22.6
		c-0.1,3.1-2.3,4.8-5.5,4.9c-3.5,0.1-6.9,0.1-10.4,0c-3.4-0.1-5.4-2.1-5.4-5.3c0-3.2,2-5.2,5.3-5.4C338.3,266.7,340,266.7,342,266.7
		z"/>
	<path class="st0" d="M288.2,245c0,2,0.1,4,0,6c-0.2,3-2.2,4.9-5,5c-2.9,0.1-5.4-1.8-5.6-4.8c-0.2-4-0.2-8,0-11.9
		c0.2-3,2.7-4.8,5.7-4.6c2.9,0.2,4.7,2,4.9,5.1C288.3,241.4,288.2,243.2,288.2,245z"/>
	<path class="st0" d="M245.2,169.9c0,1.9,0.1,3.8,0,5.6c-0.2,3.3-2.4,5.2-5.6,5c-3-0.1-5-2-5-5.2c-0.1-3.7-0.1-7.3,0-11
		c0.1-3.1,2.3-5.1,5.2-5.1c3,0,5.2,1.9,5.4,5C245.3,166.1,245.2,168,245.2,169.9z"/>
	<path class="st0" d="M180.7,191.4c-0.4-9.7,0.9-11,10.6-10.6c1.7,0.1,3.4,0,5,0c3.7,0.2,5.7,2,5.8,5.6c0.2,3.4,0.1,6.7,0,10.1
		c-0.1,3.6-2.1,5.6-5.7,5.8c-3.1,0.2-6.3,0.1-9.4,0c-4.4-0.1-6.2-2-6.3-6.5C180.7,194.3,180.7,192.8,180.7,191.4z"/>
	<path class="st0" d="M331.2,191.6c0,10.2-0.5,10.6-10.7,10.6c-10.4,0-10.9-0.5-10.9-10.8c0-10.3,0.4-10.7,10.6-10.7
		c1.8,0,3.6-0.1,5.4,0c3.5,0.2,5.4,2,5.6,5.5C331.3,188.1,331.2,189.9,331.2,191.6z"/>
	<path class="st0" d="M180.7,320.4c0-10.4,0.4-10.7,10.9-10.7c10.2,0,10.7,0.5,10.7,10.7c0,10.4-0.4,10.7-10.8,10.9
		C181.6,331.5,180.4,330.3,180.7,320.4z"/>
</g>
</svg>
