<?xml version="1.0" encoding="utf-8"?>
<!-- Generator: Adobe Illustrator 25.0.0, SVG Export Plug-In . SVG Version: 6.00 Build 0)  -->
<svg version="1.1" id="Layer_1" xmlns="http://www.w3.org/2000/svg" xmlns:xlink="http://www.w3.org/1999/xlink" x="0px" y="0px"
	 viewBox="0 0 512 512" style="enable-background:new 0 0 512 512;" xml:space="preserve">
<style type="text/css">
	.st0{fill:#445CC1;}
	.st1{fill:#5B6ED8;}
	.st2{fill:#455CBF;}
	.st3{fill:#4A60BC;}
	.st4{fill:#495EB2;}
	.st5{fill:#465BB2;}
</style>
<g>
	<path class="st0" d="M279.6,231.3l-39.2-0.7l28.2-41.1c2.1-3.1,1.3-7.4-1.8-9.5s-7.4-1.3-9.5,1.8l-32.2,47
		c-2.3,2.2-3.4,5.5-2.6,8.6c1,3.9,4.4,6.7,8.5,6.8l40.4,0.7l-23.8,36.9c-2,3.2-1.1,7.4,2,9.5c1.1,0.7,2.4,1.1,3.7,1.1
		c2.2,0,4.4-1.1,5.8-3.1l29.3-45.4c2.1-3.3,1.7-7.5-1.1-10.3C285.2,231.4,282.3,230.7,279.6,231.3z"/>
	<path class="st1" d="M322.8,107.4H189.1c-11.1,0-20.2,9-20.2,20.2v39.6c0,2.2,1.8,4,4,4h6c2.2,0,4-1.8,4-4v-39.6
		c0-3.4,2.8-6.2,6.2-6.2h28v4.3c0,6.7,5.4,12.1,12.1,12.1H276c6.7,0,12.1-5.4,12.1-12.1v-4.3h34.8c3.4,0,6.2,2.8,6.2,6.2v224.6
		c0,3.4-2.8,6.2-6.2,6.2H189.2c-3.4,0-6.2-2.8-6.2-6.2V190.9c0-3.6-2.9-6.5-6.5-6.5h-1c-3.6,0-6.5,2.9-6.5,6.5v161.3
		c0,11.1,9,20.2,20.2,20.2h133.7c11.1,0,20.2-9,20.2-20.2V127.6C343,116.4,334,107.4,322.8,107.4z"/>
</g>
</svg>
