<?xml version="1.0" encoding="utf-8"?>
<!-- Generator: Adobe Illustrator 25.0.0, SVG Export Plug-In . SVG Version: 6.00 Build 0)  -->
<svg version="1.1" id="Layer_1" xmlns="http://www.w3.org/2000/svg" xmlns:xlink="http://www.w3.org/1999/xlink" x="0px" y="0px"
	 viewBox="0 0 512 512" style="enable-background:new 0 0 512 512;" xml:space="preserve">
<style type="text/css">
	.st0{fill:#5B6ED8;}
	.st1{fill:#445CC1;}
	.st2{fill:#445CC1;stroke:#445CC1;stroke-width:3.3317;stroke-miterlimit:10;}
	.st3{fill:none;stroke:#445CC1;stroke-width:16;stroke-miterlimit:10;}
</style>
<g>
	<path class="st1" d="M446.1,241.4c0-6.9-5.5-12.6-12.9-13.4l-81.5-8.9c-0.6-1.7-1.3-3.3-2.1-4.9l50.6-64.9
		c4.5-5.8,4.2-13.7-0.6-18.5l-19.6-19.6c-4.9-4.8-12.9-5-18.6-0.4l-64,51.4c-1.5-0.7-3.1-1.3-4.7-2l-9.9-81.7
		c-0.9-7.2-6.7-12.7-13.5-12.7h-27.7c-6.9,0-12.6,5.5-13.5,12.9l-9.1,81.5c-1.7,0.6-3.3,1.3-4.9,2l-64.8-50.7
		c-5.8-4.5-13.7-4.3-18.5,0.5l-19.6,19.6c-4.8,4.8-5,12.9-0.4,18.6l51.2,64c-0.7,1.6-1.4,3.3-2,4.9l-81.7,10
		c-7.2,0.9-12.7,6.7-12.7,13.5l0,27.7c0,6.9,5.5,12.7,12.9,13.5l81.5,9c0.6,1.7,1.3,3.3,2,4.9l-50.7,64.8
		c-4.5,5.8-4.3,13.7,0.5,18.5l19.6,19.6c2.5,2.5,5.8,3.8,9.3,3.8c3.2,0,6.6-1.1,9.3-3.3l64-51.3c1.6,0.7,3.2,1.4,4.9,2l10,81.7
		c0.9,7.2,6.7,12.7,13.5,12.7h0l27.7,0c6.9,0,12.7-5.5,13.5-12.9l9-81.5c1.7-0.6,3.3-1.3,4.9-2l64.8,50.6c2.8,2.2,6,3.2,9.2,3.2
		c3.5,0,6.8-1.3,9.3-3.8l19.6-19.6c4.9-4.9,5-12.9,0.4-18.6l-51.3-64c0.7-1.6,1.4-3.3,2-4.9l81.6-10.1c7.2-0.9,12.7-6.7,12.7-13.5
		L446.1,241.4z M356.7,275.9l-16.9,2.1c-0.5,1.7-1,3.4-1.5,5.1c-1.3,4.1-3,8-4.9,11.8c-0.8,1.6-1.6,3.1-2.5,4.6l10.6,13.2l46.3,57.8
		l-16.3,16.4L313,341.3l-13.4-10.5l-4.7,2.6c-3.8,1.9-7.7,3.5-11.8,4.9c-1.6,0.5-3.3,1-5,1.5l-1.9,16.8l-8.1,73.5l-23.2,0l-9-73.5
		l-2.1-16.9l-5.1-1.5c-4.1-1.3-8-3-11.8-4.9l-4.6-2.5l-13.2,10.6l-57.8,46.3L125,371.4l45.7-58.4l10.5-13.4l-2.5-4.7
		c-1.9-3.8-3.5-7.7-4.9-11.8c-0.6-1.7-1.1-3.3-1.5-5l-16.8-1.9l-73.6-8.1l0-23.2l73.5-9l16.9-2.1c0.5-1.7,1-3.5,1.5-5.1
		c1.3-4.1,3-8,4.9-11.8c0.8-1.6,1.6-3.1,2.5-4.6l-10.6-13.2l-46.3-57.8l16.4-16.4l58.4,45.7l13.4,10.5c1.5-0.9,3.1-1.8,4.7-2.5
		c3.8-1.9,7.7-3.5,11.8-4.9c1.7-0.6,3.3-1,5-1.5l1.9-16.9l8.2-73.5h23.1l8.9,73.5l2.1,16.9c1.7,0.4,3.3,0.9,4.9,1.5
		c4.1,1.3,8.1,3,12,5c1.5,0.8,3,1.5,4.4,2.4l13.2-10.6l57.7-46.4l16.4,16.3l-45.6,58.4l-10.4,13.4c0.9,1.5,1.8,3.1,2.6,4.7
		c1.9,3.8,3.5,7.7,4.9,11.8c0.6,1.7,1.1,3.3,1.5,5l16.9,1.8l73.6,8.1l0,23.2L356.7,275.9z"/>
</g>
</svg>
