<?xml version="1.0" encoding="utf-8"?>
<!-- Generator: Adobe Illustrator 25.0.0, SVG Export Plug-In . SVG Version: 6.00 Build 0)  -->
<svg version="1.1" id="Layer_1" xmlns="http://www.w3.org/2000/svg" xmlns:xlink="http://www.w3.org/1999/xlink" x="0px" y="0px"
	 viewBox="0 0 512 512" style="enable-background:new 0 0 512 512;" xml:space="preserve">
<style type="text/css">
	.st0{fill:#5B6ED8;}
	.st1{fill:#445CC1;}
	.st2{fill:#445CC1;stroke:#445CC1;stroke-width:3.3317;stroke-miterlimit:10;}
	.st3{fill:none;stroke:#445CC1;stroke-width:16;stroke-miterlimit:10;}
</style>
<g>
	<g>
		<path class="st0" d="M373.2,106H192.3c-6.2,0-11.3,5.1-11.3,11.3v46.6c0,1.2,0.5,2.4,1.4,3.3c2.2,2.2,4.4,4.4,6.7,6.7
			c2.9,2.9,8,0.9,8-3.3V122h171.5V390H197v-49.3c0-1.1-0.4-2.1-1.2-2.9l-7.8-7.8c-2.6-2.6-7-0.8-7,2.9v61.9
			c0,6.2,5.1,11.3,11.3,11.3h180.9c6.2,0,11.3-5.1,11.3-11.3V117.3C384.5,111.1,379.4,106,373.2,106z"/>
	</g>
	<g>
		<g>
			<path class="st1" d="M295.4,138.4h-47.3c-2.8,0-5-2.2-5-5s2.2-5,5-5h47.3c2.8,0,5,2.2,5,5S298.1,138.4,295.4,138.4z"/>
		</g>
		<g>
			<path class="st1" d="M317.4,138.4h-4.1c-2.8,0-5-2.2-5-5s2.2-5,5-5h4.1c2.8,0,5,2.2,5,5S320.2,138.4,317.4,138.4z"/>
		</g>
	</g>
	<g>
		<g>
			<g>
				<path class="st2" d="M234,206c-11.8-11.8-27.4-18.3-44.1-18.3s-32.3,6.5-44.1,18.3c-11.8,11.8-18.3,27.4-18.3,44.1
					s6.5,32.3,18.3,44.1c11.8,11.8,27.4,18.3,44.1,18.3c16.7,0,32.3-6.5,44.1-18.3c11.8-11.8,18.3-27.4,18.3-44.1
					S245.8,217.8,234,206z M151,211.2c5.5-5.5,11.9-9.7,18.9-12.4c-1.9,2.3-3.6,5-5.2,8c-1.9,3.5-3.5,7.4-4.8,11.5
					c-4.6-0.8-8.9-1.7-12.8-2.8C148.3,214,149.6,212.5,151,211.2z M142.7,221.7c4.5,1.4,9.6,2.6,15.2,3.6
					c-1.6,6.6-2.5,13.7-2.7,21.1H135C135.5,237.6,138.2,229.2,142.7,221.7z M142.3,277.8c-4.3-7.3-6.8-15.5-7.3-24h20.3
					c0.2,7.1,1.1,14.1,2.6,20.5C152.1,275.2,146.9,276.4,142.3,277.8z M151,289c-1.6-1.6-3-3.2-4.3-4.9c4-1.1,8.4-2,13.2-2.8
					c1.3,4.2,3,8.1,4.9,11.6c1.7,3.3,3.7,6.2,5.7,8.6C163.2,298.9,156.6,294.6,151,289z M186.2,304.2c-5.6-1.6-10.8-6.6-15.1-14.7
					c-1.5-2.8-2.8-5.9-3.9-9.2c6-0.7,12.4-1.1,19-1.1V304.2z M186.2,271.9c-7.3,0.1-14.4,0.6-21.1,1.3c-1.5-6.1-2.4-12.7-2.6-19.5
					h23.7L186.2,271.9L186.2,271.9z M186.2,246.4h-23.7c0.2-7,1.1-13.8,2.6-20c6.6,0.8,13.7,1.3,21.1,1.5V246.4z M186.2,220.6
					c-6.6-0.1-13-0.6-19-1.3c1.1-3.2,2.4-6.3,3.9-9.1c4.3-8,9.5-13.1,15.1-14.7V220.6L186.2,220.6z M237.3,222.1
					c4.4,7.4,6.9,15.6,7.5,24.3h-20.2c-0.2-7.3-1.1-14.3-2.6-20.9C227.6,224.7,232.7,223.5,237.3,222.1z M228.8,211.2
					c1.5,1.5,2.8,3,4.1,4.6c-3.9,1.1-8.3,2-13,2.7c-1.4-4.2-3-8.1-4.9-11.7c-1.6-3-3.4-5.7-5.2-8
					C216.9,201.5,223.3,205.7,228.8,211.2z M193.5,253.8h23.7c-0.2,6.9-1.1,13.5-2.6,19.6c-6.6-0.8-13.7-1.3-21.1-1.5V253.8z
					 M193.5,246.4v-18.5c7.3-0.1,14.4-0.6,21.1-1.3c1.5,6.2,2.4,12.9,2.6,19.9H193.5L193.5,246.4z M193.5,195.6L193.5,195.6
					c5.6,1.6,10.8,6.6,15.1,14.7c1.5,2.8,2.8,5.9,4,9.2c-6,0.7-12.5,1-19,1.1V195.6z M193.5,304.2v-25c6.6,0.1,13,0.6,19,1.3
					c-1.1,3.2-2.4,6.2-3.9,9C204.3,297.6,199.1,302.6,193.5,304.2z M228.8,289c-5.6,5.6-12.2,9.9-19.4,12.6c2.1-2.5,4-5.4,5.7-8.6
					c1.9-3.5,3.5-7.3,4.8-11.4c4.7,0.8,9.1,1.8,13,2.9C231.6,286,230.3,287.6,228.8,289z M237.3,278.1c-4.5-1.5-9.7-2.7-15.4-3.7
					c1.5-6.5,2.4-13.5,2.7-20.7h20.3C244.2,262.4,241.7,270.7,237.3,278.1z"/>
			</g>
		</g>
	</g>
</g>
</svg>
