<?xml version="1.0" encoding="utf-8"?>
<!-- Generator: Adobe Illustrator 25.0.0, SVG Export Plug-In . SVG Version: 6.00 Build 0)  -->
<svg version="1.1"
	 id="svg2" xmlns:cc="http://creativecommons.org/ns#" xmlns:dc="http://purl.org/dc/elements/1.1/" xmlns:rdf="http://www.w3.org/1999/02/22-rdf-syntax-ns#" xmlns:svg="http://www.w3.org/2000/svg"
	 xmlns="http://www.w3.org/2000/svg" xmlns:xlink="http://www.w3.org/1999/xlink" x="0px" y="0px" viewBox="0 0 101.3 78.7"
	 style="enable-background:new 0 0 101.3 78.7;" xml:space="preserve">
<style type="text/css">
	.st0{clip-path:url(#SVGID_2_);}
	.st1{clip-path:url(#SVGID_4_);}
	.st2{clip-path:url(#SVGID_6_);}
	.st3{fill-rule:evenodd;clip-rule:evenodd;fill:#537CC7;}
	.st4{fill:none;stroke:#2D3E93;stroke-width:0.8398;stroke-miterlimit:10;enable-background:new    ;}
</style>
<g>
	<g>
		<g id="g540_1_">
			<g>
				<defs>
					<path id="SVGID_1_" d="M41.4,60c0,3.4-2.2,5.8-6.7,6.3c-3.2,0.3-7.9-0.1-10.2-0.3c-0.1-0.4-0.1-0.8-0.1-1.2
						c0-2.9,1.6-3.6,3.1-3.6c1.6,0,4,0.3,5.8,0.3c2,0,2.6-0.7,2.6-1.3c0-0.8-0.8-1.2-2.3-1.5l-4.2-0.8c-3.5-0.7-5.4-3.1-5.4-5.7
						c0-3.1,2.2-5.8,6.6-6.3c3.3-0.4,7.4,0,9.6,0.3c0.1,0.4,0.1,0.7,0.1,1.1c0,2.9-1.6,3.6-3,3.6c-1.1,0-2.9-0.2-5-0.2
						c-2.1,0-2.9,0.6-2.9,1.3c0,0.7,0.8,1,2.1,1.3l4.1,0.8C39.6,54.7,41.4,57.1,41.4,60 M48.7,63.6c0,1.8-0.7,2.8-4.2,2.8
						c-0.5,0-0.9,0-1.3-0.1v-24c0-1.8,0.6-3.7,4.2-3.7c0.4,0,0.9,0,1.3,0.1V63.6 M63.1,72.9c0.5,0.2,1.4,0.5,2.6,0.6
						c2.1,0,3.2-0.7,4-2.6l11-24.5c-0.5-0.2-1.5-0.5-2.3-0.5c-1.4,0-3.3,0.3-4.5,3.1l-3.6,8.4l-7-11.4c-0.5-0.1-1.6-0.3-2.4-0.3
						c-2.5,0-3.8,0.9-5.3,2.5l-6.8,7.4l5.5,8.6c1,1.6,2.3,2.4,4.5,2.4c1.4,0,2.6-0.3,3.1-0.6L55.4,56l4.7-4.9l7.6,12L63.1,72.9"/>
				</defs>
				<clipPath id="SVGID_2_">
					<use xlink:href="#SVGID_1_"  style="overflow:visible;"/>
				</clipPath>
				<g id="g542_1_" class="st0">
					<g>
						<defs>
							<path id="SVGID_3_" d="M63.2,72.9c-0.1,0-0.1-0.1-0.2-0.1l4.7-9.8l-7.6-12L55.4,56l6.6,9.9c0,0-0.1,0-0.1,0
								c-0.1-0.1-0.2-0.1-0.4-0.2l0-0.1c0,0-1.1-1.6-1.2-1.8c-0.1-0.1-1.4-2.1-1.5-2.2c-0.6-0.8-2.3-3.4-2.3-3.5
								c-0.1-0.1-1.1-1.7-1.1-1.8c-0.1-0.2-0.2-0.3-0.2-0.4c-0.1,0-0.2,0-0.2,0.1c0,0.1,0.1,0.2,0.2,0.4c0.1,0.1,0.7,1.1,0.9,1.3
								c0.2,0.2,0.9,1.4,1.1,1.6c0.1,0.2,1.1,1.5,1.2,1.7c0.1,0.2,0.8,1.1,0.9,1.3c0.1,0.2,1.7,2.4,1.7,2.5c0,0.1,0.3,0.5,0.4,0.6
								c0.1,0.1,0.1,0.2,0.2,0.2l0,0c0,0-0.1,0-0.1,0c-0.1,0-0.3,0-0.4,0.1c-0.6,0.2-1.6,0.3-2.2,0.3c-0.2,0-0.4,0-0.5,0
								c-2.1-0.3-3.3-1.3-4-2.1l-5.4-8.4l6.8-7.4c1.4-1.6,2.8-2.5,5.3-2.5c0.8,0,1.9,0.2,2.4,0.3l7,11.4l3.6-8.4
								c1.2-2.8,3-3.2,4.4-3.2c0.1,0,0.1,0,0.2,0c0.8,0,1.8,0.3,2.3,0.5l-9.8,22c-0.5,0.8-1.2,2.1-1.4,2.5c-0.4,0.7-1.2,1.7-2.3,1.9
								c-0.3,0.1-0.7,0.1-1.1,0.1c-0.6,0-1.2-0.1-1.7-0.1c-0.1,0-0.2,0-0.3,0C63.6,72.7,63.4,72.8,63.2,72.9
								C63.3,72.9,63.3,72.9,63.2,72.9C63.2,72.9,63.2,72.9,63.2,72.9C63.3,72.9,63.3,72.9,63.2,72.9 M68.1,63.2L68.1,63.2L68,63.3
								l-0.1,0.2c0,0.1-0.4,1-0.5,1c0,0.1-0.5,1.1-0.6,1.2c0,0.1-0.5,1.2-0.6,1.2c0,0.1-0.5,1.1-0.6,1.2c0,0.1-0.5,1.1-0.6,1.2
								c0,0.1-0.6,1.3-0.7,1.4c0,0.1-0.4,0.8-0.4,0.8c0,0.1-0.3,0.7-0.4,0.7l-0.2,0.4l0,0.1c0,0,0,0,0,0c0,0,0.1-0.1,0.1-0.2
								c0-0.1,0.7-1.5,0.8-1.6c0-0.1,0.9-1.8,0.9-1.9c0.1-0.1,0.8-1.6,0.8-1.7c0.1-0.3,1-2.2,1.1-2.3c0.1-0.1,0.5-1,0.5-1
								c0.1-0.1,0.3-0.6,0.4-0.7C68.1,63.4,68.2,63.3,68.1,63.2 M61.3,65.2C61.2,65.2,61.3,65.2,61.3,65.2c0.2,0.2,0.4,0.4,0.4,0.4
								c0,0,0.1,0.1,0.1,0.1c0,0,0,0,0-0.1C61.6,65.6,61.4,65.3,61.3,65.2C61.3,65.2,61.3,65.2,61.3,65.2 M67.7,62.5
								C67.7,62.5,67.7,62.5,67.7,62.5l0,0.3c0,0.1,0.1,0.2,0.2,0.2c0,0,0,0,0,0c0.1,0,0-0.2,0-0.3C67.9,62.5,67.8,62.5,67.7,62.5
								 M49.2,55.7c0.1,0,0.2,0.2,0.3,0.4l0.7,1.2c0,0.1,0.8,1.2,0.8,1.3c0,0.1,0.4,0.6,0.4,0.7c0,0.1,0.4,0.6,0.4,0.6
								c0.1,0.1,0.2,0.3,0.3,0.5c0,0.1,0.1,0.1,0.1,0.1c0,0,0-0.1,0-0.1c0-0.1-1.1-1.8-1.1-1.9c-0.1-0.1-1.1-1.7-1.1-1.8
								c-0.1-0.1-0.6-0.9-0.6-0.9c0,0,0,0,0-0.1c0.1,0,0.1,0,0.2,0c0.1,0,0.4-0.2,0.6-0.2c0.4-0.2,2.3-0.4,2.5-0.4
								c0.2,0,1.7-0.2,1.8-0.2c0.4-0.1,0.6-0.1,0.7-0.1c0.5-0.2,1-0.6,1-0.6c0.3-0.2,1.1-1,1.2-1.1c0.2-0.2,1.2-1.2,1.3-1.3
								c0.3-0.3,0.9-0.8,1-0.9c0.1-0.1,0.3-0.2,0.4-0.2c0.1,0,0.2,0,0.3,0.1c0.1,0,0.1,0.2,0.1,0.2c0,0,0.2,0.3,0.3,0.4
								c0.1,0.1,0.8,1.2,0.9,1.3c0.1,0.1,0.4,0.5,0.6,0.7c0.1,0.1,0.3,0.2,0.4,0.3c0.1,0,0.2,0,0.2,0c0.1,0,0.2,0,0.3,0
								c0.2,0,1.6-0.2,1.7-0.2c0.1,0,1-0.1,1.2-0.2c0.2,0,0.4,0,0.5,0c0,0,0.1,0,0.1,0c0.2,0,0.4,0.1,0.4,0.2
								c0.2,0.1,0.4,0.4,0.5,0.5c0.2,0.2,0.5,0.8,0.6,0.8c0.1,0.2,0.9,1.4,1,1.5c0.1,0.1,0.7,1.1,0.7,1.1c0,0,0.1,0.1,0.1,0.2
								c0,0,0,0.1,0.1,0.1c0,0,0.1,0.1,0.1,0.1c0.1,0.1,0.2,0.1,0.2,0.1c0.1,0,0.2,0,0.3-0.1c0.1-0.1,0.2-0.3,0.2-0.3
								c0.2-0.4,0.7-1.7,0.8-1.7c0.2-0.5,0.7-1.5,0.8-1.7c0.3-0.6,0.5-1,0.5-1c0.2-0.4,0.4-0.5,0.5-0.6c0.2-0.1,0.4-0.1,0.7-0.2
								l1.4-0.2c0,0,1.4-0.2,1.6-0.2c0.2,0,0.4-0.1,0.5-0.2c0.1-0.1,0.3-0.3,0.4-0.4c0.2-0.3,0.5-0.7,0.5-0.9
								c0.1-0.1,0.5-1.1,0.6-1.2c0.1-0.1,0.8-1.6,0.8-1.6c0.2-0.4,0.3-0.7,0.4-0.7c0.1-0.2,0.2-0.2,0.2-0.2c0.1,0,0-0.1,0-0.1
								c-0.2-0.1-1.2-0.3-2-0.3c0,0,0,0,0,0c-0.1,0-0.2,0-0.4,0c0.1,0,0.2-0.1,0-0.1c0,0-0.1,0-0.1,0c-0.2,0-0.4,0-0.6,0
								c-0.2,0-0.5,0.1-0.6,0.1c-0.1,0-0.1,0.1,0,0.1c0,0,0,0,0.1,0c0,0,0.3,0,0.5-0.1c-0.4,0.1-0.7,0.2-1.1,0.4
								c-0.2,0.1-0.7,0.5-1,1c-0.2,0.2-0.5,0.8-0.9,1.6l-0.4,0.9l-0.7,1.5L72.5,53l-0.6,1.4l-1,2.4c0,0-0.2,0.4-0.2,0.5l-0.1,0.1
								l0-0.1c0,0,0-0.1,0.1-0.2c0-0.1,0.4-0.8,0.4-0.8l0.8-1.9L71.2,56c0,0-0.4,1-0.5,1.1c0,0.1-0.1,0.3-0.2,0.3l-0.1,0.1
								c0,0-0.1,0.1-0.1,0.1c-0.1,0-0.1,0-0.2-0.1l0,0l-0.1-0.1c0,0,0,0,0,0c0,0-0.1-0.1-0.1-0.1c-0.1-0.2-0.3-0.4-0.5-0.7
								c-0.1-0.1-1.8-3-1.9-3.2c-0.1-0.2-1.2-2-1.3-2.1c-0.1-0.2-1.7-2.8-1.8-3c-0.1-0.2-1-1.6-1-1.7c0-0.1-0.1-0.1-0.1-0.2
								c0-0.1,0-0.1-0.1-0.1l0,0.1c-0.1-0.1-0.2-0.1-0.3-0.1c-0.2,0-0.5-0.1-0.7-0.1c0,0,0,0,0,0c0.2,0,0.1,0,0,0
								c-0.2,0-0.9-0.1-1.4-0.1c-0.5,0-0.9,0.1-1.2,0.1C59.3,46,59.3,46,59.4,46c0,0,0.1,0,0.1,0c0,0,0.2,0,0.4,0
								c-0.6,0.1-1.1,0.2-1.3,0.3c-0.7,0.3-1.3,0.7-1.8,1.1c-0.6,0.5-1.3,1.3-1.5,1.4c-0.2,0.2-1,1.1-1.5,1.6c0,0-2.8,3.1-2.9,3.2
								c-0.1,0.1-1.5,1.6-1.7,1.9c0,0,0,0,0,0c0,0,0,0,0,0c0,0,0,0,0,0C49.1,55.6,49.1,55.6,49.2,55.7
								C49.2,55.7,49.2,55.7,49.2,55.7 M60.3,51c0,0,0,0,0,0.2c0,0.1,0.3,0.4,0.3,0.5c0.1,0.1,0.7,1.1,0.8,1.2
								c0.1,0.1,0.8,1.2,0.8,1.3c0,0.1,0.6,1,0.7,1.1c0.1,0.1,0.3,0.5,0.4,0.6c0,0.1,0.1,0.1,0.1,0.1c0,0,0,0,0-0.1
								c-0.1-0.1-0.8-1.4-1-1.6C62.3,54,61,52.1,60.9,52c-0.1-0.1-0.5-0.8-0.5-0.8C60.4,51.1,60.3,51,60.3,51 M60.1,50.9
								C60.1,50.9,60.1,50.9,60.1,50.9c0,0.1,0,0.1,0,0.1C60.1,51,60.1,51,60.1,50.9C60.1,50.9,60.1,50.9,60.1,50.9 M80.4,46.4
								L80.4,46.4L80.4,46.4 M43.3,66.4c-0.1,0-0.1,0-0.2,0v-24c0-1.8,0.6-3.7,4.2-3.7c0.4,0,0.9,0,1.3,0.1v24.5
								c-0.1,0.4-0.2,1-0.5,1.4c-0.4,0.6-0.8,0.8-1.5,1c-0.5,0.2-1.1,0.2-2.6,0.2C43.7,66,43.4,66.1,43.3,66.4 M46.8,39
								c-0.9,0-1.9,0.4-2.4,0.8c-0.2,0.2-0.7,0.8-0.9,1.6c-0.2,0.8-0.1,1.8-0.1,1.9c0,0.1,0,3.8,0,5.1c0,0.2,0,7.1,0,8.2
								c0,0.2,0,6.7,0,6.9c0-0.8,0-5.3,0.2-6.3c0.2-1,0.4-1,0.9-1.1c0.6-0.1,2.1-0.3,2.6-0.3c0.7-0.1,0.9-0.5,0.9-1
								c0.2-2,0.2-4.3,0.2-5.2c0-0.2,0-4.3,0-4.7c0-0.4,0-5.3,0-5.5c0-0.1,0.1-0.3-0.1-0.4c-0.1,0-0.2,0-0.4,0
								c0.3,0,0.5-0.1,0.5-0.1c0.1,0,0.1,0,0.1,0c0,0,0,0-0.1,0c-0.1,0-0.7,0-0.9,0C47.3,38.9,47.1,38.9,46.8,39
								C46.9,39,46.9,39,46.8,39C46.9,39,46.8,39,46.8,39 M48.3,49.6c0,0.3,0,4.9,0,5c0,0.2,0,1,0,1.1l0,0l0,0c0,0,0-0.2,0-0.3
								C48.4,55.4,48.3,49.6,48.3,49.6 M48.5,38.9L48.5,38.9L48.5,38.9 M24.8,66c-0.1,0-0.1,0-0.2,0c-0.1-0.4-0.1-0.8-0.1-1.2
								c0-2.9,1.6-3.6,3.1-3.6c1.6,0,4,0.3,5.8,0.3c2,0,2.6-0.7,2.6-1.3c0-0.8-0.8-1.2-2.3-1.5l-4.2-0.8c-3.5-0.7-5.4-3.1-5.4-5.7
								c0-3.1,2.2-5.8,6.6-6.3c0.9-0.1,1.9-0.1,2.9-0.1c2.5,0,5.1,0.3,6.6,0.5c0.1,0.4,0.1,0.7,0.1,1.1c0,2.9-1.6,3.6-3,3.6
								c-1.1,0-2.9-0.2-5-0.2c-2.1,0-2.9,0.6-2.9,1.3c0,0.7,0.8,1,2.1,1.3l4.1,0.8c4.2,0.8,6,3.1,6,6c0,0.6-0.1,1.1-0.2,1.7
								c-0.3,0.8-1.1,2.1-2.7,3c-0.8,0.5-1.8,1-4.6,1.2c-0.2,0-0.8,0-1.4,0c-0.5,0-1.2,0-1.7,0c-0.7,0-2.3-0.1-3.5-0.2
								c-0.2,0-1.8-0.1-1.9-0.2c0,0,0,0-0.1,0C25.1,65.6,24.9,65.8,24.8,66 M28,61.6c-0.7,0-1.4,0.1-2,0.4c-0.7,0.4-1.2,1.2-1.3,2.4
								c0.3-1.1,0.5-1.4,1-1.8c0.5-0.5,1.1-0.6,1.3-0.6c0.4,0,0.8-0.1,1.2-0.1c0.5,0,1.1,0,1.3,0c0.5,0,3.1,0.2,3.3,0.2
								c0.1,0,0.3,0,0.4,0c0.8,0,1.3-0.1,1.4-0.1c0.9-0.2,1.3-0.6,1.4-0.7c0.2-0.3,0.6-0.8,0.3-1.2c0,0.9-0.7,1.3-1.3,1.5
								c-0.3,0.1-1.2,0.2-1.9,0.2c-0.2,0-0.5,0-0.6,0c-0.4,0-3.4-0.2-3.7-0.2C28.4,61.6,28.2,61.6,28,61.6 M28.5,61.4
								c-0.5,0-0.3,0.1,0.2,0.1c0.2,0,2.6,0.2,2.7,0.2c0.1,0,0.7,0,1,0c0,0,0.1,0,0.1,0c0.5,0,0.4-0.1-0.1-0.1
								c-0.2,0-1.5-0.1-1.9-0.1c-0.3,0-1.3-0.1-1.9-0.1C28.6,61.4,28.5,61.4,28.5,61.4 M38.9,57c0.9,0,1.4,0.8,1.5,0.8
								c0.2,0.3,0.4,0.7,0.5,0.8c0.1,0.1,0.2,0.3,0.2,0.4c0,0,0.1,0.5,0.1,1c0-0.4-0.1-1-0.1-1.1c-0.1-0.7-0.4-1.3-0.6-1.6
								c-0.5-0.8-1.1-1.3-1.2-1.4c-0.6-0.5-1.4-0.9-1.5-0.9c-0.5-0.2-1.1-0.4-1.6-0.6c0,0,0,0,0.1,0c0.1,0,0.2,0,0.3,0
								c0.1,0,0.1,0-0.2-0.1c-0.7-0.2-3.4-0.7-3.9-0.8c-0.4-0.1-1.8-0.4-2.1-0.4c-0.2,0-0.3-0.1-0.3-0.1c-0.1,0,0,0.1,0.2,0.1
								c0,0,0,0-0.1,0c-0.6-0.2-0.9-0.5-0.9-0.6c-0.2-0.2-0.2-0.4-0.2-0.5c0-0.1,0-0.1-0.1-0.1c-0.1-0.1-0.1-0.2-0.1-0.3
								c0-0.5,0.5-0.8,0.5-0.9c0.4-0.3,1.1-0.5,1.2-0.5c0.3-0.1,0.7-0.1,1.9-0.1c0.1,0,0.2,0,0.3,0c0.7,0,2.5,0.1,2.6,0.1
								c0.9,0.1,1.8,0.1,1.9,0.1c1,0,1.4-0.2,1.6-0.4c0.7-0.5,0.9-1.2,1-1.3c0.2-0.6,0.3-1.2,0.3-1.5c0-0.3,0-0.6,0-0.7
								c0-0.1,0-0.1,0-0.2l0-0.1l0,0c0,0-0.1,0-0.2,0c0,0,0,0,0,0c-0.1,0-0.4,0-0.6-0.1c0,0,0,0-0.1,0c-0.9-0.1-2.4-0.3-2.8-0.3
								c-0.7-0.1-1.4-0.1-1.9-0.1c-0.2,0-0.4,0-0.5,0c-0.1,0-0.2,0-0.2,0c-0.1,0-0.3,0-0.4,0c-0.3,0-0.5,0-0.7,0
								c-0.7,0-1.5,0.1-2.1,0.1c-0.5,0.1-1.3,0.2-1.9,0.4c-0.7,0.2-1.3,0.5-1.9,0.9c-0.4,0.3-1.1,0.8-1.6,1.6
								c-0.3,0.5-0.7,1.2-0.8,1.8c-0.2,0.7-0.2,1.3-0.1,1.9c0.1,0.6,0.2,1.1,0.4,1.5c0.1,0.2,0.2,0.4,0.3,0.6
								c-0.1-0.2-0.2-0.3-0.2-0.3c0,0-0.1-0.1-0.1-0.1c0,0,0,0,0,0.1c0,0.1,0.2,0.5,0.3,0.6c0.2,0.3,0.5,0.6,0.6,0.6
								c0,0,0.1,0,0.1,0c0,0,0,0,0-0.1c-0.1-0.2-0.3-0.5-0.5-0.7c0.2,0.2,0.3,0.4,0.3,0.4c0.6,0.6,1.3,1.1,1.8,1.4
								c0.6,0.3,1.5,0.5,1.8,0.6c0.3,0.1,1.4,0.2,1.5,0.2c0.2,0,1.5,0.2,1.5,0.2c0.3,0,0.7,0,1.2,0c0,0,0,0,0,0
								c0.7,0,3.5-0.4,3.7-0.5c0.1,0,1.5-0.2,1.6-0.2C38.7,57,38.8,57,38.9,57 M35.9,59.4C35.9,59.4,35.9,59.4,35.9,59.4
								c-0.1,0-0.1,0.1,0,0.2c0.1,0.1,0.1,0.2,0.1,0.2c0,0,0,0,0,0c0.1,0,0.1-0.1,0.1-0.2C36.1,59.5,36,59.4,35.9,59.4 M29.9,50.8
								c-0.1,0-0.2,0-0.3,0.1c-0.1,0.1-0.2,0.2-0.1,0.2c0,0,0,0,0,0c0.1,0,0.2-0.1,0.3-0.2L29.9,50.8C30,50.8,29.9,50.8,29.9,50.8
								 M39,50.2c-0.1,0-0.3,0.1-0.4,0.2c-0.1,0-0.3,0.2-0.3,0.2c0,0,0,0,0,0c0.1,0,0.3-0.1,0.3-0.1C38.9,50.4,39.1,50.2,39,50.2
								C39,50.2,39,50.2,39,50.2 M39.9,46.3C39.9,46.3,39.9,46.3,39.9,46.3c-0.1,0-0.1,0.1-0.1,0.1C39.8,46.3,39.9,46.3,39.9,46.3
								C39.9,46.3,40,46.3,39.9,46.3"/>
						</defs>
						<clipPath id="SVGID_4_">
							<use xlink:href="#SVGID_3_"  style="overflow:visible;"/>
						</clipPath>
						<g id="g548_1_" class="st1">
							<g id="g554_1_" transform="matrix(917.2,0,0,598.2,1390.9,-0.100028)">
								
									<image style="overflow:visible;enable-background:new    ;" width="191" height="125" id="image556_1_" xlink:href="4780EB80.png"  transform="matrix(3.486168e-04 0 0 5.326865e-04 -1.4935 6.066846e-02)">
								</image>
							</g>
						</g>
					</g>
				</g>
			</g>
		</g>
		<g id="g630_1_">
			<g>
				<defs>
					<path id="SVGID_5_" d="M63.5,72.7C63.5,72.7,63.5,72.7,63.5,72.7L63.5,72.7l0.2-0.5c0-0.1,0.3-0.7,0.4-0.7
						c0-0.1,0.3-0.7,0.4-0.8c0-0.1,0.6-1.3,0.7-1.4c0-0.1,0.5-1.1,0.6-1.2c0-0.1,0.5-1.1,0.6-1.2c0-0.1,0.5-1.2,0.6-1.2
						c0-0.1,0.5-1.1,0.6-1.2c0-0.1,0.4-1,0.5-1l0.1-0.2l0.1,0l0.1-0.1c0.1,0.1,0,0.2,0,0.3c0,0.1-0.3,0.5-0.4,0.7
						c0,0.1-0.4,0.9-0.5,1c0,0.1-0.9,2-1.1,2.3c0,0.1-0.7,1.5-0.8,1.7c0,0.1-0.9,1.8-0.9,1.9c0,0.1-0.8,1.5-0.8,1.6
						C63.6,72.6,63.6,72.7,63.5,72.7 M61.5,65.8C61.5,65.8,61.5,65.8,61.5,65.8L61.5,65.8c0,0-0.1-0.1-0.2-0.2
						C61.3,65.5,61,65.1,61,65c0-0.1-1.6-2.3-1.7-2.5c-0.1-0.2-0.8-1.1-0.9-1.3c-0.1-0.2-1.1-1.5-1.2-1.7c-0.2-0.3-1-1.4-1.1-1.6
						c-0.2-0.2-0.8-1.2-0.9-1.3c-0.1-0.2-0.2-0.3-0.2-0.4c0-0.1,0.1-0.1,0.2-0.1c0,0.1,0,0.2,0.2,0.4c0,0,1.1,1.7,1.1,1.8
						c0.1,0.1,1.7,2.6,2.3,3.5c0,0.1,1.4,2.1,1.5,2.2C60.4,64.1,61.4,65.7,61.5,65.8L61.5,65.8 M24.7,64.4c0.1-1.2,0.6-2,1.3-2.4
						c0.6-0.3,1.3-0.4,2-0.4c0.2,0,0.4,0,0.6,0c0.3,0,3.4,0.2,3.7,0.2c0.2,0,0.4,0,0.6,0c0.7,0,1.6-0.1,1.9-0.2
						c0.6-0.2,1.3-0.6,1.3-1.5c0.2,0.4-0.1,0.9-0.3,1.2c-0.1,0.1-0.4,0.5-1.4,0.7c-0.1,0-0.6,0.1-1.4,0.1c-0.1,0-0.2,0-0.4,0
						c-0.2,0-2.8-0.2-3.3-0.2c-0.3,0-0.8,0-1.3,0c-0.4,0-0.8,0-1.2,0.1c-0.2,0-0.8,0.1-1.3,0.6C25.2,62.9,24.9,63.3,24.7,64.4
						 M43.5,63.6c0-0.2,0-6.7,0-6.9c0-1.2,0-8.1,0-8.2c0-1.3,0-5,0-5.1c0-0.1,0-1.1,0.1-1.9c0.2-0.8,0.7-1.4,0.9-1.6
						c0.6-0.5,1.5-0.8,2.4-0.8c0,0,0,0,0,0c-0.1,0-0.1,0,0.1,0c0.1,0,0.5,0,0.5,0c0.1,0,0.3,0,0.4,0c0.2,0,0.3,0,0.4,0
						c0.2,0,0.1,0.2,0.1,0.4c0,0.1,0,5.1,0,5.5c0,0.4,0,4.5,0,4.7c0,0.9,0,3.2-0.2,5.2c0,0.5-0.2,1-0.9,1c-0.5,0.1-2,0.3-2.6,0.3
						c-0.6,0.1-0.8,0.1-0.9,1.1C43.5,58.3,43.5,62.8,43.5,63.6 M41.2,60.1c0-0.5-0.1-1-0.1-1c-0.1-0.1-0.2-0.3-0.2-0.4
						c-0.1-0.1-0.3-0.5-0.5-0.8c0,0-0.6-0.8-1.5-0.8c-0.1,0-0.2,0-0.3,0c-0.1,0-1.5,0.2-1.6,0.2c-0.1,0-3,0.5-3.7,0.5c0,0,0,0,0,0
						c-0.5,0-0.9,0-1.2,0c-0.1,0-1.4-0.1-1.5-0.2c-0.2,0-1.2-0.2-1.5-0.2c-0.3-0.1-1.2-0.3-1.8-0.6c-0.5-0.2-1.3-0.7-1.8-1.4
						c0,0-0.2-0.2-0.3-0.4c-0.1-0.1-0.1-0.1-0.1-0.2c-0.1-0.2-0.2-0.4-0.3-0.6c-0.2-0.4-0.3-0.8-0.4-1.5c-0.1-0.6,0-1.2,0.1-1.9
						c0.1-0.7,0.5-1.3,0.8-1.8c0.5-0.7,1.2-1.3,1.6-1.6c0.5-0.3,1.2-0.7,1.9-0.9c0.7-0.2,1.4-0.4,1.9-0.4c0.5-0.1,1.4-0.1,2.1-0.1
						c0.2,0,0.4,0,0.7,0c0.1,0,0.3,0,0.4,0c0,0,0.2,0,0.2,0c0.3,0,3.1,0.2,3.9,0.3c0.5,0.1,0.9,0.1,1.1,0.1c0.1,0,0.1,0,0.1,0
						c0.1,0,0.2,0,0-0.1c0.2,0,0.4,0,0.6,0.1c0,0,0,0,0,0c0.1,0,0.2,0,0.2,0l0,0l0,0.1c0,0,0,0.1,0,0.2c0,0,0,0.4,0,0.7
						c0,0.4-0.1,0.9-0.3,1.5c0,0.1-0.3,0.8-1,1.3c-0.2,0.2-0.6,0.4-1.6,0.4c-0.1,0-1,0-1.9-0.1c-0.1,0-1.9-0.1-2.6-0.1
						c-0.1,0-0.2,0-0.3,0c-1.1,0-1.5,0.1-1.9,0.1c-0.1,0-0.8,0.2-1.2,0.5c-0.1,0-0.5,0.4-0.5,0.9c0,0.1,0,0.2,0.1,0.3
						c0,0,0,0.1,0.1,0.1c0,0.1,0.1,0.3,0.2,0.5c0,0,0.3,0.4,0.9,0.6c0,0,0,0,0.1,0c0.1,0,0.1,0.1,0.2,0.1c0.5,0.2,1.5,0.4,2.9,0.6
						c1.4,0.2,2.6,0.5,3,0.5c0.5,0.1,1.1,0.3,1.6,0.6c0.1,0,0.8,0.4,1.5,0.9c0,0,0.7,0.6,1.2,1.4c0.2,0.4,0.5,0.9,0.6,1.6
						C41.1,59.1,41.2,59.7,41.2,60.1 M70.3,57.7c-0.1,0-0.1,0-0.2-0.1c0,0,0-0.1-0.1-0.1c0,0,0,0,0,0c0,0,0,0,0,0l0.1-0.1
						c0.1,0,0.1,0,0.2,0.1c0.1,0,0.1-0.1,0.1-0.1l0.1-0.1c0,0,0.1-0.2,0.2-0.3c0-0.1,0.5-1.1,0.5-1.1l0.7-1.5L71,56.4
						c0,0-0.3,0.7-0.4,0.8c0,0.1-0.1,0.1-0.1,0.2l0,0.1l0.1-0.1c0-0.1,0.2-0.5,0.2-0.5l1-2.4l0.6-1.4l0.6-1.3l0.7-1.5l0.4-0.9
						c0.4-0.9,0.7-1.4,0.9-1.6c0.3-0.5,0.8-0.9,1-1c0.4-0.2,0.7-0.3,1.1-0.4c0.1,0,0.1,0,0.1,0c0.1,0,0.7-0.1,0.7-0.1c0,0,0,0,0,0
						c0.1,0,0.3,0,0.4,0c0,0,0,0,0,0c0.8,0,1.7,0.3,2,0.3c0,0,0.1,0.1,0,0.1c-0.1,0-0.1,0.1-0.2,0.2c0,0-0.2,0.3-0.4,0.7
						c0,0-0.7,1.5-0.8,1.6c-0.1,0.1-0.5,1.1-0.6,1.2c-0.1,0.1-0.3,0.6-0.5,0.9c0,0-0.2,0.3-0.4,0.4c-0.1,0.1-0.3,0.1-0.5,0.2
						c-0.2,0-1.6,0.2-1.6,0.2L74,52.1c-0.2,0-0.5,0.1-0.7,0.2c-0.1,0.1-0.3,0.2-0.5,0.6c0,0.1-0.3,0.5-0.5,1
						c-0.1,0.1-0.6,1.2-0.8,1.7c0,0.1-0.6,1.3-0.8,1.7c0,0-0.1,0.3-0.2,0.3C70.5,57.7,70.4,57.7,70.3,57.7 M70.3,57.5L70.3,57.5
						l0,0.2L70.3,57.5L70.3,57.5 M69.9,57.5c0-0.1-0.1-0.1-0.1-0.2c0-0.1-0.7-1.1-0.7-1.1c-0.1-0.1-0.9-1.3-1-1.5
						c0,0-0.4-0.7-0.6-0.8c0,0-0.3-0.4-0.5-0.5c0,0-0.2-0.1-0.4-0.2c0,0,0,0-0.1,0c-0.1,0-0.3,0-0.5,0c-0.2,0-1.1,0.2-1.2,0.2
						c-0.1,0-1.5,0.2-1.7,0.2c-0.1,0-0.2,0-0.3,0c-0.1,0-0.2,0-0.2,0c-0.1,0-0.3-0.1-0.4-0.3c-0.2-0.1-0.4-0.5-0.6-0.7
						c-0.1-0.1-0.9-1.2-0.9-1.3c-0.1-0.1-0.3-0.4-0.3-0.4c0,0-0.1-0.1-0.1-0.2c-0.1,0-0.1-0.1-0.3-0.1c-0.1,0-0.3,0.1-0.4,0.2
						c-0.1,0.1-0.7,0.6-1,0.9c0,0-1.1,1.1-1.3,1.3c-0.1,0.1-0.9,0.8-1.2,1.1c-0.1,0-0.5,0.4-1,0.6c-0.1,0-0.3,0.1-0.7,0.1
						c-0.1,0-1.5,0.2-1.8,0.2c-0.2,0-2.1,0.3-2.5,0.4c-0.2,0.1-0.5,0.2-0.6,0.2c-0.1,0-0.1,0-0.2,0c-0.1-0.1-0.1-0.1-0.2-0.1
						c0,0,0,0,0,0c0.1-0.2,1.6-1.7,1.7-1.9c0.1-0.1,2.9-3.2,2.9-3.2c0.5-0.5,1.3-1.4,1.5-1.6c0.2-0.2,0.9-0.9,1.5-1.4
						c0.5-0.4,1.1-0.8,1.8-1.1c0.3-0.1,0.7-0.3,1.3-0.3c0.3,0,0.7,0,0.8,0c0.5,0,1.2,0,1.4,0c0.2,0,0.5,0.1,0.7,0.1
						c0.1,0,0.2,0,0.3,0.1l0,0.1l0.1,0.1l0,0l0-0.1c0,0,0,0,0,0c0,0,0.1,0.1,0.1,0.2c0,0.1,0.9,1.6,1,1.7c0.1,0.2,1.7,2.8,1.8,3
						c0.1,0.1,1.2,2,1.3,2.1c0.1,0.2,1.9,3,1.9,3.2c0.2,0.2,0.3,0.5,0.5,0.7c0,0.1,0.1,0.1,0.1,0.1c0,0,0,0,0,0
						C70,57.4,69.9,57.4,69.9,57.5C69.9,57.4,69.9,57.4,69.9,57.5 M48.4,55.7L48.4,55.7c0-0.1,0-1,0-1.1c0-0.2,0-4.7,0-5
						c0,0,0,5.8,0,5.9C48.4,55.5,48.4,55.7,48.4,55.7L48.4,55.7 M49.2,55.7C49.2,55.7,49.2,55.7,49.2,55.7
						C49.2,55.7,49.2,55.7,49.2,55.7C49.2,55.7,49.2,55.7,49.2,55.7"/>
				</defs>
				<clipPath id="SVGID_6_">
					<use xlink:href="#SVGID_5_"  style="overflow:visible;"/>
				</clipPath>
				<g id="g632_1_" class="st2">
					<g id="g638_1_" transform="matrix(860.2,0,0,524.2,1429.9,41.9)">
						
							<image style="overflow:visible;enable-background:new    ;" width="179" height="109" id="image640_1_" xlink:href="4780EB81.png"  transform="matrix(3.719878e-04 0 0 6.108790e-04 -1.6348 -6.824519e-03)">
						</image>
					</g>
				</g>
			</g>
		</g>
	</g>
	<path id="path716_1_" class="st3" d="M68.6,11.7H49.5v5.8h5.7v14.1H63V17.5h5.6V11.7z M82.5,11.7h-8.3l-7.4,19.9h7.4l4.1-11.8
		l4.2,11.8h7.6L82.5,11.7z M35.2,11.7l-7.4,19.9h7.4l4.1-11.8l4.2,11.8h7.6l-7.6-19.9H35.2z M29.5,11.7H10.3v5.8H16v14.1h7.9V17.5
		h5.6V11.7L29.5,11.7z"/>
	<line class="st4" x1="11.2" y1="35.3" x2="91" y2="35.3"/>
</g>
</svg>
