<?xml version="1.0" encoding="utf-8"?>
<!-- Generator: Adobe Illustrator 25.0.0, SVG Export Plug-In . SVG Version: 6.00 Build 0)  -->
<svg version="1.1" id="Layer_1" xmlns="http://www.w3.org/2000/svg" xmlns:xlink="http://www.w3.org/1999/xlink" x="0px" y="0px"
	 viewBox="0 0 177.9 178" style="enable-background:new 0 0 177.9 178;" xml:space="preserve">
<style type="text/css">
	.st0{fill:#EE3023;}
	.st1{fill:#FFFFFF;}
</style>
<symbol  id="a">
</symbol>
<symbol  id="b">
</symbol>
<symbol  id="c">
</symbol>
<symbol  id="d">
</symbol>
<g transform="matrix(.35277779 0 0 .35277779 -15.678062 -255.559219)">
	
		<use xlink:href="#a"  width="-32766" height="-32766" x="16383" y="16383" transform="matrix(2.8346 0 0 -2.8346 151.2685 1425.7667)" style="overflow:visible;"/>
	
		<use xlink:href="#c"  width="-32766" height="-32766" x="16383" y="16383" transform="matrix(2.8346 0 0 -2.8346 151.2685 1425.7667)" style="overflow:visible;"/>
	
		<use xlink:href="#d"  width="-32766" height="-32766" x="16383" y="16383" transform="matrix(2.8346 0 0 -2.8346 151.2685 1425.7667)" style="overflow:visible;"/>
	<g>
		<defs>
			<rect id="SVGID_1_" x="1106.4" y="-22334" width="216.5" height="57.5"/>
		</defs>
		<clipPath id="SVGID_2_">
			<use xlink:href="#SVGID_1_"  style="overflow:visible;"/>
		</clipPath>
		<g style="clip-path:url(#SVGID_2_);">
			
				<use xlink:href="#d"  width="-32766" height="-32766" x="16383" y="16383" transform="matrix(2.8346 0 0 -2.8346 151.2685 1425.7667)" style="overflow:visible;"/>
		</g>
	</g>
	<g>
		<defs>
			<rect id="SVGID_3_" x="290" y="-21937.6" width="216.5" height="57.5"/>
		</defs>
		<clipPath id="SVGID_4_">
			<use xlink:href="#SVGID_3_"  style="overflow:visible;"/>
		</clipPath>
		<g style="clip-path:url(#SVGID_4_);">
			
				<use xlink:href="#d"  width="-32766" height="-32766" x="16383" y="16383" transform="matrix(2.8346 0 0 -2.8346 151.2685 1425.7667)" style="overflow:visible;"/>
		</g>
	</g>
	<g>
		<defs>
			<rect id="SVGID_5_" x="294.3" y="-21541.2" width="216.5" height="57.5"/>
		</defs>
		<clipPath id="SVGID_6_">
			<use xlink:href="#SVGID_5_"  style="overflow:visible;"/>
		</clipPath>
		<g style="clip-path:url(#SVGID_6_);">
			
				<use xlink:href="#c"  width="-32766" height="-32766" x="16383" y="16383" transform="matrix(2.8346 0 0 -2.8346 151.2685 1425.7667)" style="overflow:visible;"/>
		</g>
	</g>
	<g>
		<defs>
			<rect id="SVGID_7_" x="340.7" y="-21541.2" width="216.5" height="57.5"/>
		</defs>
		<clipPath id="SVGID_8_">
			<use xlink:href="#SVGID_7_"  style="overflow:visible;"/>
		</clipPath>
		<g style="clip-path:url(#SVGID_8_);">
			
				<use xlink:href="#d"  width="-32766" height="-32766" x="16383" y="16383" transform="matrix(2.8346 0 0 -2.8346 151.2685 1425.7667)" style="overflow:visible;"/>
		</g>
	</g>
	<g>
		<defs>
			<rect id="SVGID_9_" x="367" y="-21144.9" width="216.5" height="57.5"/>
		</defs>
		<clipPath id="SVGID_10_">
			<use xlink:href="#SVGID_9_"  style="overflow:visible;"/>
		</clipPath>
		<g style="clip-path:url(#SVGID_10_);">
			
				<use xlink:href="#d"  width="-32766" height="-32766" x="16383" y="16383" transform="matrix(2.8346 0 0 -2.8346 151.2685 1425.7667)" style="overflow:visible;"/>
		</g>
	</g>
	<g>
		<defs>
			<rect id="SVGID_11_" x="-367.9" y="-18766.7" width="216.5" height="57.5"/>
		</defs>
		<clipPath id="SVGID_12_">
			<use xlink:href="#SVGID_11_"  style="overflow:visible;"/>
		</clipPath>
		<g style="clip-path:url(#SVGID_12_);">
			
				<use xlink:href="#c"  width="-32766" height="-32766" x="16383" y="16383" transform="matrix(2.8346 0 0 -2.8346 151.2685 1425.7667)" style="overflow:visible;"/>
		</g>
	</g>
	
		<use xlink:href="#b"  width="-32766" height="-32766" x="16383" y="16383" transform="matrix(2.8346 0 0 -2.8346 151.2685 1425.7667)" style="overflow:visible;"/>
	<g>
		<defs>
			<rect id="SVGID_13_" x="9135.7" y="-22697.4" width="216.5" height="57.5"/>
		</defs>
		<clipPath id="SVGID_14_">
			<use xlink:href="#SVGID_13_"  style="overflow:visible;"/>
		</clipPath>
		<g style="clip-path:url(#SVGID_14_);">
			
				<use xlink:href="#d"  width="-32766" height="-32766" x="16383" y="16383" transform="matrix(2.8346 0 0 -2.8346 151.2685 1425.7667)" style="overflow:visible;"/>
		</g>
	</g>
	<g>
		<defs>
			<rect id="SVGID_15_" x="6357.2" y="-21673.6" width="216.5" height="57.5"/>
		</defs>
		<clipPath id="SVGID_16_">
			<use xlink:href="#SVGID_15_"  style="overflow:visible;"/>
		</clipPath>
		<g style="clip-path:url(#SVGID_16_);">
			
				<use xlink:href="#b"  width="-32766" height="-32766" x="16383" y="16383" transform="matrix(2.8346 0 0 -2.8346 151.2685 1425.7667)" style="overflow:visible;"/>
		</g>
	</g>
	<g>
		<defs>
			<rect id="SVGID_17_" x="7443.8" y="-21260.8" width="216.5" height="57.5"/>
		</defs>
		<clipPath id="SVGID_18_">
			<use xlink:href="#SVGID_17_"  style="overflow:visible;"/>
		</clipPath>
		<g style="clip-path:url(#SVGID_18_);">
			
				<use xlink:href="#d"  width="-32766" height="-32766" x="16383" y="16383" transform="matrix(2.8346 0 0 -2.8346 151.2685 1425.7667)" style="overflow:visible;"/>
		</g>
	</g>
	<g>
		<defs>
			<rect id="SVGID_19_" x="6038.7" y="-20237" width="216.5" height="57.5"/>
		</defs>
		<clipPath id="SVGID_20_">
			<use xlink:href="#SVGID_19_"  style="overflow:visible;"/>
		</clipPath>
		<g style="clip-path:url(#SVGID_20_);">
			
				<use xlink:href="#b"  width="-32766" height="-32766" x="16383" y="16383" transform="matrix(2.8346 0 0 -2.8346 151.2685 1425.7667)" style="overflow:visible;"/>
		</g>
	</g>
</g>
<g>
	<path class="st0" d="M177.9,89c0,49.1-39.8,89-89,89S0,138.1,0,89C0,39.8,39.8,0,89,0S177.9,39.8,177.9,89"/>
	<path class="st1" d="M89.7,138.6c-24.4,0.1-49.9-20.8-50-54.3c-0.1-22.2,11.9-43.5,27.2-56.1c14.9-12.3,35.3-20.3,53.8-20.3
		c2.4,0,4.9,0.2,6.4,0.7C110.9,11.9,98,27,98.1,44.1c0,0.6,0,1.2,0.1,1.5c27.1,6.6,39.4,23,39.5,45.6
		C137.7,113.7,119.9,138.5,89.7,138.6"/>
</g>
</svg>
