<?xml version="1.0" encoding="utf-8"?>
<!-- Generator: Adobe Illustrator 25.0.0, SVG Export Plug-In . SVG Version: 6.00 Build 0)  -->
<svg version="1.1" id="Layer_1" xmlns="http://www.w3.org/2000/svg" xmlns:xlink="http://www.w3.org/1999/xlink" x="0px" y="0px"
	 viewBox="0 0 512 512" style="enable-background:new 0 0 512 512;" xml:space="preserve">
<style type="text/css">
	.st0{fill:#5B6ED8;}
	.st1{fill:#6788EF;}
	.st2{fill:#566AC1;}
</style>
<g>
	<path class="st2" d="M352.1,159.7H142.3c-5.2,0-9.4,4.2-9.4,9.4v87.2c0,2.2,2.6,3.2,4.1,1.7l13.7-13.7c0.5-0.5,0.7-1.1,0.7-1.7
		v-61.9c0-1.3,1.1-2.4,2.4-2.4h189c1.3,0,2.4,1.1,2.4,2.4v79.5c0,1.3,1.1,2.4,2.4,2.4h10.3c1.3,0,2.4,1.1,2.4,2.4v37.5
		c0,1.3-1.1,2.4-2.4,2.4h-10.3c-1.3,0-2.4,1.1-2.4,2.4v62.3c0,1.3-1.1,2.4-2.4,2.4h-94.3c-0.6,0-1.3,0.3-1.7,0.7
		c-4.6,4.6-9.1,9.1-13.7,13.7c-1.5,1.5-0.4,4.1,1.7,4.1h117.2c6.5,0,11.8-5.3,11.8-11.8V171.5C363.8,165,358.6,159.7,352.1,159.7z"
		/>
	<g>
		<path class="st1" d="M375.9,244.1h-57.8c-21.6,0-39.3,17.4-39.7,39c-0.4,22.2,18.3,40.4,40.5,40.4h57c1.7,0,3.1-1.4,3.1-3.1v-73.1
			C379,245.4,377.6,244.1,375.9,244.1z M360.5,304.9h-41.9c-11.5,0-21.2-8.9-21.7-20.4c-0.5-12,9.2-22,21.2-22h42.4V304.9z"/>
	</g>
	<path class="st2" d="M322.7,271.5c-6.8,0-12.3,5.5-12.3,12.3c0,6.8,5.5,12.3,12.3,12.3c6.8,0,12.3-5.5,12.3-12.3
		C335,277,329.5,271.5,322.7,271.5z"/>
	<polygon class="st1" points="232.2,326.3 192.7,326.3 192.7,289.9 172.5,289.9 172.5,326.3 133,326.3 133,346.4 172.5,346.4 
		172.5,383.4 192.7,383.4 192.7,346.4 232.2,346.4 	"/>
</g>
</svg>
