<?xml version="1.0" encoding="utf-8"?>
<!-- Generator: Adobe Illustrator 25.0.0, SVG Export Plug-In . SVG Version: 6.00 Build 0)  -->
<svg version="1.1" id="Layer_1" xmlns="http://www.w3.org/2000/svg" xmlns:xlink="http://www.w3.org/1999/xlink" x="0px" y="0px"
	 viewBox="0 0 512 512" style="enable-background:new 0 0 512 512;" xml:space="preserve">
<style type="text/css">
	.st0{fill:#5B6ED8;}
	.st1{fill:#445CC1;}
	.st2{fill:#566AC1;}
	.st3{fill:#3954C4;}
	.st4{fill:#6788EF;}
	.st5{fill:none;stroke:#566AC1;stroke-width:12.1789;stroke-linecap:round;stroke-miterlimit:10;}
</style>
<g>
	<g>
		<path class="st2" d="M394.4,279.6c-5.3-29-26.1-68-61.8-115.9c-28.9-38.7-58.2-70.6-67.9-80c-5.1-4.9-13.1-4.9-18.1,0
			c-9.8,9.4-31.7,32.4-54.8,60.7c-1.6,2-1.5,4.9,0.3,6.8l4.3,4.3c2.1,2.1,5.6,1.9,7.5-0.4c21-25.8,41.1-47.3,51.8-57.8
			c26.2,26.2,112.2,126.4,123.1,185.3c6.1,33.1-8.2,58.8-21.2,74.4c-24.2,29-63.2,47.1-101.9,47.1c-36.5,0-72.7-16.1-96.7-43.1
			c-20.2-22.7-29.6-50.7-26.3-78.9c3.5-30.5,28.1-70.6,55-106.3c1.5-2,1.3-4.8-0.5-6.6l-4.3-4.3c-3.2,0.2-4.4,0.3-7.6,0.5
			c-35.5,46.8-55.1,85.4-58.6,114.8c-3.8,32.8,6.9,65.3,30.2,91.4c27,30.3,67.6,48.5,108.7,48.5c43.3,0,87-20.2,114.2-52.8
			C391.3,341.3,400,310.2,394.4,279.6z"/>
	</g>
	<g>
		<path class="st4" d="M167.6,312.8l-7.5,3.1c-2.5,1-5.3-0.2-6.2-2.8c-12-33-7.3-72.6,21.2-88.2c2.4-1.3,5.4-0.2,6.5,2.3l2.6,6.2
			c0.9,2.1,0.1,4.6-1.8,5.8c-18.6,11.1-21.4,42-12.2,67.6C171,309.3,169.9,311.9,167.6,312.8z"/>
	</g>
</g>
</svg>
