<?xml version="1.0" encoding="utf-8"?>
<!-- Generator: Adobe Illustrator 25.0.0, SVG Export Plug-In . SVG Version: 6.00 Build 0)  -->
<svg version="1.1" id="Layer_1" xmlns="http://www.w3.org/2000/svg" xmlns:xlink="http://www.w3.org/1999/xlink" x="0px" y="0px"
	 viewBox="0 0 512 512" style="enable-background:new 0 0 512 512;" xml:space="preserve">
<style type="text/css">
	.st0{fill:#445CC1;}
	.st1{fill:#5B6ED8;}
	.st2{fill:#455CBF;}
	.st3{fill:#4A60BC;}
	.st4{fill:#495EB2;}
	.st5{fill:#465BB2;}
</style>
<g>
	<path class="st1" d="M375,138.4H137c-4.8,0-8.7,3.9-8.7,8.7v93.9c0,4.8,3.9,8.7,8.7,8.7h43.2v87.7c0,4.6,3.8,8.4,8.4,8.4h134.7
		c4.6,0,8.4-3.8,8.4-8.4v-87.7H375c4.8,0,8.7-3.9,8.7-8.7V147C383.6,142.2,379.7,138.4,375,138.4z M315.7,300.3c-0.2,0-0.4,0-0.7,0
		c-15.4,0-27.9,12.5-27.9,27.8c0,0.5,0,1,0,1.5h-61.6c0-0.2,0-0.5,0-0.7l0-0.8c0-15.4-12.5-27.9-27.9-27.9l-1,0c-0.2,0-0.3,0-0.5,0
		V203h119.5V300.3z M196.3,313.3c0.1,0,0.3,0,0.4,0l1,0c8.2,0,14.9,6.7,14.9,14.9l0,0.8c0,0.2,0,0.5,0,0.7h-16.4V313.3z
		 M300.2,329.6c0-0.4,0-0.9,0-1.5c0-8.2,6.7-14.8,14.9-14.8c0.2,0,0.4,0,0.7,0v16.3H300.2z M367.6,233.6h-35.9v-38.2
		c0-4.6-3.8-8.4-8.4-8.4H188.7c-4.6,0-8.4,3.8-8.4,8.4v38.2h-35.9v-79.2h223.2V233.6z"/>
	<path class="st1" d="M256,279.8c15.4,0,27.9-12.5,27.9-27.9s-12.5-27.9-27.9-27.9s-27.9,12.5-27.9,27.9S240.6,279.8,256,279.8z
		 M256,237.1c8.2,0,14.9,6.7,14.9,14.9s-6.7,14.9-14.9,14.9s-14.9-6.7-14.9-14.9S247.8,237.1,256,237.1z"/>
</g>
</svg>
